<svg width="32" height="32" viewBox="0 0 32 32" fill="none" xmlns="http://www.w3.org/2000/svg">
    <path d="M28 16C28 9.375 22.625 4 16 4C9.375 4 4 9.375 4 16C4 22.625 9.375 28 16 28C22.625 28 28 22.625 28 16Z" stroke="white" stroke-width="2" stroke-miterlimit="10"/>
    <path d="M16 22.5C15.7993 22.4999 15.6033 22.4393 15.4375 22.3263C12.9813 20.6588 11.9175 19.5138 11.3313 18.8007C10.0813 17.2775 9.48251 15.7132 9.50001 14.0194C9.51938 12.0782 11.0763 10.4988 12.9706 10.4988C14.2456 10.4988 15.1581 11.1632 15.7269 11.7744C15.7619 11.8115 15.8042 11.841 15.851 11.8612C15.8979 11.8814 15.9484 11.8918 15.9994 11.8918C16.0504 11.8918 16.1009 11.8814 16.1477 11.8612C16.1946 11.841 16.2368 11.8115 16.2719 11.7744C16.8413 11.1632 17.7531 10.4988 19.0281 10.4988C20.9225 10.4988 22.4794 12.0782 22.4988 14.0194C22.5163 15.7132 21.9169 17.2775 20.6675 18.8007C20.0813 19.5157 19.0175 20.6588 16.5613 22.3263C16.3958 22.4391 16.2003 22.4996 16 22.5Z" fill="white"/>
</svg>
