<svg width="60" height="60" viewBox="0 0 60 60" fill="none" xmlns="http://www.w3.org/2000/svg">
    <g clip-path="url(#clip0_29_62)">
        <path d="M30.4594 30.8098L25.3594 17.5512C25.2828 17.3522 25.1478 17.1811 24.9721 17.0604C24.7964 16.9397 24.5882 16.8751 24.375 16.8751C24.1618 16.8751 23.9536 16.9397 23.7779 17.0604C23.6022 17.1811 23.4672 17.3522 23.3906 17.5512L18.2906 30.8098C18.2377 30.9475 18.1564 31.0726 18.052 31.177C17.9476 31.2814 17.8225 31.3626 17.6848 31.4156L4.42617 36.5156C4.2272 36.5922 4.0561 36.7272 3.93541 36.9029C3.81473 37.0786 3.75013 37.2868 3.75013 37.5C3.75013 37.7132 3.81473 37.9214 3.93541 38.0971C4.0561 38.2728 4.2272 38.4078 4.42617 38.4844L17.6848 43.5844C17.8225 43.6374 17.9476 43.7186 18.052 43.823C18.1564 43.9274 18.2377 44.0525 18.2906 44.1902L23.3906 57.4488C23.4672 57.6478 23.6022 57.8189 23.7779 57.9396C23.9536 58.0603 24.1618 58.1249 24.375 58.1249C24.5882 58.1249 24.7964 58.0603 24.9721 57.9396C25.1478 57.8189 25.2828 57.6478 25.3594 57.4488L30.4594 44.1902C30.5124 44.0525 30.5936 43.9274 30.698 43.823C30.8024 43.7186 30.9275 43.6374 31.0652 43.5844L44.3238 38.4844C44.5228 38.4078 44.6939 38.2728 44.8146 38.0971C44.9353 37.9214 44.9999 37.7132 44.9999 37.5C44.9999 37.2868 44.9353 37.0786 44.8146 36.9029C44.6939 36.7272 44.5228 36.5922 44.3238 36.5156L31.0652 31.4156C30.9275 31.3626 30.8024 31.2814 30.698 31.177C30.5936 31.0726 30.5124 30.9475 30.4594 30.8098ZM12.6562 7.96875L10.3125 1.875L7.96875 7.96875L1.875 10.3125L7.96875 12.6562L10.3125 18.75L12.6562 12.6562L18.75 10.3125L12.6562 7.96875ZM50.0004 13.7496L46.875 5.625L43.7496 13.7496L35.625 16.875L43.7496 20.0004L46.875 28.125L50.0004 20.0004L58.125 16.875L50.0004 13.7496Z" stroke="white" stroke-width="3.75" stroke-linecap="round" stroke-linejoin="round"/>
    </g>
    <defs>
        <clipPath id="clip0_29_62">
            <rect width="60" height="60" fill="white"/>
        </clipPath>
    </defs>
</svg>
