<svg width="32" height="32" viewBox="0 0 32 32" fill="none" xmlns="http://www.w3.org/2000/svg">
    <path d="M9.10062 29H22.8994C24.1369 29 25.1212 27.9819 24.9881 26.8088C24.1287 19.25 19 19.375 19 16C19 12.625 24.1944 12.8125 24.9875 5.19125C25.1125 4.0175 24.1369 3 22.8994 3H9.10062C7.86312 3 6.89 4.0175 7.0125 5.19125C7.80562 12.8125 13 12.5625 13 16C13 19.4375 7.87125 19.25 7.0125 26.8088C6.87875 27.9819 7.86312 29 9.10062 29Z" stroke="white" stroke-width="2" stroke-linecap="round" stroke-linejoin="round"/>
    <path d="M21.4563 27H10.5706C9.59563 27 9.32063 25.875 10.0044 25.1775C11.6594 23.5 15 22.2988 15 20.375V14C15 12.7594 12.625 11.8125 11.1556 9.8C10.9131 9.46813 10.9375 9 11.5538 9H20.4744C21 9 21.1138 9.46437 20.8744 9.79688C19.4263 11.8125 17 12.7531 17 14V20.375C17 22.2831 20.4819 23.3125 22.025 25.1794C22.6469 25.9319 22.4294 27 21.4563 27Z" fill="white"/>
</svg>
