<svg width="121" height="60" viewBox="0 0 121 60" fill="none" xmlns="http://www.w3.org/2000/svg">
<rect x="0.5" y="0.5" width="119.667" height="59" rx="29.5" stroke="#ECECEC"/>
<path fill-rule="evenodd" clip-rule="evenodd" d="M74.6271 22.25C74.8496 21.545 74.6271 21.0325 73.6427 21.0325H70.3696C69.544 21.0325 69.1627 21.4812 68.9402 21.9612C68.9402 21.9612 67.2565 26.0612 64.9052 28.7194C64.1427 29.4881 63.7933 29.7444 63.3802 29.7444C63.1577 29.7444 62.8715 29.4881 62.8715 28.7837V22.2169C62.8715 21.3844 62.6177 21 61.9183 21H56.7708C56.2621 21 55.9446 21.3844 55.9446 21.7688C55.9446 22.5694 57.1202 22.7619 57.2471 25.0037V29.875C57.2471 30.9319 57.0596 31.125 56.6433 31.125C55.5315 31.125 52.8308 26.9931 51.2108 22.285C50.8958 21.3525 50.5758 21 49.7496 21H46.4452C45.4921 21 45.3333 21.4481 45.3333 21.9288C45.3333 22.7938 46.4452 27.1494 50.5121 32.9144C53.2127 36.8519 57.0571 38.9681 60.5202 38.9681C62.6177 38.9681 62.8715 38.4875 62.8715 37.6869V34.7081C62.8715 33.7475 63.0621 33.5875 63.7296 33.5875C64.2058 33.5875 65.064 33.8431 67.0021 35.7331C69.2258 37.975 69.6071 39 70.8465 39H74.119C75.0721 39 75.5171 38.5194 75.2627 37.5906C74.9771 36.6619 73.8965 35.3169 72.4983 33.7156C71.7358 32.8194 70.5921 31.8263 70.2427 31.3456C69.7665 30.705 69.8933 30.4488 70.2427 29.8725C70.2108 29.8725 74.2146 24.1713 74.6271 22.2475" fill="#ECECEC"/>
</svg>
