<svg width="382" height="52" viewBox="0 0 382 52" fill="none" xmlns="http://www.w3.org/2000/svg">
<rect width="382" height="52" rx="26" fill="#ECECEC"/>
<path d="M95.18 33V19H101.2C102.72 19 103.913 19.3067 104.78 19.92C105.647 20.5333 106.08 21.4267 106.08 22.6C106.08 23.7467 105.667 24.6267 104.84 25.24C104.013 25.84 102.927 26.14 101.58 26.14L101.94 25.54C103.5 25.54 104.693 25.8533 105.52 26.48C106.36 27.0933 106.78 27.9933 106.78 29.18C106.78 30.38 106.34 31.32 105.46 32C104.593 32.6667 103.3 33 101.58 33H95.18ZM97.16 31.42H101.54C102.607 31.42 103.407 31.2267 103.94 30.84C104.487 30.44 104.76 29.8333 104.76 29.02C104.76 28.2067 104.487 27.6133 103.94 27.24C103.407 26.8667 102.607 26.68 101.54 26.68H97.16V31.42ZM97.16 25.16H101.06C102.033 25.16 102.773 24.9667 103.28 24.58C103.8 24.1933 104.06 23.6267 104.06 22.88C104.06 22.12 103.8 21.5467 103.28 21.16C102.773 20.7733 102.033 20.58 101.06 20.58H97.16V25.16ZM116.421 33.16C115.355 33.16 114.361 32.98 113.441 32.62C112.535 32.26 111.748 31.76 111.081 31.12C110.415 30.4667 109.895 29.7067 109.521 28.84C109.148 27.9733 108.961 27.0267 108.961 26C108.961 24.9733 109.148 24.0267 109.521 23.16C109.895 22.2933 110.415 21.54 111.081 20.9C111.748 20.2467 112.535 19.74 113.441 19.38C114.348 19.02 115.341 18.84 116.421 18.84C117.488 18.84 118.468 19.02 119.361 19.38C120.268 19.7267 121.055 20.2267 121.721 20.88C122.401 21.52 122.921 22.2733 123.281 23.14C123.655 24.0067 123.841 24.96 123.841 26C123.841 27.04 123.655 27.9933 123.281 28.86C122.921 29.7267 122.401 30.4867 121.721 31.14C121.055 31.78 120.268 32.28 119.361 32.64C118.468 32.9867 117.488 33.16 116.421 33.16ZM116.421 31.38C117.195 31.38 117.908 31.2467 118.561 30.98C119.228 30.7133 119.801 30.34 120.281 29.86C120.775 29.3667 121.155 28.7933 121.421 28.14C121.701 27.4867 121.841 26.7733 121.841 26C121.841 25.2267 121.701 24.5133 121.421 23.86C121.155 23.2067 120.775 22.64 120.281 22.16C119.801 21.6667 119.228 21.2867 118.561 21.02C117.908 20.7533 117.195 20.62 116.421 20.62C115.635 20.62 114.908 20.7533 114.241 21.02C113.588 21.2867 113.015 21.6667 112.521 22.16C112.028 22.64 111.641 23.2067 111.361 23.86C111.095 24.5133 110.961 25.2267 110.961 26C110.961 26.7733 111.095 27.4867 111.361 28.14C111.641 28.7933 112.028 29.3667 112.521 29.86C113.015 30.34 113.588 30.7133 114.241 30.98C114.908 31.2467 115.635 31.38 116.421 31.38ZM127.075 33V19H129.055V29.8L137.335 19H139.175V33H137.215V22.22L128.915 33H127.075ZM133.095 18.02C132.001 18.02 131.155 17.78 130.555 17.3C129.968 16.82 129.668 16.1467 129.655 15.28H131.075C131.088 15.8 131.275 16.2067 131.635 16.5C131.995 16.78 132.481 16.92 133.095 16.92C133.695 16.92 134.175 16.78 134.535 16.5C134.908 16.2067 135.101 15.8 135.115 15.28H136.515C136.501 16.1467 136.195 16.82 135.595 17.3C135.008 17.78 134.175 18.02 133.095 18.02ZM146.399 33V20.22L146.899 20.74H141.619V19H153.159V20.74H147.879L148.359 20.22V33H146.399ZM155.59 33V19H157.57V29.8L165.85 19H167.69V33H165.73V22.22L157.43 33H155.59ZM183.686 33.16C182.619 33.16 181.633 32.9867 180.726 32.64C179.833 32.28 179.053 31.78 178.386 31.14C177.733 30.4867 177.219 29.7267 176.846 28.86C176.473 27.9933 176.286 27.04 176.286 26C176.286 24.96 176.473 24.0067 176.846 23.14C177.219 22.2733 177.739 21.52 178.406 20.88C179.073 20.2267 179.853 19.7267 180.746 19.38C181.653 19.02 182.639 18.84 183.706 18.84C184.786 18.84 185.779 19.0267 186.686 19.4C187.606 19.76 188.386 20.3 189.026 21.02L187.726 22.28C187.193 21.72 186.593 21.3067 185.926 21.04C185.259 20.76 184.546 20.62 183.786 20.62C182.999 20.62 182.266 20.7533 181.586 21.02C180.919 21.2867 180.339 21.66 179.846 22.14C179.353 22.62 178.966 23.1933 178.686 23.86C178.419 24.5133 178.286 25.2267 178.286 26C178.286 26.7733 178.419 27.4933 178.686 28.16C178.966 28.8133 179.353 29.38 179.846 29.86C180.339 30.34 180.919 30.7133 181.586 30.98C182.266 31.2467 182.999 31.38 183.786 31.38C184.546 31.38 185.259 31.2467 185.926 30.98C186.593 30.7 187.193 30.2733 187.726 29.7L189.026 30.96C188.386 31.68 187.606 32.2267 186.686 32.6C185.779 32.9733 184.779 33.16 183.686 33.16ZM197.153 33V19H209.213V33H207.253V20.22L207.733 20.74H198.633L199.133 20.22V33H197.153ZM219.878 33.16C218.812 33.16 217.818 32.98 216.898 32.62C215.992 32.26 215.205 31.76 214.538 31.12C213.872 30.4667 213.352 29.7067 212.978 28.84C212.605 27.9733 212.418 27.0267 212.418 26C212.418 24.9733 212.605 24.0267 212.978 23.16C213.352 22.2933 213.872 21.54 214.538 20.9C215.205 20.2467 215.992 19.74 216.898 19.38C217.805 19.02 218.798 18.84 219.878 18.84C220.945 18.84 221.925 19.02 222.818 19.38C223.725 19.7267 224.512 20.2267 225.178 20.88C225.858 21.52 226.378 22.2733 226.738 23.14C227.112 24.0067 227.298 24.96 227.298 26C227.298 27.04 227.112 27.9933 226.738 28.86C226.378 29.7267 225.858 30.4867 225.178 31.14C224.512 31.78 223.725 32.28 222.818 32.64C221.925 32.9867 220.945 33.16 219.878 33.16ZM219.878 31.38C220.652 31.38 221.365 31.2467 222.018 30.98C222.685 30.7133 223.258 30.34 223.738 29.86C224.232 29.3667 224.612 28.7933 224.878 28.14C225.158 27.4867 225.298 26.7733 225.298 26C225.298 25.2267 225.158 24.5133 224.878 23.86C224.612 23.2067 224.232 22.64 223.738 22.16C223.258 21.6667 222.685 21.2867 222.018 21.02C221.365 20.7533 220.652 20.62 219.878 20.62C219.092 20.62 218.365 20.7533 217.698 21.02C217.045 21.2867 216.472 21.6667 215.978 22.16C215.485 22.64 215.098 23.2067 214.818 23.86C214.552 24.5133 214.418 25.2267 214.418 26C214.418 26.7733 214.552 27.4867 214.818 28.14C215.098 28.7933 215.485 29.3667 215.978 29.86C216.472 30.34 217.045 30.7133 217.698 30.98C218.365 31.2467 219.092 31.38 219.878 31.38ZM238.959 27.32C238.172 27.6533 237.405 27.9067 236.659 28.08C235.925 28.24 235.212 28.32 234.519 28.32C232.812 28.32 231.485 27.9067 230.539 27.08C229.605 26.2533 229.139 25.0733 229.139 23.54V19H231.099V23.32C231.099 24.36 231.419 25.16 232.059 25.72C232.699 26.28 233.592 26.56 234.739 26.56C235.419 26.56 236.112 26.4733 236.819 26.3C237.539 26.1267 238.239 25.8733 238.919 25.54L238.959 27.32ZM238.619 33V19H240.599V33H238.619ZM247.825 33V20.22L248.325 20.74H243.045V19H254.585V20.74H249.305L249.785 20.22V33H247.825ZM263.121 33.16C262.054 33.16 261.061 32.98 260.141 32.62C259.234 32.26 258.447 31.76 257.781 31.12C257.114 30.4667 256.594 29.7067 256.221 28.84C255.847 27.9733 255.661 27.0267 255.661 26C255.661 24.9733 255.847 24.0267 256.221 23.16C256.594 22.2933 257.114 21.54 257.781 20.9C258.447 20.2467 259.234 19.74 260.141 19.38C261.047 19.02 262.041 18.84 263.121 18.84C264.187 18.84 265.167 19.02 266.061 19.38C266.967 19.7267 267.754 20.2267 268.421 20.88C269.101 21.52 269.621 22.2733 269.981 23.14C270.354 24.0067 270.541 24.96 270.541 26C270.541 27.04 270.354 27.9933 269.981 28.86C269.621 29.7267 269.101 30.4867 268.421 31.14C267.754 31.78 266.967 32.28 266.061 32.64C265.167 32.9867 264.187 33.16 263.121 33.16ZM263.121 31.38C263.894 31.38 264.607 31.2467 265.261 30.98C265.927 30.7133 266.501 30.34 266.981 29.86C267.474 29.3667 267.854 28.7933 268.121 28.14C268.401 27.4867 268.541 26.7733 268.541 26C268.541 25.2267 268.401 24.5133 268.121 23.86C267.854 23.2067 267.474 22.64 266.981 22.16C266.501 21.6667 265.927 21.2867 265.261 21.02C264.607 20.7533 263.894 20.62 263.121 20.62C262.334 20.62 261.607 20.7533 260.941 21.02C260.287 21.2867 259.714 21.6667 259.221 22.16C258.727 22.64 258.341 23.2067 258.061 23.86C257.794 24.5133 257.661 25.2267 257.661 26C257.661 26.7733 257.794 27.4867 258.061 28.14C258.341 28.7933 258.727 29.3667 259.221 29.86C259.714 30.34 260.287 30.7133 260.941 30.98C261.607 31.2467 262.334 31.38 263.121 31.38ZM273.774 33V19H275.754V29.8L284.034 19H285.874V33H283.914V22.22L275.614 33H273.774ZM279.794 18.02C278.7 18.02 277.854 17.78 277.254 17.3C276.667 16.82 276.367 16.1467 276.354 15.28H277.774C277.787 15.8 277.974 16.2067 278.334 16.5C278.694 16.78 279.18 16.92 279.794 16.92C280.394 16.92 280.874 16.78 281.234 16.5C281.607 16.2067 281.8 15.8 281.814 15.28H283.214C283.2 16.1467 282.894 16.82 282.294 17.3C281.707 17.78 280.874 18.02 279.794 18.02Z" fill="black"/>
</svg>
