<svg width="382" height="124" viewBox="0 0 382 124" fill="none" xmlns="http://www.w3.org/2000/svg">
<rect width="382" height="60" rx="30" fill="#ECECEC"/>
<path d="M95.18 37V23H101.2C102.72 23 103.913 23.3067 104.78 23.92C105.647 24.5333 106.08 25.4267 106.08 26.6C106.08 27.7467 105.667 28.6267 104.84 29.24C104.013 29.84 102.927 30.14 101.58 30.14L101.94 29.54C103.5 29.54 104.693 29.8533 105.52 30.48C106.36 31.0933 106.78 31.9933 106.78 33.18C106.78 34.38 106.34 35.32 105.46 36C104.593 36.6667 103.3 37 101.58 37H95.18ZM97.16 35.42H101.54C102.607 35.42 103.407 35.2267 103.94 34.84C104.487 34.44 104.76 33.8333 104.76 33.02C104.76 32.2067 104.487 31.6133 103.94 31.24C103.407 30.8667 102.607 30.68 101.54 30.68H97.16V35.42ZM97.16 29.16H101.06C102.033 29.16 102.773 28.9667 103.28 28.58C103.8 28.1933 104.06 27.6267 104.06 26.88C104.06 26.12 103.8 25.5467 103.28 25.16C102.773 24.7733 102.033 24.58 101.06 24.58H97.16V29.16ZM116.421 37.16C115.355 37.16 114.361 36.98 113.441 36.62C112.535 36.26 111.748 35.76 111.081 35.12C110.415 34.4667 109.895 33.7067 109.521 32.84C109.148 31.9733 108.961 31.0267 108.961 30C108.961 28.9733 109.148 28.0267 109.521 27.16C109.895 26.2933 110.415 25.54 111.081 24.9C111.748 24.2467 112.535 23.74 113.441 23.38C114.348 23.02 115.341 22.84 116.421 22.84C117.488 22.84 118.468 23.02 119.361 23.38C120.268 23.7267 121.055 24.2267 121.721 24.88C122.401 25.52 122.921 26.2733 123.281 27.14C123.655 28.0067 123.841 28.96 123.841 30C123.841 31.04 123.655 31.9933 123.281 32.86C122.921 33.7267 122.401 34.4867 121.721 35.14C121.055 35.78 120.268 36.28 119.361 36.64C118.468 36.9867 117.488 37.16 116.421 37.16ZM116.421 35.38C117.195 35.38 117.908 35.2467 118.561 34.98C119.228 34.7133 119.801 34.34 120.281 33.86C120.775 33.3667 121.155 32.7933 121.421 32.14C121.701 31.4867 121.841 30.7733 121.841 30C121.841 29.2267 121.701 28.5133 121.421 27.86C121.155 27.2067 120.775 26.64 120.281 26.16C119.801 25.6667 119.228 25.2867 118.561 25.02C117.908 24.7533 117.195 24.62 116.421 24.62C115.635 24.62 114.908 24.7533 114.241 25.02C113.588 25.2867 113.015 25.6667 112.521 26.16C112.028 26.64 111.641 27.2067 111.361 27.86C111.095 28.5133 110.961 29.2267 110.961 30C110.961 30.7733 111.095 31.4867 111.361 32.14C111.641 32.7933 112.028 33.3667 112.521 33.86C113.015 34.34 113.588 34.7133 114.241 34.98C114.908 35.2467 115.635 35.38 116.421 35.38ZM127.075 37V23H129.055V33.8L137.335 23H139.175V37H137.215V26.22L128.915 37H127.075ZM133.095 22.02C132.001 22.02 131.155 21.78 130.555 21.3C129.968 20.82 129.668 20.1467 129.655 19.28H131.075C131.088 19.8 131.275 20.2067 131.635 20.5C131.995 20.78 132.481 20.92 133.095 20.92C133.695 20.92 134.175 20.78 134.535 20.5C134.908 20.2067 135.101 19.8 135.115 19.28H136.515C136.501 20.1467 136.195 20.82 135.595 21.3C135.008 21.78 134.175 22.02 133.095 22.02ZM146.399 37V24.22L146.899 24.74H141.619V23H153.159V24.74H147.879L148.359 24.22V37H146.399ZM155.59 37V23H157.57V33.8L165.85 23H167.69V37H165.73V26.22L157.43 37H155.59ZM183.686 37.16C182.619 37.16 181.633 36.9867 180.726 36.64C179.833 36.28 179.053 35.78 178.386 35.14C177.733 34.4867 177.219 33.7267 176.846 32.86C176.473 31.9933 176.286 31.04 176.286 30C176.286 28.96 176.473 28.0067 176.846 27.14C177.219 26.2733 177.739 25.52 178.406 24.88C179.073 24.2267 179.853 23.7267 180.746 23.38C181.653 23.02 182.639 22.84 183.706 22.84C184.786 22.84 185.779 23.0267 186.686 23.4C187.606 23.76 188.386 24.3 189.026 25.02L187.726 26.28C187.193 25.72 186.593 25.3067 185.926 25.04C185.259 24.76 184.546 24.62 183.786 24.62C182.999 24.62 182.266 24.7533 181.586 25.02C180.919 25.2867 180.339 25.66 179.846 26.14C179.353 26.62 178.966 27.1933 178.686 27.86C178.419 28.5133 178.286 29.2267 178.286 30C178.286 30.7733 178.419 31.4933 178.686 32.16C178.966 32.8133 179.353 33.38 179.846 33.86C180.339 34.34 180.919 34.7133 181.586 34.98C182.266 35.2467 182.999 35.38 183.786 35.38C184.546 35.38 185.259 35.2467 185.926 34.98C186.593 34.7 187.193 34.2733 187.726 33.7L189.026 34.96C188.386 35.68 187.606 36.2267 186.686 36.6C185.779 36.9733 184.779 37.16 183.686 37.16ZM197.153 37V23H209.213V37H207.253V24.22L207.733 24.74H198.633L199.133 24.22V37H197.153ZM219.878 37.16C218.812 37.16 217.818 36.98 216.898 36.62C215.992 36.26 215.205 35.76 214.538 35.12C213.872 34.4667 213.352 33.7067 212.978 32.84C212.605 31.9733 212.418 31.0267 212.418 30C212.418 28.9733 212.605 28.0267 212.978 27.16C213.352 26.2933 213.872 25.54 214.538 24.9C215.205 24.2467 215.992 23.74 216.898 23.38C217.805 23.02 218.798 22.84 219.878 22.84C220.945 22.84 221.925 23.02 222.818 23.38C223.725 23.7267 224.512 24.2267 225.178 24.88C225.858 25.52 226.378 26.2733 226.738 27.14C227.112 28.0067 227.298 28.96 227.298 30C227.298 31.04 227.112 31.9933 226.738 32.86C226.378 33.7267 225.858 34.4867 225.178 35.14C224.512 35.78 223.725 36.28 222.818 36.64C221.925 36.9867 220.945 37.16 219.878 37.16ZM219.878 35.38C220.652 35.38 221.365 35.2467 222.018 34.98C222.685 34.7133 223.258 34.34 223.738 33.86C224.232 33.3667 224.612 32.7933 224.878 32.14C225.158 31.4867 225.298 30.7733 225.298 30C225.298 29.2267 225.158 28.5133 224.878 27.86C224.612 27.2067 224.232 26.64 223.738 26.16C223.258 25.6667 222.685 25.2867 222.018 25.02C221.365 24.7533 220.652 24.62 219.878 24.62C219.092 24.62 218.365 24.7533 217.698 25.02C217.045 25.2867 216.472 25.6667 215.978 26.16C215.485 26.64 215.098 27.2067 214.818 27.86C214.552 28.5133 214.418 29.2267 214.418 30C214.418 30.7733 214.552 31.4867 214.818 32.14C215.098 32.7933 215.485 33.3667 215.978 33.86C216.472 34.34 217.045 34.7133 217.698 34.98C218.365 35.2467 219.092 35.38 219.878 35.38ZM238.959 31.32C238.172 31.6533 237.405 31.9067 236.659 32.08C235.925 32.24 235.212 32.32 234.519 32.32C232.812 32.32 231.485 31.9067 230.539 31.08C229.605 30.2533 229.139 29.0733 229.139 27.54V23H231.099V27.32C231.099 28.36 231.419 29.16 232.059 29.72C232.699 30.28 233.592 30.56 234.739 30.56C235.419 30.56 236.112 30.4733 236.819 30.3C237.539 30.1267 238.239 29.8733 238.919 29.54L238.959 31.32ZM238.619 37V23H240.599V37H238.619ZM247.825 37V24.22L248.325 24.74H243.045V23H254.585V24.74H249.305L249.785 24.22V37H247.825ZM263.121 37.16C262.054 37.16 261.061 36.98 260.141 36.62C259.234 36.26 258.447 35.76 257.781 35.12C257.114 34.4667 256.594 33.7067 256.221 32.84C255.847 31.9733 255.661 31.0267 255.661 30C255.661 28.9733 255.847 28.0267 256.221 27.16C256.594 26.2933 257.114 25.54 257.781 24.9C258.447 24.2467 259.234 23.74 260.141 23.38C261.047 23.02 262.041 22.84 263.121 22.84C264.187 22.84 265.167 23.02 266.061 23.38C266.967 23.7267 267.754 24.2267 268.421 24.88C269.101 25.52 269.621 26.2733 269.981 27.14C270.354 28.0067 270.541 28.96 270.541 30C270.541 31.04 270.354 31.9933 269.981 32.86C269.621 33.7267 269.101 34.4867 268.421 35.14C267.754 35.78 266.967 36.28 266.061 36.64C265.167 36.9867 264.187 37.16 263.121 37.16ZM263.121 35.38C263.894 35.38 264.607 35.2467 265.261 34.98C265.927 34.7133 266.501 34.34 266.981 33.86C267.474 33.3667 267.854 32.7933 268.121 32.14C268.401 31.4867 268.541 30.7733 268.541 30C268.541 29.2267 268.401 28.5133 268.121 27.86C267.854 27.2067 267.474 26.64 266.981 26.16C266.501 25.6667 265.927 25.2867 265.261 25.02C264.607 24.7533 263.894 24.62 263.121 24.62C262.334 24.62 261.607 24.7533 260.941 25.02C260.287 25.2867 259.714 25.6667 259.221 26.16C258.727 26.64 258.341 27.2067 258.061 27.86C257.794 28.5133 257.661 29.2267 257.661 30C257.661 30.7733 257.794 31.4867 258.061 32.14C258.341 32.7933 258.727 33.3667 259.221 33.86C259.714 34.34 260.287 34.7133 260.941 34.98C261.607 35.2467 262.334 35.38 263.121 35.38ZM273.774 37V23H275.754V33.8L284.034 23H285.874V37H283.914V26.22L275.614 37H273.774ZM279.794 22.02C278.7 22.02 277.854 21.78 277.254 21.3C276.667 20.82 276.367 20.1467 276.354 19.28H277.774C277.787 19.8 277.974 20.2067 278.334 20.5C278.694 20.78 279.18 20.92 279.794 20.92C280.394 20.92 280.874 20.78 281.234 20.5C281.607 20.2067 281.8 19.8 281.814 19.28H283.214C283.2 20.1467 282.894 20.82 282.294 21.3C281.707 21.78 280.874 22.02 279.794 22.02Z" fill="black"/>
<rect y="72" width="382" height="52" rx="26" fill="#ECECEC"/>
<path d="M95.18 105V91H101.2C102.72 91 103.913 91.3067 104.78 91.92C105.647 92.5333 106.08 93.4267 106.08 94.6C106.08 95.7467 105.667 96.6267 104.84 97.24C104.013 97.84 102.927 98.14 101.58 98.14L101.94 97.54C103.5 97.54 104.693 97.8533 105.52 98.48C106.36 99.0933 106.78 99.9933 106.78 101.18C106.78 102.38 106.34 103.32 105.46 104C104.593 104.667 103.3 105 101.58 105H95.18ZM97.16 103.42H101.54C102.607 103.42 103.407 103.227 103.94 102.84C104.487 102.44 104.76 101.833 104.76 101.02C104.76 100.207 104.487 99.6133 103.94 99.24C103.407 98.8667 102.607 98.68 101.54 98.68H97.16V103.42ZM97.16 97.16H101.06C102.033 97.16 102.773 96.9667 103.28 96.58C103.8 96.1933 104.06 95.6267 104.06 94.88C104.06 94.12 103.8 93.5467 103.28 93.16C102.773 92.7733 102.033 92.58 101.06 92.58H97.16V97.16ZM116.421 105.16C115.355 105.16 114.361 104.98 113.441 104.62C112.535 104.26 111.748 103.76 111.081 103.12C110.415 102.467 109.895 101.707 109.521 100.84C109.148 99.9733 108.961 99.0267 108.961 98C108.961 96.9733 109.148 96.0267 109.521 95.16C109.895 94.2933 110.415 93.54 111.081 92.9C111.748 92.2467 112.535 91.74 113.441 91.38C114.348 91.02 115.341 90.84 116.421 90.84C117.488 90.84 118.468 91.02 119.361 91.38C120.268 91.7267 121.055 92.2267 121.721 92.88C122.401 93.52 122.921 94.2733 123.281 95.14C123.655 96.0067 123.841 96.96 123.841 98C123.841 99.04 123.655 99.9933 123.281 100.86C122.921 101.727 122.401 102.487 121.721 103.14C121.055 103.78 120.268 104.28 119.361 104.64C118.468 104.987 117.488 105.16 116.421 105.16ZM116.421 103.38C117.195 103.38 117.908 103.247 118.561 102.98C119.228 102.713 119.801 102.34 120.281 101.86C120.775 101.367 121.155 100.793 121.421 100.14C121.701 99.4867 121.841 98.7733 121.841 98C121.841 97.2267 121.701 96.5133 121.421 95.86C121.155 95.2067 120.775 94.64 120.281 94.16C119.801 93.6667 119.228 93.2867 118.561 93.02C117.908 92.7533 117.195 92.62 116.421 92.62C115.635 92.62 114.908 92.7533 114.241 93.02C113.588 93.2867 113.015 93.6667 112.521 94.16C112.028 94.64 111.641 95.2067 111.361 95.86C111.095 96.5133 110.961 97.2267 110.961 98C110.961 98.7733 111.095 99.4867 111.361 100.14C111.641 100.793 112.028 101.367 112.521 101.86C113.015 102.34 113.588 102.713 114.241 102.98C114.908 103.247 115.635 103.38 116.421 103.38ZM127.075 105V91H129.055V101.8L137.335 91H139.175V105H137.215V94.22L128.915 105H127.075ZM133.095 90.02C132.001 90.02 131.155 89.78 130.555 89.3C129.968 88.82 129.668 88.1467 129.655 87.28H131.075C131.088 87.8 131.275 88.2067 131.635 88.5C131.995 88.78 132.481 88.92 133.095 88.92C133.695 88.92 134.175 88.78 134.535 88.5C134.908 88.2067 135.101 87.8 135.115 87.28H136.515C136.501 88.1467 136.195 88.82 135.595 89.3C135.008 89.78 134.175 90.02 133.095 90.02ZM146.399 105V92.22L146.899 92.74H141.619V91H153.159V92.74H147.879L148.359 92.22V105H146.399ZM155.59 105V91H157.57V101.8L165.85 91H167.69V105H165.73V94.22L157.43 105H155.59ZM183.686 105.16C182.619 105.16 181.633 104.987 180.726 104.64C179.833 104.28 179.053 103.78 178.386 103.14C177.733 102.487 177.219 101.727 176.846 100.86C176.473 99.9933 176.286 99.04 176.286 98C176.286 96.96 176.473 96.0067 176.846 95.14C177.219 94.2733 177.739 93.52 178.406 92.88C179.073 92.2267 179.853 91.7267 180.746 91.38C181.653 91.02 182.639 90.84 183.706 90.84C184.786 90.84 185.779 91.0267 186.686 91.4C187.606 91.76 188.386 92.3 189.026 93.02L187.726 94.28C187.193 93.72 186.593 93.3067 185.926 93.04C185.259 92.76 184.546 92.62 183.786 92.62C182.999 92.62 182.266 92.7533 181.586 93.02C180.919 93.2867 180.339 93.66 179.846 94.14C179.353 94.62 178.966 95.1933 178.686 95.86C178.419 96.5133 178.286 97.2267 178.286 98C178.286 98.7733 178.419 99.4933 178.686 100.16C178.966 100.813 179.353 101.38 179.846 101.86C180.339 102.34 180.919 102.713 181.586 102.98C182.266 103.247 182.999 103.38 183.786 103.38C184.546 103.38 185.259 103.247 185.926 102.98C186.593 102.7 187.193 102.273 187.726 101.7L189.026 102.96C188.386 103.68 187.606 104.227 186.686 104.6C185.779 104.973 184.779 105.16 183.686 105.16ZM197.153 105V91H209.213V105H207.253V92.22L207.733 92.74H198.633L199.133 92.22V105H197.153ZM219.878 105.16C218.812 105.16 217.818 104.98 216.898 104.62C215.992 104.26 215.205 103.76 214.538 103.12C213.872 102.467 213.352 101.707 212.978 100.84C212.605 99.9733 212.418 99.0267 212.418 98C212.418 96.9733 212.605 96.0267 212.978 95.16C213.352 94.2933 213.872 93.54 214.538 92.9C215.205 92.2467 215.992 91.74 216.898 91.38C217.805 91.02 218.798 90.84 219.878 90.84C220.945 90.84 221.925 91.02 222.818 91.38C223.725 91.7267 224.512 92.2267 225.178 92.88C225.858 93.52 226.378 94.2733 226.738 95.14C227.112 96.0067 227.298 96.96 227.298 98C227.298 99.04 227.112 99.9933 226.738 100.86C226.378 101.727 225.858 102.487 225.178 103.14C224.512 103.78 223.725 104.28 222.818 104.64C221.925 104.987 220.945 105.16 219.878 105.16ZM219.878 103.38C220.652 103.38 221.365 103.247 222.018 102.98C222.685 102.713 223.258 102.34 223.738 101.86C224.232 101.367 224.612 100.793 224.878 100.14C225.158 99.4867 225.298 98.7733 225.298 98C225.298 97.2267 225.158 96.5133 224.878 95.86C224.612 95.2067 224.232 94.64 223.738 94.16C223.258 93.6667 222.685 93.2867 222.018 93.02C221.365 92.7533 220.652 92.62 219.878 92.62C219.092 92.62 218.365 92.7533 217.698 93.02C217.045 93.2867 216.472 93.6667 215.978 94.16C215.485 94.64 215.098 95.2067 214.818 95.86C214.552 96.5133 214.418 97.2267 214.418 98C214.418 98.7733 214.552 99.4867 214.818 100.14C215.098 100.793 215.485 101.367 215.978 101.86C216.472 102.34 217.045 102.713 217.698 102.98C218.365 103.247 219.092 103.38 219.878 103.38ZM238.959 99.32C238.172 99.6533 237.405 99.9067 236.659 100.08C235.925 100.24 235.212 100.32 234.519 100.32C232.812 100.32 231.485 99.9067 230.539 99.08C229.605 98.2533 229.139 97.0733 229.139 95.54V91H231.099V95.32C231.099 96.36 231.419 97.16 232.059 97.72C232.699 98.28 233.592 98.56 234.739 98.56C235.419 98.56 236.112 98.4733 236.819 98.3C237.539 98.1267 238.239 97.8733 238.919 97.54L238.959 99.32ZM238.619 105V91H240.599V105H238.619ZM247.825 105V92.22L248.325 92.74H243.045V91H254.585V92.74H249.305L249.785 92.22V105H247.825ZM263.121 105.16C262.054 105.16 261.061 104.98 260.141 104.62C259.234 104.26 258.447 103.76 257.781 103.12C257.114 102.467 256.594 101.707 256.221 100.84C255.847 99.9733 255.661 99.0267 255.661 98C255.661 96.9733 255.847 96.0267 256.221 95.16C256.594 94.2933 257.114 93.54 257.781 92.9C258.447 92.2467 259.234 91.74 260.141 91.38C261.047 91.02 262.041 90.84 263.121 90.84C264.187 90.84 265.167 91.02 266.061 91.38C266.967 91.7267 267.754 92.2267 268.421 92.88C269.101 93.52 269.621 94.2733 269.981 95.14C270.354 96.0067 270.541 96.96 270.541 98C270.541 99.04 270.354 99.9933 269.981 100.86C269.621 101.727 269.101 102.487 268.421 103.14C267.754 103.78 266.967 104.28 266.061 104.64C265.167 104.987 264.187 105.16 263.121 105.16ZM263.121 103.38C263.894 103.38 264.607 103.247 265.261 102.98C265.927 102.713 266.501 102.34 266.981 101.86C267.474 101.367 267.854 100.793 268.121 100.14C268.401 99.4867 268.541 98.7733 268.541 98C268.541 97.2267 268.401 96.5133 268.121 95.86C267.854 95.2067 267.474 94.64 266.981 94.16C266.501 93.6667 265.927 93.2867 265.261 93.02C264.607 92.7533 263.894 92.62 263.121 92.62C262.334 92.62 261.607 92.7533 260.941 93.02C260.287 93.2867 259.714 93.6667 259.221 94.16C258.727 94.64 258.341 95.2067 258.061 95.86C257.794 96.5133 257.661 97.2267 257.661 98C257.661 98.7733 257.794 99.4867 258.061 100.14C258.341 100.793 258.727 101.367 259.221 101.86C259.714 102.34 260.287 102.713 260.941 102.98C261.607 103.247 262.334 103.38 263.121 103.38ZM273.774 105V91H275.754V101.8L284.034 91H285.874V105H283.914V94.22L275.614 105H273.774ZM279.794 90.02C278.7 90.02 277.854 89.78 277.254 89.3C276.667 88.82 276.367 88.1467 276.354 87.28H277.774C277.787 87.8 277.974 88.2067 278.334 88.5C278.694 88.78 279.18 88.92 279.794 88.92C280.394 88.92 280.874 88.78 281.234 88.5C281.607 88.2067 281.8 87.8 281.814 87.28H283.214C283.2 88.1467 282.894 88.82 282.294 89.3C281.707 89.78 280.874 90.02 279.794 90.02Z" fill="black"/>
</svg>
