<svg width="430" height="932" viewBox="0 0 430 932" fill="none" xmlns="http://www.w3.org/2000/svg">
<g opacity="0.2">
<circle cx="375" cy="270" r="2" fill="#D9D9D9"/>
<circle cx="259" cy="253" r="2" fill="#D9D9D9"/>
<circle cx="130" cy="76" r="2" fill="#D9D9D9"/>
<circle cx="349" cy="51" r="2" fill="#D9D9D9"/>
<circle cx="97" cy="22" r="2" fill="#D9D9D9"/>
<circle cx="261" cy="126" r="2" fill="#D9D9D9"/>
<circle cx="309" cy="375" r="2" fill="#D9D9D9"/>
<circle cx="325" cy="385" r="2" fill="#D9D9D9"/>
<circle cx="384" cy="394" r="2" fill="#D9D9D9"/>
<circle cx="391" cy="468" r="2" fill="#D9D9D9"/>
<circle cx="134" cy="401" r="2" fill="#D9D9D9"/>
<circle cx="86" cy="430" r="2" fill="#D9D9D9"/>
<circle cx="110" cy="298" r="2" fill="#D9D9D9"/>
<circle cx="217" cy="315" r="2" fill="#D9D9D9"/>
<circle cx="47" cy="572" r="2" fill="#D9D9D9"/>
<circle cx="140" cy="564" r="2" fill="#D9D9D9"/>
<circle cx="240" cy="526" r="2" fill="#D9D9D9"/>
<circle cx="279" cy="564" r="2" fill="#D9D9D9"/>
<circle cx="362" cy="598" r="2" fill="#D9D9D9"/>
<circle cx="75" cy="694" r="2" fill="#D9D9D9"/>
<circle cx="166" cy="611" r="2" fill="#D9D9D9"/>
<circle cx="305" cy="698" r="2" fill="#D9D9D9"/>
<circle cx="181" cy="745" r="2" fill="#D9D9D9"/>
<circle cx="419" cy="801" r="2" fill="#D9D9D9"/>
<circle cx="16" cy="177" r="2" fill="#D9D9D9"/>
<circle cx="27" cy="359" r="2" fill="#D9D9D9"/>
<circle cx="31" cy="797" r="2" fill="#D9D9D9"/>
<circle cx="199" cy="679" r="2" fill="#D9D9D9"/>
</g>
</svg>
