<svg width="166" height="204" viewBox="0 0 166 204" fill="none" xmlns="http://www.w3.org/2000/svg">
<path d="M83.7696 0.00277794C91.0897 0.670446 104.092 46.8622 106.158 54.529C110.547 70.3954 114.001 86.5799 116.495 102.973C117.41 109.167 118.076 115.248 118.42 121.525C118.495 122.895 118.524 124.259 118.536 125.623C118.546 126.792 116.611 127.272 116.026 126.26C115.649 125.606 115.254 124.912 114.843 124.143C110.916 116.565 105.117 101.462 96.921 99.5876C92.4649 98.5694 80.5551 110.475 77.0966 113.907C70.8674 120.203 64.9343 126.87 59.3208 133.881C55.6667 138.506 52.1839 143.466 48.5577 148.196C47.9364 149.006 46.6633 148.547 46.6939 147.527C47.7508 112.282 53.1912 77.3832 62.8541 43.8793C65.4406 35.1072 75.7089 3.03756 83.4472 0.0525977C83.5536 0.0115758 83.656 -0.0075734 83.7696 0.00277794ZM83.5771 15.2281C83.5601 14.9423 83.2217 14.8018 83.0066 14.9907C82.9318 15.0565 82.889 15.1519 82.8894 15.2515C82.9235 22.9004 82.2598 30.2349 82.0483 37.8238C81.7342 49.084 80.9569 60.4733 80.6837 71.7081C80.6761 72.0209 80.4222 72.2719 80.1093 72.2746C78.0268 72.2927 75.9445 72.289 73.8623 72.2639C73.2925 72.257 73.0286 73.0203 73.4686 73.3824C75.2365 74.8375 77.3714 76.8078 78.8823 78.1612C79.0736 78.3325 79.1296 78.608 79.0308 78.845C78.3261 80.5316 77.5057 83.5 76.8856 85.7709C76.737 86.3154 77.3782 86.7357 77.8176 86.3815C79.5721 84.9668 81.2477 83.5895 82.9685 82.0452C83.187 81.8491 83.5178 81.8448 83.7403 82.0364C85.3865 83.4541 87.0488 84.8466 88.7271 86.2134C89.1844 86.5859 89.878 86.0997 89.7128 85.5335C89.0699 83.3305 88.5664 80.9729 87.6985 78.8421C87.6048 78.6115 87.6612 78.3454 87.846 78.1788C89.6704 76.534 91.5168 74.9213 93.3828 73.3394C93.8096 72.9777 93.5308 72.2647 92.9716 72.2795C90.8586 72.3359 88.6821 72.293 86.5878 72.2737C86.2738 72.2707 86.0192 72.019 86.0105 71.7051C85.9174 68.3483 85.6422 64.7303 85.5064 61.3592L84.4416 35.6669C84.11 28.8898 83.9772 21.9853 83.5771 15.2281Z" fill="url(#paint0_linear_1_34)"/>
<g filter="url(#filter0_d_1_34)">
<path d="M9.87257 188.623C9.70247 188.623 9.543 188.559 9.39416 188.432C9.26658 188.304 9.20279 188.144 9.20279 187.953C9.20279 187.868 9.22405 187.772 9.26658 187.666L16.9531 167.094C17.0169 166.881 17.1339 166.701 17.304 166.552C17.4954 166.382 17.7505 166.297 18.0695 166.297H21.5459C21.8649 166.297 22.1094 166.382 22.2795 166.552C22.4496 166.701 22.5772 166.881 22.6623 167.094L30.3488 187.666C30.3701 187.772 30.3807 187.868 30.3807 187.953C30.3807 188.144 30.3169 188.304 30.1894 188.432C30.0618 188.559 29.9129 188.623 29.7428 188.623H26.968C26.6703 188.623 26.4471 188.559 26.2982 188.432C26.1706 188.283 26.0856 188.144 26.0431 188.017L24.544 184.126H15.0714L13.5723 188.017C13.5298 188.144 13.4341 188.283 13.2853 188.432C13.1577 188.559 12.9451 188.623 12.6474 188.623H9.87257ZM16.1877 180.458H23.4277L19.7918 170.602L16.1877 180.458ZM39.2588 188.942C37.9831 188.942 36.888 188.793 35.9737 188.495C35.0807 188.198 34.3471 187.826 33.773 187.379C33.1989 186.932 32.7736 186.486 32.4972 186.039C32.2208 185.593 32.072 185.221 32.0507 184.923C32.0294 184.689 32.0932 184.508 32.2421 184.381C32.4122 184.232 32.5929 184.158 32.7843 184.158H35.3039C35.389 184.158 35.4634 184.168 35.5272 184.19C35.591 184.211 35.676 184.275 35.7823 184.381C36.0588 184.615 36.3458 184.859 36.6435 185.114C36.9624 185.37 37.3345 185.593 37.7598 185.784C38.1851 185.954 38.7166 186.039 39.3545 186.039C40.1838 186.039 40.8748 185.88 41.4277 185.561C42.0018 185.221 42.2888 184.742 42.2888 184.126C42.2888 183.679 42.1612 183.318 41.9061 183.041C41.6722 182.765 41.2257 182.52 40.5665 182.308C39.9074 182.074 38.9718 181.829 37.7598 181.574C36.5691 181.298 35.5803 180.947 34.7936 180.522C34.0069 180.096 33.4222 179.565 33.0394 178.927C32.6567 178.289 32.4653 177.545 32.4653 176.694C32.4653 175.865 32.7098 175.078 33.1989 174.334C33.7092 173.569 34.4534 172.941 35.4315 172.452C36.4309 171.963 37.6641 171.719 39.1313 171.719C40.2795 171.719 41.2788 171.868 42.1293 172.165C42.9799 172.442 43.6815 172.793 44.2344 173.218C44.8085 173.643 45.2444 174.079 45.5421 174.526C45.8397 174.951 45.9992 175.323 46.0205 175.642C46.0417 175.876 45.9779 176.067 45.8291 176.216C45.6803 176.344 45.5102 176.407 45.3188 176.407H42.9586C42.8523 176.407 42.7566 176.386 42.6715 176.344C42.5865 176.301 42.5014 176.248 42.4164 176.184C42.1825 175.971 41.9273 175.748 41.6509 175.514C41.3745 175.28 41.0343 175.078 40.6303 174.908C40.2476 174.717 39.7373 174.621 39.0994 174.621C38.2914 174.621 37.6747 174.802 37.2495 175.163C36.8242 175.504 36.6116 175.94 36.6116 176.471C36.6116 176.833 36.7073 177.151 36.8987 177.428C37.1113 177.683 37.5259 177.928 38.1425 178.161C38.7592 178.395 39.6947 178.64 40.9492 178.895C42.3739 179.15 43.5008 179.533 44.3301 180.043C45.1806 180.532 45.7759 181.106 46.1162 181.766C46.4776 182.403 46.6584 183.116 46.6584 183.902C46.6584 184.859 46.3713 185.72 45.7972 186.486C45.2444 187.251 44.4151 187.857 43.3094 188.304C42.225 188.729 40.8748 188.942 39.2588 188.942ZM57.3836 188.623C56.1078 188.623 55.0341 188.4 54.1623 187.953C53.2905 187.507 52.642 186.847 52.2167 185.976C51.7915 185.083 51.5788 183.977 51.5788 182.659V175.419H49.0592C48.8465 175.419 48.6658 175.344 48.517 175.195C48.3681 175.046 48.2937 174.866 48.2937 174.653V172.803C48.2937 172.591 48.3681 172.41 48.517 172.261C48.6658 172.112 48.8465 172.038 49.0592 172.038H51.5788V166.743C51.5788 166.531 51.6426 166.35 51.7702 166.201C51.919 166.052 52.1104 165.978 52.3443 165.978H54.9277C55.1404 165.978 55.3211 166.052 55.47 166.201C55.6188 166.35 55.6932 166.531 55.6932 166.743V172.038H59.68C59.8927 172.038 60.0734 172.112 60.2222 172.261C60.3711 172.41 60.4455 172.591 60.4455 172.803V174.653C60.4455 174.866 60.3711 175.046 60.2222 175.195C60.0734 175.344 59.8927 175.419 59.68 175.419H55.6932V182.34C55.6932 183.211 55.8421 183.892 56.1397 184.381C56.4587 184.87 57.0009 185.114 57.7664 185.114H59.9671C60.1797 185.114 60.3604 185.189 60.5093 185.338C60.6581 185.487 60.7325 185.667 60.7325 185.88V187.857C60.7325 188.07 60.6581 188.251 60.5093 188.4C60.3604 188.548 60.1797 188.623 59.9671 188.623H57.3836ZM64.3274 188.623C64.1148 188.623 63.934 188.548 63.7852 188.4C63.6363 188.251 63.5619 188.07 63.5619 187.857V172.835C63.5619 172.601 63.6363 172.41 63.7852 172.261C63.934 172.112 64.1148 172.038 64.3274 172.038H66.9108C67.1235 172.038 67.3042 172.112 67.4531 172.261C67.6232 172.41 67.7082 172.601 67.7082 172.835V174.143C68.1973 173.462 68.8245 172.941 69.59 172.58C70.3767 172.218 71.2804 172.038 72.301 172.038H73.6087C73.8426 172.038 74.0233 172.112 74.1509 172.261C74.2997 172.41 74.3742 172.591 74.3742 172.803V175.1C74.3742 175.312 74.2997 175.493 74.1509 175.642C74.0233 175.791 73.8426 175.865 73.6087 175.865H71.1209C70.1003 175.865 69.3029 176.152 68.7288 176.726C68.176 177.3 67.8996 178.087 67.8996 179.086V187.857C67.8996 188.07 67.8252 188.251 67.6763 188.4C67.5275 188.548 67.3361 188.623 67.1022 188.623H64.3274ZM81.4286 188.942C80.3229 188.942 79.3235 188.729 78.4305 188.304C77.5374 187.857 76.8251 187.273 76.2936 186.55C75.7832 185.806 75.5281 184.976 75.5281 184.062C75.5281 182.574 76.1234 181.393 77.3142 180.522C78.5262 179.629 80.1209 179.033 82.0983 178.736L86.4679 178.098V177.428C86.4679 176.535 86.2446 175.844 85.7981 175.355C85.3516 174.866 84.5861 174.621 83.5017 174.621C82.7362 174.621 82.109 174.781 81.6199 175.1C81.1521 175.397 80.8013 175.801 80.5674 176.312C80.3973 176.588 80.1528 176.726 79.8338 176.726H77.3142C77.0803 176.726 76.8995 176.662 76.772 176.535C76.6657 176.407 76.6125 176.237 76.6125 176.025C76.6338 175.684 76.772 175.27 77.0271 174.781C77.2823 174.292 77.6863 173.824 78.2391 173.377C78.792 172.91 79.5043 172.516 80.376 172.197C81.2478 171.878 82.3003 171.719 83.5336 171.719C84.8732 171.719 86.0001 171.889 86.9144 172.229C87.85 172.548 88.5942 172.984 89.147 173.537C89.6999 174.09 90.1039 174.738 90.359 175.482C90.6142 176.227 90.7417 177.013 90.7417 177.843V187.857C90.7417 188.07 90.6673 188.251 90.5185 188.4C90.3696 188.548 90.1889 188.623 89.9763 188.623H87.3928C87.1589 188.623 86.9676 188.548 86.8187 188.4C86.6912 188.251 86.6274 188.07 86.6274 187.857V186.614C86.3509 187.018 85.9788 187.4 85.5111 187.762C85.0433 188.102 84.4692 188.389 83.7888 188.623C83.1296 188.836 82.3429 188.942 81.4286 188.942ZM82.513 185.912C83.2572 185.912 83.927 185.752 84.5223 185.433C85.139 185.114 85.6174 184.625 85.9576 183.966C86.319 183.286 86.4998 182.435 86.4998 181.415V180.745L83.3103 181.255C82.0558 181.447 81.1202 181.755 80.5036 182.18C79.887 182.605 79.5787 183.126 79.5787 183.743C79.5787 184.211 79.7169 184.615 79.9933 184.955C80.291 185.274 80.6631 185.518 81.1096 185.689C81.5561 185.837 82.0239 185.912 82.513 185.912ZM95.9817 188.623C95.769 188.623 95.5883 188.548 95.4395 188.4C95.2906 188.251 95.2162 188.07 95.2162 187.857V167.062C95.2162 166.85 95.2906 166.669 95.4395 166.52C95.5883 166.371 95.769 166.297 95.9817 166.297H98.9478C99.1605 166.297 99.3412 166.371 99.4901 166.52C99.6389 166.669 99.7133 166.85 99.7133 167.062V184.827H109.824C110.058 184.827 110.249 184.902 110.398 185.051C110.547 185.2 110.621 185.391 110.621 185.625V187.857C110.621 188.07 110.547 188.251 110.398 188.4C110.249 188.548 110.058 188.623 109.824 188.623H95.9817ZM114.1 188.623C113.888 188.623 113.707 188.548 113.558 188.4C113.409 188.251 113.335 188.07 113.335 187.857V172.803C113.335 172.591 113.409 172.41 113.558 172.261C113.707 172.112 113.888 172.038 114.1 172.038H116.747C116.981 172.038 117.162 172.112 117.29 172.261C117.439 172.41 117.513 172.591 117.513 172.803V187.857C117.513 188.07 117.439 188.251 117.29 188.4C117.162 188.548 116.981 188.623 116.747 188.623H114.1ZM113.973 169.295C113.739 169.295 113.547 169.231 113.399 169.103C113.271 168.955 113.207 168.763 113.207 168.529V166.233C113.207 166.02 113.271 165.84 113.399 165.691C113.547 165.542 113.739 165.467 113.973 165.467H116.875C117.109 165.467 117.3 165.542 117.449 165.691C117.598 165.84 117.672 166.02 117.672 166.233V168.529C117.672 168.763 117.598 168.955 117.449 169.103C117.3 169.231 117.109 169.295 116.875 169.295H113.973ZM122.51 188.623C122.297 188.623 122.117 188.548 121.968 188.4C121.819 188.251 121.744 188.07 121.744 187.857V172.803C121.744 172.591 121.819 172.41 121.968 172.261C122.117 172.112 122.297 172.038 122.51 172.038H125.125C125.338 172.038 125.519 172.112 125.667 172.261C125.816 172.41 125.891 172.591 125.891 172.803V174.111C126.444 173.43 127.145 172.867 127.996 172.42C128.868 171.953 129.941 171.719 131.217 171.719C132.514 171.719 133.641 172.016 134.598 172.612C135.555 173.186 136.288 174.005 136.799 175.068C137.33 176.131 137.596 177.407 137.596 178.895V187.857C137.596 188.07 137.522 188.251 137.373 188.4C137.224 188.548 137.043 188.623 136.831 188.623H134.024C133.811 188.623 133.63 188.548 133.482 188.4C133.333 188.251 133.258 188.07 133.258 187.857V179.086C133.258 177.853 132.95 176.886 132.333 176.184C131.738 175.482 130.866 175.132 129.718 175.132C128.612 175.132 127.73 175.482 127.071 176.184C126.412 176.886 126.082 177.853 126.082 179.086V187.857C126.082 188.07 126.008 188.251 125.859 188.4C125.71 188.548 125.529 188.623 125.317 188.623H122.51ZM142.445 188.623C142.232 188.623 142.051 188.548 141.902 188.4C141.754 188.251 141.679 188.07 141.679 187.857V166.743C141.679 166.531 141.754 166.35 141.902 166.201C142.051 166.052 142.232 165.978 142.445 165.978H145.028C145.262 165.978 145.443 166.052 145.57 166.201C145.719 166.35 145.794 166.531 145.794 166.743V177.651L151.152 172.58C151.343 172.41 151.513 172.282 151.662 172.197C151.811 172.091 152.034 172.038 152.332 172.038H155.298C155.511 172.038 155.681 172.102 155.808 172.229C155.936 172.357 156 172.527 156 172.739C156 172.824 155.979 172.92 155.936 173.026C155.894 173.133 155.808 173.228 155.681 173.314L149.111 179.469L156.478 187.379C156.691 187.592 156.797 187.772 156.797 187.921C156.797 188.134 156.723 188.304 156.574 188.432C156.446 188.559 156.287 188.623 156.096 188.623H153.066C152.747 188.623 152.513 188.58 152.364 188.495C152.236 188.389 152.077 188.251 151.885 188.081L145.794 181.67V187.857C145.794 188.07 145.719 188.251 145.57 188.4C145.443 188.548 145.262 188.623 145.028 188.623H142.445Z" fill="white"/>
</g>
<defs>
<filter id="filter0_d_1_34" x="-2.86189e-06" y="161.266" width="166" height="41.8799" filterUnits="userSpaceOnUse" color-interpolation-filters="sRGB">
<feFlood flood-opacity="0" result="BackgroundImageFix"/>
<feColorMatrix in="SourceAlpha" type="matrix" values="0 0 0 0 0 0 0 0 0 0 0 0 0 0 0 0 0 0 127 0" result="hardAlpha"/>
<feOffset dy="5"/>
<feGaussianBlur stdDeviation="4.6"/>
<feComposite in2="hardAlpha" operator="out"/>
<feColorMatrix type="matrix" values="0 0 0 0 1 0 0 0 0 1 0 0 0 0 1 0 0 0 0.25 0"/>
<feBlend mode="normal" in2="BackgroundImageFix" result="effect1_dropShadow_1_34"/>
<feBlend mode="normal" in="SourceGraphic" in2="effect1_dropShadow_1_34" result="shape"/>
</filter>
<linearGradient id="paint0_linear_1_34" x1="82.6147" y1="0.000824224" x2="82.6147" y2="148.611" gradientUnits="userSpaceOnUse">
<stop stop-color="#C654F7"/>
<stop offset="1" stop-color="#414FB9"/>
</linearGradient>
</defs>
</svg>
