<svg width="1024" height="1024" viewBox="0 0 1024 1024" fill="none" xmlns="http://www.w3.org/2000/svg">
  <defs>
    <radialGradient id="bg" cx="0" cy="0" r="1" gradientUnits="userSpaceOnUse" gradientTransform="translate(512 400) rotate(90) scale(620 620)">
      <stop offset="0" stop-color="#281347"/>
      <stop offset="0.58" stop-color="#130B29"/>
      <stop offset="1" stop-color="#090C1A"/>
    </radialGradient>
  </defs>

  <rect width="1024" height="1024" rx="232" fill="url(#bg)"/>
  <g transform="translate(112 112)">
    <svg width="800" height="800" viewBox="0 0 900 900" fill="none">
      <g transform="translate(450 450) scale(2.5) translate(-450 -450)">
        <g opacity="0.3" filter="url(#filter0_f_1_32)">
          <circle cx="450" cy="450" r="150" fill="url(#paint0_conic_1_32)"/>
        </g>
        <path d="M450.991 353.074C458.309 353.741 471.306 399.919 473.372 407.584C477.76 423.445 481.213 439.625 483.706 456.013C484.621 462.205 485.286 468.284 485.63 474.559C485.705 475.929 485.734 477.293 485.746 478.656C485.757 479.824 483.822 480.304 483.238 479.293C482.86 478.639 482.466 477.946 482.055 477.177C478.129 469.601 472.331 454.503 464.138 452.629C459.683 451.611 447.777 463.513 444.32 466.944C438.092 473.238 432.161 479.903 426.549 486.912C422.896 491.536 419.414 496.493 415.789 501.222C415.168 502.032 413.896 501.574 413.926 500.553C414.983 465.32 420.422 430.431 430.081 396.937C432.667 388.168 442.932 356.108 450.668 353.124C450.775 353.083 450.877 353.064 450.991 353.074ZM450.798 368.295C450.781 368.009 450.443 367.869 450.228 368.057C450.153 368.123 450.11 368.219 450.111 368.318C450.145 375.965 449.481 383.297 449.27 390.884C448.956 402.14 448.179 413.526 447.906 424.758C447.898 425.07 447.644 425.321 447.331 425.324C445.25 425.342 443.168 425.338 441.086 425.313C440.517 425.306 440.253 426.069 440.693 426.431C442.46 427.886 444.594 429.856 446.105 431.209C446.296 431.38 446.352 431.655 446.253 431.892C445.549 433.578 444.729 436.546 444.109 438.816C443.96 439.36 444.601 439.781 445.04 439.427C446.794 438.012 448.47 436.635 450.19 435.092C450.408 434.896 450.739 434.891 450.961 435.083C452.607 436.5 454.269 437.892 455.947 439.259C456.404 439.631 457.097 439.145 456.932 438.579C456.289 436.377 455.786 434.02 454.918 431.889C454.825 431.659 454.881 431.393 455.066 431.226C456.89 429.582 458.735 427.97 460.601 426.388C461.028 426.027 460.749 425.314 460.19 425.329C458.077 425.385 455.902 425.342 453.808 425.323C453.494 425.32 453.24 425.068 453.231 424.755C453.138 421.399 452.863 417.782 452.727 414.412L451.662 388.727C451.331 381.952 451.198 375.05 450.798 368.295Z" fill="url(#paint1_linear_1_32)"/>
      </g>
      <defs>
        <filter id="filter0_f_1_32" x="0" y="0" width="900" height="900" filterUnits="userSpaceOnUse" color-interpolation-filters="sRGB">
          <feFlood flood-opacity="0" result="BackgroundImageFix"/>
          <feBlend mode="normal" in="SourceGraphic" in2="BackgroundImageFix" result="shape"/>
          <feGaussianBlur stdDeviation="150" result="effect1_foregroundBlur_1_32"/>
        </filter>
        <radialGradient id="paint0_conic_1_32" cx="0" cy="0" r="1" gradientUnits="userSpaceOnUse" gradientTransform="translate(450 450) rotate(90) scale(150)">
          <stop stop-color="#F754E1"/>
          <stop offset="0.62" stop-color="#8F69FB"/>
          <stop offset="1" stop-color="#F754E1"/>
        </radialGradient>
        <linearGradient id="paint1_linear_1_32" x1="449.836" y1="353.072" x2="449.836" y2="501.637" gradientUnits="userSpaceOnUse">
          <stop stop-color="#C654F7"/>
          <stop offset="1" stop-color="#414FB9"/>
        </linearGradient>
      </defs>
    </svg>
  </g>
</svg>
