<svg width="1024" height="1024" viewBox="0 0 1024 1024" fill="none" xmlns="http://www.w3.org/2000/svg">
  <rect width="1024" height="1024" fill="#0D0618"/>
  <g transform="translate(62 62)">
    <svg width="900" height="900" viewBox="0 0 900 900" fill="none">
      <g transform="translate(450 450) scale(2.5) translate(-450 -450)">
        <g opacity="0.3" filter="url(#filter0_f_1_32)">
          <circle cx="450" cy="450" r="150" fill="url(#glow)"/>
        </g>
        <path d="M450.991 353.074C458.309 353.741 471.306 399.919 473.372 407.584C477.76 423.445 481.213 439.625 483.706 456.013C484.621 462.205 485.286 468.284 485.63 474.559C485.705 475.929 485.734 477.293 485.746 478.656C485.757 479.824 483.822 480.304 483.238 479.293C482.86 478.639 482.466 477.946 482.055 477.177C478.129 469.601 472.331 454.503 464.138 452.629C459.683 451.611 447.777 463.513 444.32 466.944C438.092 473.238 432.161 479.903 426.549 486.912C422.896 491.536 419.414 496.493 415.789 501.222C415.168 502.032 413.896 501.574 413.926 500.553C414.983 465.32 420.422 430.431 430.081 396.937C432.667 388.168 442.932 356.108 450.668 353.124C450.775 353.083 450.877 353.064 450.991 353.074ZM450.798 368.295C450.781 368.009 450.443 367.869 450.228 368.057C450.153 368.123 450.11 368.219 450.111 368.318C450.145 375.965 449.481 383.297 449.27 390.884C448.956 402.14 448.179 413.526 447.906 424.758C447.898 425.07 447.644 425.321 447.331 425.324C445.25 425.342 443.168 425.338 441.086 425.313C440.517 425.306 440.253 426.069 440.693 426.431C442.46 427.886 444.594 429.856 446.105 431.209C446.296 431.38 446.352 431.655 446.253 431.892C445.549 433.578 444.729 436.546 444.109 438.816C443.96 439.36 444.601 439.781 445.04 439.427C446.794 438.012 448.47 436.635 450.19 435.092C450.408 434.896 450.739 434.891 450.961 435.083C452.607 436.5 454.269 437.892 455.947 439.259C456.404 439.631 457.097 439.145 456.932 438.579C456.289 436.377 455.786 434.02 454.918 431.889C454.825 431.659 454.881 431.393 455.066 431.226C456.89 429.582 458.735 427.97 460.601 426.388C461.028 426.027 460.749 425.314 460.19 425.329C458.077 425.385 455.902 425.342 453.808 425.323C453.494 425.32 453.24 425.068 453.231 424.755C453.138 421.399 452.863 417.782 452.727 414.412L451.662 388.727C451.331 381.952 451.198 375.05 450.798 368.295Z" fill="url(#mark)"/>
      </g>
      <g filter="url(#filter1_d_1_32)">
        <path d="M377.116 541.637C376.946 541.637 376.786 541.573 376.638 541.446C376.51 541.318 376.446 541.159 376.446 540.967C376.446 540.882 376.468 540.787 376.51 540.68L384.194 520.115C384.258 519.902 384.375 519.722 384.545 519.573C384.736 519.403 384.992 519.318 385.31 519.318H388.786C389.105 519.318 389.349 519.403 389.519 519.573C389.689 519.722 389.817 519.902 389.902 520.115L397.586 540.68C397.607 540.787 397.618 540.882 397.618 540.967C397.618 541.159 397.554 541.318 397.427 541.446C397.299 541.573 397.15 541.637 396.98 541.637H394.206C393.909 541.637 393.685 541.573 393.537 541.446C393.409 541.297 393.324 541.159 393.282 541.031L391.783 537.141H382.313L380.815 541.031C380.772 541.159 380.676 541.297 380.528 541.446C380.4 541.573 380.188 541.637 379.89 541.637H377.116Z" fill="white"/>
      </g>
      <defs>
        <filter id="filter0_f_1_32" x="0" y="0" width="900" height="900" filterUnits="userSpaceOnUse" color-interpolation-filters="sRGB">
          <feFlood flood-opacity="0" result="BackgroundImageFix"/>
          <feBlend mode="normal" in="SourceGraphic" in2="BackgroundImageFix" result="shape"/>
          <feGaussianBlur stdDeviation="150" result="effect1_foregroundBlur_1_32"/>
        </filter>
        <filter id="filter1_d_1_32" x="367.246" y="514.289" width="40" height="41.8672" filterUnits="userSpaceOnUse" color-interpolation-filters="sRGB">
          <feFlood flood-opacity="0" result="BackgroundImageFix"/>
          <feColorMatrix in="SourceAlpha" type="matrix" values="0 0 0 0 0 0 0 0 0 0 0 0 0 0 0 0 0 0 127 0" result="hardAlpha"/>
          <feOffset dy="5"/>
          <feGaussianBlur stdDeviation="4.6"/>
          <feComposite in2="hardAlpha" operator="out"/>
          <feColorMatrix type="matrix" values="0 0 0 0 1 0 0 0 0 1 0 0 0 0 1 0 0 0 0.25 0"/>
          <feBlend mode="normal" in2="BackgroundImageFix" result="effect1_dropShadow_1_32"/>
          <feBlend mode="normal" in="SourceGraphic" in2="effect1_dropShadow_1_32" result="shape"/>
        </filter>
        <radialGradient id="glow" cx="0" cy="0" r="1" gradientUnits="userSpaceOnUse" gradientTransform="translate(450 450) rotate(90) scale(150)">
          <stop stop-color="#F754E1"/>
          <stop offset="0.62" stop-color="#8F69FB"/>
          <stop offset="1" stop-color="#F754E1"/>
        </radialGradient>
        <linearGradient id="mark" x1="449.836" y1="353.072" x2="449.836" y2="501.637" gradientUnits="userSpaceOnUse">
          <stop stop-color="#C654F7"/>
          <stop offset="1" stop-color="#414FB9"/>
        </linearGradient>
      </defs>
    </svg>
  </g>
</svg>
