<svg width="280" height="280" viewBox="0 0 280 280" fill="none" xmlns="http://www.w3.org/2000/svg">
    <path d="M1.22392e-05 140C1.89987e-05 62.6801 62.6802 1.15189e-05 140 1.82784e-05C217.32 2.50379e-05 280 62.6802 280 140C280 217.32 217.32 280 140 280C62.6801 280 5.47967e-06 217.32 1.22392e-05 140Z" fill="url(#paint0_linear_2001_942)"/>
    <path d="M107 248.5C107 240.492 113.492 234 121.5 234C129.508 234 136 240.492 136 248.5C136 256.508 129.508 263 121.5 263C113.492 263 107 256.508 107 248.5Z" fill="url(#paint1_linear_2001_942)"/>
    <path d="M154 170.5C154 151.446 169.446 136 188.5 136C207.554 136 223 151.446 223 170.5C223 189.554 207.554 205 188.5 205C169.446 205 154 189.554 154 170.5Z" fill="url(#paint2_linear_2001_942)"/>
    <path d="M240 110C240 102.268 246.268 96 254 96C261.732 96 268 102.268 268 110C268 117.732 261.732 124 254 124C246.268 124 240 117.732 240 110Z" fill="url(#paint3_linear_2001_942)"/>
    <path d="M111 70C111 61.1635 118.163 54 127 54C135.837 54 143 61.1635 143 70C143 78.8366 135.837 86 127 86C118.163 86 111 78.8366 111 70Z" fill="url(#paint4_linear_2001_942)"/>
    <path d="M39 177C39 170.925 43.9249 166 50 166C56.0751 166 61 170.925 61 177C61 183.075 56.0751 188 50 188C43.9249 188 39 183.075 39 177Z" fill="url(#paint5_linear_2001_942)"/>
    <g clip-path="url(#clip0_2001_942)">
        <path d="M1.22392e-05 140C1.89987e-05 62.6801 62.6802 1.15189e-05 140 1.82784e-05C217.32 2.50379e-05 280 62.6802 280 140C280 217.32 217.32 280 140 280C62.6801 280 5.47967e-06 217.32 1.22392e-05 140Z" fill="url(#paint6_linear_2001_942)"/>
        <path d="M107 248.5C107 240.492 113.492 234 121.5 234C129.508 234 136 240.492 136 248.5C136 256.508 129.508 263 121.5 263C113.492 263 107 256.508 107 248.5Z" fill="url(#paint7_linear_2001_942)"/>
        <path d="M154 170.5C154 151.446 169.446 136 188.5 136C207.554 136 223 151.446 223 170.5C223 189.554 207.554 205 188.5 205C169.446 205 154 189.554 154 170.5Z" fill="url(#paint8_linear_2001_942)"/>
        <path d="M240 110C240 102.268 246.268 96 254 96C261.732 96 268 102.268 268 110C268 117.732 261.732 124 254 124C246.268 124 240 117.732 240 110Z" fill="url(#paint9_linear_2001_942)"/>
        <path d="M111 70C111 61.1635 118.163 54 127 54C135.837 54 143 61.1635 143 70C143 78.8366 135.837 86 127 86C118.163 86 111 78.8366 111 70Z" fill="url(#paint10_linear_2001_942)"/>
        <path d="M39 177C39 170.925 43.9249 166 50 166C56.0751 166 61 170.925 61 177C61 183.075 56.0751 188 50 188C43.9249 188 39 183.075 39 177Z" fill="url(#paint11_linear_2001_942)"/>
    </g>
    <defs>
        <linearGradient id="paint0_linear_2001_942" x1="140" y1="280" x2="140" y2="1.82784e-05" gradientUnits="userSpaceOnUse">
            <stop stop-color="#455D69"/>
            <stop offset="1" stop-color="#354954"/>
        </linearGradient>
        <linearGradient id="paint1_linear_2001_942" x1="280" y1="140" x2="1.22392e-05" y2="140" gradientUnits="userSpaceOnUse">
            <stop stop-color="#364C59"/>
            <stop offset="1" stop-color="#3F5560"/>
        </linearGradient>
        <linearGradient id="paint2_linear_2001_942" x1="280" y1="140" x2="1.22392e-05" y2="140" gradientUnits="userSpaceOnUse">
            <stop stop-color="#374D58"/>
            <stop offset="1" stop-color="#405661"/>
        </linearGradient>
        <linearGradient id="paint3_linear_2001_942" x1="280" y1="140" x2="1.22392e-05" y2="140" gradientUnits="userSpaceOnUse">
            <stop stop-color="#364C57"/>
            <stop offset="1" stop-color="#3E545F"/>
        </linearGradient>
        <linearGradient id="paint4_linear_2001_942" x1="280" y1="140" x2="1.22392e-05" y2="140" gradientUnits="userSpaceOnUse">
            <stop stop-color="#384E59"/>
            <stop offset="1" stop-color="#3F5560"/>
        </linearGradient>
        <linearGradient id="paint5_linear_2001_942" x1="61" y1="177" x2="39" y2="177" gradientUnits="userSpaceOnUse">
            <stop stop-color="#374D5A"/>
            <stop offset="1" stop-color="#3D5360"/>
        </linearGradient>
        <linearGradient id="paint6_linear_2001_942" x1="140" y1="280" x2="140" y2="1.82784e-05" gradientUnits="userSpaceOnUse">
            <stop stop-color="#E5E5E7"/>
            <stop offset="1" stop-color="#ADB6BB"/>
        </linearGradient>
        <linearGradient id="paint7_linear_2001_942" x1="280" y1="140" x2="1.22392e-05" y2="140" gradientUnits="userSpaceOnUse">
            <stop stop-color="#BCC4C7"/>
            <stop offset="1" stop-color="#DEDFE2"/>
        </linearGradient>
        <linearGradient id="paint8_linear_2001_942" x1="280" y1="140" x2="1.22392e-05" y2="140" gradientUnits="userSpaceOnUse">
            <stop stop-color="#B9C1C3"/>
            <stop offset="1" stop-color="#CFD2D6"/>
        </linearGradient>
        <linearGradient id="paint9_linear_2001_942" x1="280" y1="140" x2="1.22392e-05" y2="140" gradientUnits="userSpaceOnUse">
            <stop stop-color="#BCC6C8"/>
            <stop offset="1" stop-color="#D1D4D9"/>
        </linearGradient>
        <linearGradient id="paint10_linear_2001_942" x1="280" y1="140" x2="1.22392e-05" y2="140" gradientUnits="userSpaceOnUse">
            <stop stop-color="#BDC5C8"/>
            <stop offset="1" stop-color="#DADDE2"/>
        </linearGradient>
        <linearGradient id="paint11_linear_2001_942" x1="61" y1="177" x2="39" y2="177" gradientUnits="userSpaceOnUse">
            <stop stop-color="#BBC0C4"/>
            <stop offset="1" stop-color="#D0D3D6"/>
        </linearGradient>
        <clipPath id="clip0_2001_942">
            <rect width="140" height="280" fill="white" transform="translate(280 280) rotate(-180)"/>
        </clipPath>
    </defs>
</svg>
