<svg width="280" height="280" viewBox="0 0 280 280" fill="none" xmlns="http://www.w3.org/2000/svg">
    <path d="M280 140C280 217.32 217.32 280 140 280C62.6801 280 0 217.32 0 140C0 62.6801 62.6801 0 140 0C217.32 0 280 62.6801 280 140Z" fill="url(#paint0_linear_259_71)"/>
    <path d="M173 31.5C173 39.5081 166.508 46 158.5 46C150.492 46 144 39.5081 144 31.5C144 23.4919 150.492 17 158.5 17C166.508 17 173 23.4919 173 31.5Z" fill="url(#paint1_linear_259_71)"/>
    <path d="M126 109.5C126 128.554 110.554 144 91.5 144C72.4462 144 57 128.554 57 109.5C57 90.4462 72.4462 75 91.5 75C110.554 75 126 90.4462 126 109.5Z" fill="url(#paint2_linear_259_71)"/>
    <path d="M40 170C40 177.732 33.732 184 26 184C18.268 184 12 177.732 12 170C12 162.268 18.268 156 26 156C33.732 156 40 162.268 40 170Z" fill="url(#paint3_linear_259_71)"/>
    <path d="M169 210C169 218.837 161.837 226 153 226C144.163 226 137 218.837 137 210C137 201.163 144.163 194 153 194C161.837 194 169 201.163 169 210Z" fill="url(#paint4_linear_259_71)"/>
    <path d="M241 103C241 109.075 236.075 114 230 114C223.925 114 219 109.075 219 103C219 96.9249 223.925 92 230 92C236.075 92 241 96.9249 241 103Z" fill="url(#paint5_linear_259_71)"/>
    <g clip-path="url(#clip0_259_71)">
        <mask id="mask0_259_71" style="mask-type:alpha" maskUnits="userSpaceOnUse" x="-55" y="0" width="280" height="280">
            <circle cx="85" cy="140" r="140" fill="#D9D9D9"/>
        </mask>
        <g mask="url(#mask0_259_71)">
            <path d="M280 140C280 217.32 217.32 280 140 280C62.6801 280 0 217.32 0 140C0 62.6801 62.6801 0 140 0C217.32 0 280 62.6801 280 140Z" fill="url(#paint6_linear_259_71)"/>
            <path d="M173 31.5C173 39.5081 166.508 46 158.5 46C150.492 46 144 39.5081 144 31.5C144 23.4919 150.492 17 158.5 17C166.508 17 173 23.4919 173 31.5Z" fill="url(#paint7_linear_259_71)"/>
            <path d="M126 109.5C126 128.554 110.554 144 91.5 144C72.4462 144 57 128.554 57 109.5C57 90.4462 72.4462 75 91.5 75C110.554 75 126 90.4462 126 109.5Z" fill="url(#paint8_linear_259_71)"/>
            <path d="M40 170C40 177.732 33.732 184 26 184C18.268 184 12 177.732 12 170C12 162.268 18.268 156 26 156C33.732 156 40 162.268 40 170Z" fill="url(#paint9_linear_259_71)"/>
            <path d="M169 210C169 218.837 161.837 226 153 226C144.163 226 137 218.837 137 210C137 201.163 144.163 194 153 194C161.837 194 169 201.163 169 210Z" fill="url(#paint10_linear_259_71)"/>
            <path d="M241 103C241 109.075 236.075 114 230 114C223.925 114 219 109.075 219 103C219 96.9249 223.925 92 230 92C236.075 92 241 96.9249 241 103Z" fill="url(#paint11_linear_259_71)"/>
        </g>
    </g>
    <defs>
        <linearGradient id="paint0_linear_259_71" x1="140" y1="0" x2="140" y2="280" gradientUnits="userSpaceOnUse">
            <stop stop-color="#455D69"/>
            <stop offset="1" stop-color="#354954"/>
        </linearGradient>
        <linearGradient id="paint1_linear_259_71" x1="0" y1="140" x2="280" y2="140" gradientUnits="userSpaceOnUse">
            <stop stop-color="#364C59"/>
            <stop offset="1" stop-color="#3F5560"/>
        </linearGradient>
        <linearGradient id="paint2_linear_259_71" x1="0" y1="140" x2="280" y2="140" gradientUnits="userSpaceOnUse">
            <stop stop-color="#374D58"/>
            <stop offset="1" stop-color="#405661"/>
        </linearGradient>
        <linearGradient id="paint3_linear_259_71" x1="0" y1="140" x2="280" y2="140" gradientUnits="userSpaceOnUse">
            <stop stop-color="#364C57"/>
            <stop offset="1" stop-color="#3E545F"/>
        </linearGradient>
        <linearGradient id="paint4_linear_259_71" x1="0" y1="140" x2="280" y2="140" gradientUnits="userSpaceOnUse">
            <stop stop-color="#384E59"/>
            <stop offset="1" stop-color="#3F5560"/>
        </linearGradient>
        <linearGradient id="paint5_linear_259_71" x1="219" y1="103" x2="241" y2="103" gradientUnits="userSpaceOnUse">
            <stop stop-color="#374D5A"/>
            <stop offset="1" stop-color="#3D5360"/>
        </linearGradient>
        <linearGradient id="paint6_linear_259_71" x1="140" y1="0" x2="140" y2="280" gradientUnits="userSpaceOnUse">
            <stop stop-color="#E5E5E7"/>
            <stop offset="1" stop-color="#ADB6BB"/>
        </linearGradient>
        <linearGradient id="paint7_linear_259_71" x1="0" y1="140" x2="280" y2="140" gradientUnits="userSpaceOnUse">
            <stop stop-color="#BCC4C7"/>
            <stop offset="1" stop-color="#DEDFE2"/>
        </linearGradient>
        <linearGradient id="paint8_linear_259_71" x1="0" y1="140" x2="280" y2="140" gradientUnits="userSpaceOnUse">
            <stop stop-color="#B9C1C3"/>
            <stop offset="1" stop-color="#CFD2D6"/>
        </linearGradient>
        <linearGradient id="paint9_linear_259_71" x1="0" y1="140" x2="280" y2="140" gradientUnits="userSpaceOnUse">
            <stop stop-color="#BCC6C8"/>
            <stop offset="1" stop-color="#D1D4D9"/>
        </linearGradient>
        <linearGradient id="paint10_linear_259_71" x1="0" y1="140" x2="280" y2="140" gradientUnits="userSpaceOnUse">
            <stop stop-color="#BDC5C8"/>
            <stop offset="1" stop-color="#DADDE2"/>
        </linearGradient>
        <linearGradient id="paint11_linear_259_71" x1="219" y1="103" x2="241" y2="103" gradientUnits="userSpaceOnUse">
            <stop stop-color="#BBC0C4"/>
            <stop offset="1" stop-color="#D0D3D6"/>
        </linearGradient>
        <clipPath id="clip0_259_71">
            <rect width="280" height="280" fill="white"/>
        </clipPath>
    </defs>
</svg>
