<svg xmlns="http://www.w3.org/2000/svg" width="208" height="255" viewBox="-30 -30 208 255" fill="none">
        <defs>
    <radialGradient id="starMain" cx="0.5" cy="0.5" r="0.5">
      <stop offset="0%" stop-color="#FFFFFF" stop-opacity="1" />
      <stop offset="25%" stop-color="#FFFFFF" stop-opacity="0.95" />
      <stop offset="50%" stop-color="#FFFFFF" stop-opacity="0.5" />
      <stop offset="75%" stop-color="#FFFFFF" stop-opacity="0.15" />
      <stop offset="100%" stop-color="#FFFFFF" stop-opacity="0" />
    </radialGradient>
    <radialGradient id="starMedium" cx="0.5" cy="0.5" r="0.5">
      <stop offset="0%" stop-color="#FFFFFF" stop-opacity="1" />
      <stop offset="30%" stop-color="#FFFFFF" stop-opacity="0.85" />
      <stop offset="65%" stop-color="#AAAAAA" stop-opacity="0.3" />
      <stop offset="100%" stop-color="#000000" stop-opacity="0" />
    </radialGradient>
    <linearGradient id="rayGrad" x1="0%" y1="0%" x2="100%" y2="0%">
      <stop offset="0%" stop-color="#FFFFFF" stop-opacity="0" />
      <stop offset="40%" stop-color="#FFFFFF" stop-opacity="0.5" />
      <stop offset="50%" stop-color="#FFFFFF" stop-opacity="0.8" />
      <stop offset="60%" stop-color="#FFFFFF" stop-opacity="0.5" />
      <stop offset="100%" stop-color="#FFFFFF" stop-opacity="0" />
    </linearGradient>
    <g id="star-main">
      <circle r="14" fill="url(#starMain)" opacity="0.25" />
      <ellipse rx="21" ry="0.81" fill="url(#rayGrad)" opacity="0.72" />
      <ellipse rx="0.81" ry="21" fill="url(#rayGrad)" opacity="0.72" />
      <ellipse rx="17.77" ry="0.69" fill="url(#rayGrad)" opacity="0.62" transform="rotate(45)" />
      <ellipse rx="17.77" ry="0.69" fill="url(#rayGrad)" opacity="0.62" transform="rotate(-45)" />
      <circle r="7.78" fill="url(#starMain)" opacity="0.9" />
      <circle r="2.72" fill="#FFFFFF" />
    </g>
    <g id="star-medium">
      <circle r="11" fill="url(#starMain)" opacity="0.25" />
      <ellipse rx="17" ry="0.7" fill="url(#rayGrad)" opacity="0.68" />
      <ellipse rx="0.7" ry="17" fill="url(#rayGrad)" opacity="0.68" />
      <ellipse rx="13.91" ry="0.58" fill="url(#rayGrad)" opacity="0.58" transform="rotate(45)" />
      <ellipse rx="13.91" ry="0.58" fill="url(#rayGrad)" opacity="0.58" transform="rotate(-45)" />
      <circle r="6.29" fill="url(#starMain)" opacity="0.9" />
      <circle r="2.12" fill="#FFFFFF" />
    </g>
    <g id="star-small">
      <circle r="8" fill="url(#starMedium)" opacity="0.3" />
      <ellipse rx="11.5" ry="0.49" fill="url(#rayGrad)" opacity="0.55" />
      <ellipse rx="0.49" ry="11.5" fill="url(#rayGrad)" opacity="0.55" />
      <ellipse rx="9.04" ry="0.41" fill="url(#rayGrad)" opacity="0.5" transform="rotate(45)" />
      <ellipse rx="9.04" ry="0.41" fill="url(#rayGrad)" opacity="0.5" transform="rotate(-45)" />
      <circle r="4.73" fill="url(#starMedium)" opacity="0.9" />
      <circle r="1.45" fill="#FFFFFF" />
    </g>
  </defs>
  <g opacity="0.9">
    <g transform="translate(60.651 186.531)">
      <use href="#star-main" />
    </g>
    <g transform="translate(59.810 186.801)">
      <use href="#star-medium" />
    </g>
    <g transform="translate(51.471 160.941)">
      <use href="#star-medium" />
    </g>
    <g transform="translate(46.331 146.721)">
      <use href="#star-medium" />
    </g>
    <g transform="translate(19.541 131.861)">
      <use href="#star-small" />
    </g>
    <g transform="translate(19.480 131.701)">
      <use href="#star-small" />
    </g>
    <g transform="translate(5.301 89.431)">
      <use href="#star-small" />
    </g>
    <g transform="translate(11.171 83.061)">
      <use href="#star-small" />
    </g>
    <g transform="translate(20.610 79.071)">
      <use href="#star-small" />
    </g>
    <g transform="translate(35.490 56.371)">
      <use href="#star-small" />
    </g>
    <g transform="translate(89.040 37.961)">
      <use href="#star-small" />
    </g>
    <g transform="translate(140.191 7.051)">
      <use href="#star-small" />
    </g>
    <g transform="translate(140.651 7.801)">
      <use href="#star-small" />
    </g>
    <g transform="translate(89.410 38.751)">
      <use href="#star-small" />
    </g>
    <g transform="translate(36.060 57.111)">
      <use href="#star-small" />
    </g>
    <g transform="translate(21.201 79.781)">
      <use href="#star-small" />
    </g>
    <g transform="translate(21.081 79.831)">
      <use href="#star-small" />
    </g>
    <g transform="translate(11.601 83.841)">
      <use href="#star-small" />
    </g>
    <g transform="translate(6.301 89.641)">
      <use href="#star-small" />
    </g>
    <g transform="translate(20.261 131.261)">
      <use href="#star-small" />
    </g>
    <g transform="translate(47.050 146.111)">
      <use href="#star-small" />
    </g>
    <g transform="translate(47.100 146.261)">
      <use href="#star-small" />
    </g>
    <g transform="translate(52.300 160.651)">
      <use href="#star-small" />
    </g>
  </g>
  <g stroke="#FFFFFF" stroke-width="1.2" stroke-linecap="round" stroke-linejoin="round" opacity="0.85">
    <path d="M60.6505 186.531L59.8105 186.801L51.4705 160.941L46.3305 146.721L19.5405 131.861L19.4805 131.701L5.30054 89.4311L11.1705 83.0611L20.6105 79.0711L35.4905 56.3711L89.0405 37.9611L140.191 7.05109L140.651 7.80109L89.4105 38.7511L36.0605 57.1111L21.2005 79.7811L21.0805 79.8311L11.6005 83.8411L6.30054 89.6411L20.2605 131.261L47.0505 146.111L47.1005 146.261L52.3005 160.651L60.6505 186.531Z" fill="none" />
  </g>
</svg>
