<svg xmlns="http://www.w3.org/2000/svg" width="194" height="207" viewBox="-30 -30 194 207" fill="none">
    <defs>
    <radialGradient id="starMain" cx="0.5" cy="0.5" r="0.5">
      <stop offset="0%" stop-color="#FFFFFF" stop-opacity="1" />
      <stop offset="25%" stop-color="#FFFFFF" stop-opacity="0.95" />
      <stop offset="50%" stop-color="#FFFFFF" stop-opacity="0.5" />
      <stop offset="75%" stop-color="#FFFFFF" stop-opacity="0.15" />
      <stop offset="100%" stop-color="#FFFFFF" stop-opacity="0" />
    </radialGradient>
    <radialGradient id="starMedium" cx="0.5" cy="0.5" r="0.5">
      <stop offset="0%" stop-color="#FFFFFF" stop-opacity="1" />
      <stop offset="30%" stop-color="#FFFFFF" stop-opacity="0.85" />
      <stop offset="65%" stop-color="#FFFFFF" stop-opacity="0.3" />
      <stop offset="100%" stop-color="#FFFFFF" stop-opacity="0" />
    </radialGradient>
    <linearGradient id="rayGrad" x1="0%" y1="0%" x2="100%" y2="0%">
      <stop offset="0%" stop-color="#FFFFFF" stop-opacity="0" />
      <stop offset="40%" stop-color="#FFFFFF" stop-opacity="0.5" />
      <stop offset="50%" stop-color="#FFFFFF" stop-opacity="0.8" />
      <stop offset="60%" stop-color="#FFFFFF" stop-opacity="0.5" />
      <stop offset="100%" stop-color="#FFFFFF" stop-opacity="0" />
    </linearGradient>
    <g id="star-main">
      <circle r="18" fill="url(#starMain)" opacity="0.25" />
      <ellipse rx="26" ry="1" fill="url(#rayGrad)" opacity="0.72" />
      <ellipse rx="1" ry="26" fill="url(#rayGrad)" opacity="0.72" />
      <ellipse rx="22" ry="0.85" fill="url(#rayGrad)" opacity="0.62" transform="rotate(45)" />
      <ellipse rx="22" ry="0.85" fill="url(#rayGrad)" opacity="0.62" transform="rotate(-45)" />
      <circle r="10" fill="url(#starMain)" opacity="0.9" />
      <circle r="3.5" fill="#FFFFFF" />
    </g>
    <g id="star-medium">
      <circle r="14" fill="url(#starMain)" opacity="0.25" />
      <ellipse rx="22" ry="0.9" fill="url(#rayGrad)" opacity="0.68" />
      <ellipse rx="0.9" ry="22" fill="url(#rayGrad)" opacity="0.68" />
      <ellipse rx="18" ry="0.75" fill="url(#rayGrad)" opacity="0.58" transform="rotate(45)" />
      <ellipse rx="18" ry="0.75" fill="url(#rayGrad)" opacity="0.58" transform="rotate(-45)" />
      <circle r="8" fill="url(#starMain)" opacity="0.9" />
      <circle r="2.7" fill="#FFFFFF" />
    </g>
    <g id="star-small">
      <circle r="11" fill="url(#starMedium)" opacity="0.3" />
      <ellipse rx="14" ry="0.6" fill="url(#rayGrad)" opacity="0.55" />
      <ellipse rx="0.6" ry="14" fill="url(#rayGrad)" opacity="0.55" />
      <ellipse rx="11" ry="0.5" fill="url(#rayGrad)" opacity="0.5" transform="rotate(45)" />
      <ellipse rx="11" ry="0.5" fill="url(#rayGrad)" opacity="0.5" transform="rotate(-45)" />
      <circle r="6.5" fill="url(#starMedium)" />
      <circle r="2" fill="#FFFFFF" />
    </g>
  </defs>
  <g opacity="0.9">
    <g transform="translate(104.701 138.045)">
      <use href="#star-main" />
    </g>
    <g transform="translate(113.011 126.235)">
      <use href="#star-medium" />
    </g>
    <g transform="translate(102.841 93.315)">
      <use href="#star-medium" />
    </g>
    <g transform="translate(69.911 43.335)">
      <use href="#star-medium" />
    </g>
    <g transform="translate(42.191 7.705)">
      <use href="#star-small" />
    </g>
    <g transform="translate(42.881 7.165)">
      <use href="#star-small" />
    </g>
    <g transform="translate(70.621 42.825)">
      <use href="#star-small" />
    </g>
    <g transform="translate(103.661 92.995)">
      <use href="#star-small" />
    </g>
    <g transform="translate(113.981 126.385)">
      <use href="#star-small" />
    </g>
    <g transform="translate(105.421 138.545)">
      <use href="#star-small" />
    </g>
    <g transform="translate(34.752 66.965)">
      <use href="#star-small" />
    </g>
    <g transform="translate(17.831 46.105)">
      <use href="#star-small" />
    </g>
    <g transform="translate(18.512 45.545)">
      <use href="#star-small" />
    </g>
    <g transform="translate(35.291 66.235)">
      <use href="#star-small" />
    </g>
    <g transform="translate(103.402 92.715)">
      <use href="#star-small" />
    </g>
    <g transform="translate(119.012 100.845)">
      <use href="#star-small" />
    </g>
    <g transform="translate(118.602 101.625)">
      <use href="#star-small" />
    </g>
    <g transform="translate(103.042 93.515)">
      <use href="#star-small" />
    </g>
    <g transform="translate(15.031 60.425)">
      <use href="#star-small" />
    </g>
    <g transform="translate(15.302 59.585)">
      <use href="#star-small" />
    </g>
    <g transform="translate(35.161 66.185)">
      <use href="#star-small" />
    </g>
    <g transform="translate(34.882 67.015)">
      <use href="#star-small" />
    </g>
  </g>
  <g stroke="#FFFFFF" stroke-width="1.2" stroke-linecap="round" stroke-linejoin="round" opacity="0.85">
    <path d="M104.701 138.045L113.011 126.235L102.841 93.3152L69.9114 43.3352L42.1914 7.70516L42.8814 7.16516L70.6214 42.8252L103.661 92.9952L113.981 126.385L105.421 138.545L104.701 138.045Z" fill="none" />
    <path d="M34.7515 66.9652L17.8315 46.1052L18.5115 45.5452L35.2915 66.2352L103.402 92.7152L119.012 100.845L118.602 101.625L103.042 93.5152L34.7515 66.9652Z" fill="none" />
    <path d="M15.0315 60.4251L15.3015 59.5851L35.1615 66.1851L34.8815 67.0151L15.0315 60.4251Z" fill="none" />
  </g>
</svg>
