<svg width="134" height="147" viewBox="0 0 134 147" fill="none" xmlns="http://www.w3.org/2000/svg">
    <path style="mix-blend-mode:screen" d="M117.652 92.2652C117.132 84.2752 110.232 78.2252 102.242 78.7352C94.2717 79.2652 88.2017 86.1452 88.7317 94.1352C89.2417 102.125 96.1417 108.185 104.122 107.675C112.112 107.145 118.172 100.265 117.652 92.2652Z" fill="url(#paint0_radial_2001_1418)"/>
    <path style="mix-blend-mode:screen" d="M103.542 96.0352C88.3516 97.9352 75.8917 98.2052 75.6917 96.6352C75.5017 95.0752 87.6417 92.2652 102.832 90.3652C118.012 88.4752 130.482 88.1952 130.672 89.7652C130.872 91.3252 118.722 94.1352 103.542 96.0352Z" fill="url(#paint1_radial_2001_1418)"/>
    <path style="mix-blend-mode:screen" d="M117.712 103.735C118.322 102.905 112.332 97.4952 104.342 91.6352C96.3515 85.7752 89.3815 81.6852 88.7815 82.5152C88.1715 83.3452 94.1615 88.7652 102.152 94.6152C110.142 100.475 117.102 104.555 117.712 103.735Z" fill="url(#paint2_radial_2001_1418)"/>
    <path style="mix-blend-mode:screen" d="M93.3816 108.605C94.0616 109.055 99.0316 102.465 104.482 93.9052C109.932 85.3652 113.792 78.0852 113.112 77.6452C112.432 77.2052 107.462 83.7952 102.002 92.3352C96.5616 100.895 92.7016 108.175 93.3816 108.605Z" fill="url(#paint3_radial_2001_1418)"/>
    <path style="mix-blend-mode:screen" d="M107.192 96.4052C105.382 98.5852 102.162 98.8852 99.9715 97.0752C97.7915 95.2652 97.4815 92.0452 99.2915 89.8552C101.102 87.6752 104.332 87.3752 106.522 89.1852C108.702 90.9852 109.002 94.2252 107.192 96.4052Z" fill="url(#paint4_radial_2001_1418)"/>
    <path style="mix-blend-mode:screen" d="M125.461 126.105C125.011 119.225 119.071 114.015 112.191 114.445C105.321 114.915 100.101 120.835 100.551 127.715C100.991 134.595 106.931 139.815 113.811 139.365C120.681 138.915 125.911 132.985 125.461 126.105Z" fill="url(#paint5_radial_2001_1418)"/>
    <path style="mix-blend-mode:screen" d="M113.392 128.915C101.872 130.355 92.4216 130.565 92.2716 129.375C92.1216 128.195 101.332 126.065 112.852 124.625C124.372 123.185 133.822 122.975 133.972 124.165C134.122 125.355 124.912 127.485 113.392 128.915Z" fill="url(#paint6_radial_2001_1418)"/>
    <path style="mix-blend-mode:screen" d="M125.502 135.985C126.032 135.265 120.882 130.605 113.992 125.555C107.112 120.515 101.122 116.995 100.602 117.705C100.072 118.415 105.232 123.085 112.112 128.125C118.992 133.175 124.982 136.685 125.502 135.985Z" fill="url(#paint7_radial_2001_1418)"/>
    <path style="mix-blend-mode:screen" d="M104.551 140.175C105.151 140.555 109.421 134.885 114.121 127.515C118.811 120.165 122.141 113.895 121.551 113.515C120.961 113.135 116.691 118.805 111.991 126.165C107.301 133.525 103.971 139.805 104.551 140.175Z" fill="url(#paint8_radial_2001_1418)"/>
    <path style="mix-blend-mode:screen" d="M116.452 129.665C114.892 131.545 112.112 131.805 110.242 130.245C108.362 128.685 108.092 125.915 109.652 124.025C111.212 122.145 113.992 121.885 115.872 123.445C117.752 125.005 118.012 127.785 116.452 129.665Z" fill="url(#paint9_radial_2001_1418)"/>
    <path style="mix-blend-mode:screen" d="M113.502 137.745C113.202 133.085 109.172 129.555 104.512 129.855C99.8617 130.165 96.3217 134.175 96.6317 138.835C96.9217 143.495 100.952 147.035 105.612 146.735C110.272 146.435 113.802 142.415 113.502 137.745Z" fill="url(#paint10_radial_2001_1418)"/>
    <path style="mix-blend-mode:screen" d="M107.402 140.155C106.342 141.435 104.462 141.605 103.192 140.555C101.912 139.495 101.732 137.615 102.792 136.335C103.842 135.065 105.732 134.885 107.012 135.945C108.282 136.995 108.452 138.885 107.402 140.155Z" fill="url(#paint11_radial_2001_1418)"/>
    <path style="mix-blend-mode:screen" d="M78.5916 42.6952C78.2816 38.0352 74.2616 34.5052 69.6016 34.8052C64.9516 35.1152 61.4116 39.1252 61.7116 43.7852C62.0116 48.4552 66.0416 51.9852 70.6916 51.6852C75.3516 51.3852 78.8916 47.3652 78.5916 42.6952Z" fill="url(#paint12_radial_2001_1418)"/>
    <path style="mix-blend-mode:screen" d="M72.4916 45.1152C71.4316 46.3852 69.5516 46.5552 68.2816 45.5052C67.0016 44.4452 66.8216 42.5652 67.8816 41.2952C68.9316 40.0152 70.8216 39.8452 72.0916 40.8952C73.3716 41.9552 73.5416 43.8352 72.4916 45.1152Z" fill="url(#paint13_radial_2001_1418)"/>
    <path style="mix-blend-mode:screen" d="M44.3616 66.0852C44.0216 60.8852 39.5316 56.9352 34.3316 57.2752C29.1416 57.6252 25.1916 62.0952 25.5316 67.3052C25.8616 72.5052 30.3616 76.4452 35.5516 76.1152C40.7516 75.7752 44.7016 71.2852 44.3616 66.0852Z" fill="url(#paint14_radial_2001_1418)"/>
    <path style="mix-blend-mode:screen" d="M35.2517 68.4452C25.3617 69.6852 17.2417 69.8652 17.1117 68.8452C16.9817 67.8252 24.9017 65.9952 34.7917 64.7552C44.6817 63.5252 52.8017 63.3452 52.9317 64.3652C53.0517 65.3852 45.1417 67.2152 35.2517 68.4452Z" fill="url(#paint15_radial_2001_1418)"/>
    <path style="mix-blend-mode:screen" d="M44.4018 73.5551C44.7918 73.0151 40.9018 69.4852 35.6918 65.6752C30.4918 61.8552 25.9618 59.1951 25.5618 59.7351C25.1718 60.2751 29.0718 63.8052 34.2718 67.6152C39.4718 71.4252 44.0018 74.0851 44.4018 73.5551Z" fill="url(#paint16_radial_2001_1418)"/>
    <path style="mix-blend-mode:screen" d="M28.5618 76.7252C29.0018 77.0152 32.2418 72.7252 35.7918 67.1552C39.3418 61.5952 41.8518 56.8452 41.4118 56.5652C40.9618 56.2852 37.7318 60.5652 34.1818 66.1252C30.6318 71.6952 28.1218 76.4452 28.5618 76.7252Z" fill="url(#paint17_radial_2001_1418)"/>
    <path style="mix-blend-mode:screen" d="M37.5516 68.7751C36.3716 70.1951 34.2716 70.3952 32.8516 69.2152C31.4316 68.0352 31.2316 65.9352 32.4116 64.5152C33.5916 63.0952 35.6916 62.8952 37.1116 64.0752C38.5316 65.2452 38.7316 67.3551 37.5516 68.7751Z" fill="url(#paint18_radial_2001_1418)"/>
    <path style="mix-blend-mode:screen" d="M27.3216 45.5452C26.9816 40.3452 22.4916 36.4052 17.2916 36.7352C12.1016 37.0852 8.1516 41.5652 8.4916 46.7652C8.8316 51.9652 13.3216 55.9152 18.5116 55.5752C23.7116 55.2352 27.6616 50.7552 27.3216 45.5452Z" fill="url(#paint19_radial_2001_1418)"/>
    <path style="mix-blend-mode:screen" d="M18.1316 48.0052C8.25158 49.2352 0.13158 49.4152 0.00157971 48.3952C-0.12842 47.3752 7.78158 45.5452 17.6716 44.3152C27.5616 43.0752 35.6916 42.8952 35.8116 43.9152C35.9416 44.9352 28.0316 46.7652 18.1316 48.0052Z" fill="url(#paint20_radial_2001_1418)"/>
    <path style="mix-blend-mode:screen" d="M27.3616 53.0152C27.7516 52.4752 23.8616 48.9552 18.6516 45.1352C13.4516 41.3152 8.92163 38.6652 8.53163 39.2052C8.13163 39.7352 12.0316 43.2652 17.2316 47.0752C22.4316 50.8952 26.9616 53.5552 27.3616 53.0152Z" fill="url(#paint21_radial_2001_1418)"/>
    <path style="mix-blend-mode:screen" d="M11.5215 56.1852C11.9715 56.4752 15.2015 52.1852 18.7515 46.6152C22.3015 41.0552 24.8115 36.3152 24.3715 36.0352C23.9215 35.7452 20.6915 40.0352 17.1415 45.5952C13.5915 51.1652 11.0815 55.9052 11.5215 56.1852Z" fill="url(#paint22_radial_2001_1418)"/>
    <path style="mix-blend-mode:screen" d="M20.5115 48.2352C19.3315 49.6652 17.2315 49.8552 15.8115 48.6752C14.3915 47.5052 14.1915 45.4052 15.3715 43.9752C16.5515 42.5552 18.6515 42.3552 20.0715 43.5352C21.4915 44.7152 21.6915 46.8152 20.5115 48.2352Z" fill="url(#paint23_radial_2001_1418)"/>
    <path style="mix-blend-mode:screen" d="M126.222 100.755C125.952 96.6652 122.412 93.5552 118.322 93.8152C114.232 94.0952 111.122 97.6152 111.392 101.715C111.652 105.805 115.192 108.915 119.282 108.655C123.382 108.385 126.482 104.855 126.222 100.755Z" fill="url(#paint24_radial_2001_1418)"/>
    <path style="mix-blend-mode:screen" d="M120.862 102.875C119.932 103.995 118.272 104.145 117.162 103.225C116.042 102.295 115.882 100.635 116.812 99.5152C117.732 98.4052 119.392 98.2452 120.512 99.1752C121.632 100.095 121.782 101.755 120.862 102.875Z" fill="url(#paint25_radial_2001_1418)"/>
    <path style="mix-blend-mode:screen" d="M49.9516 6.95519C49.6816 2.86519 46.1516 -0.244815 42.0516 0.0151846C37.9616 0.295185 34.8516 3.81519 35.1216 7.91519C35.3816 12.0052 38.9216 15.1152 43.0116 14.8452C47.1116 14.5852 50.2116 11.0552 49.9516 6.95519Z" fill="url(#paint26_radial_2001_1418)"/>
    <path style="mix-blend-mode:screen" d="M44.5916 9.07519C43.6616 10.1952 42.0016 10.3452 40.8916 9.4152C39.7716 8.4952 39.6116 6.83519 40.5416 5.71519C41.4616 4.60519 43.1216 4.4452 44.2416 5.3752C45.3616 6.2952 45.5116 7.95519 44.5916 9.07519Z" fill="url(#paint27_radial_2001_1418)"/>
    <path style="mix-blend-mode:screen" d="M22.5817 59.5252C22.3117 55.4252 18.7817 52.3252 14.6817 52.5852C10.6017 52.8552 7.49169 56.3852 7.76169 60.4852C8.02169 64.5752 11.5517 67.6852 15.6417 67.4152C19.7417 67.1452 22.8417 63.6152 22.5817 59.5252Z" fill="url(#paint28_radial_2001_1418)"/>
    <path style="mix-blend-mode:screen" d="M17.2218 61.6452C16.2918 62.7652 14.6318 62.9152 13.5218 61.9852C12.4018 61.0552 12.2418 59.4052 13.1718 58.2852C14.1018 57.1652 15.7518 57.0152 16.8718 57.9352C17.9918 58.8652 18.1518 60.5252 17.2218 61.6452Z" fill="url(#paint29_radial_2001_1418)"/>
    <path d="M104.701 138.045L113.011 126.235L102.841 93.3152L69.9114 43.3352L42.1914 7.70516L42.8814 7.16516L70.6214 42.8252L103.661 92.9952L113.981 126.385L105.421 138.545L104.701 138.045Z" fill="white"/>
    <path d="M34.7515 66.9652L17.8315 46.1052L18.5115 45.5452L35.2915 66.2352L103.402 92.7152L119.012 100.845L118.602 101.625L103.042 93.5152L34.7515 66.9652Z" fill="white"/>
    <path d="M15.0315 60.4251L15.3015 59.5851L35.1615 66.1851L34.8815 67.0151L15.0315 60.4251Z" fill="white"/>
    <defs>
        <radialGradient id="paint0_radial_2001_1418" cx="0" cy="0" r="1" gradientUnits="userSpaceOnUse" gradientTransform="translate(103.189 93.2022) rotate(-3.69813) scale(14.4962 14.4962)">
            <stop offset="0.099" stop-color="white"/>
            <stop offset="0.363" stop-color="#7A7A7A"/>
            <stop offset="0.572" stop-color="#2A2A2A"/>
            <stop offset="0.663" stop-color="#161616"/>
            <stop offset="0.826" stop-color="#000505"/>
            <stop offset="0.964"/>
        </radialGradient>
        <radialGradient id="paint1_radial_2001_1418" cx="0" cy="0" r="1" gradientUnits="userSpaceOnUse" gradientTransform="translate(103.185 93.1992) rotate(82.8376) scale(2.85528)">
            <stop stop-color="white"/>
            <stop offset="0.102" stop-color="#D9D9D9"/>
            <stop offset="0.168" stop-color="#AAAAAA"/>
            <stop offset="0.255" stop-color="#7A7A7A"/>
            <stop offset="0.408" stop-color="#424242"/>
            <stop offset="0.515" stop-color="#2A2A2A"/>
            <stop offset="0.663" stop-color="#161616"/>
            <stop offset="0.826" stop-color="#000505"/>
            <stop offset="0.964"/>
        </radialGradient>
        <radialGradient id="paint2_radial_2001_1418" cx="0" cy="0" r="1" gradientUnits="userSpaceOnUse" gradientTransform="translate(103.245 93.1272) rotate(36.2525) scale(17.9286 17.9286)">
            <stop stop-color="white"/>
            <stop offset="0.102" stop-color="#D9D9D9"/>
            <stop offset="0.168" stop-color="#AAAAAA"/>
            <stop offset="0.255" stop-color="#7A7A7A"/>
            <stop offset="0.408" stop-color="#424242"/>
            <stop offset="0.515" stop-color="#2A2A2A"/>
            <stop offset="0.663" stop-color="#161616"/>
            <stop offset="0.826" stop-color="#000505"/>
            <stop offset="0.964"/>
        </radialGradient>
        <radialGradient id="paint3_radial_2001_1418" cx="0" cy="0" r="1" gradientUnits="userSpaceOnUse" gradientTransform="translate(103.243 93.1262) rotate(122.518) scale(18.383)">
            <stop stop-color="white"/>
            <stop offset="0.102" stop-color="#D9D9D9"/>
            <stop offset="0.168" stop-color="#AAAAAA"/>
            <stop offset="0.255" stop-color="#7A7A7A"/>
            <stop offset="0.408" stop-color="#424242"/>
            <stop offset="0.515" stop-color="#2A2A2A"/>
            <stop offset="0.663" stop-color="#161616"/>
            <stop offset="0.826" stop-color="#000505"/>
            <stop offset="0.964"/>
        </radialGradient>
        <radialGradient id="paint4_radial_2001_1418" cx="0" cy="0" r="1" gradientUnits="userSpaceOnUse" gradientTransform="translate(103.245 93.1272) rotate(39.6439) scale(5.12841)">
            <stop offset="0.324" stop-color="white"/>
            <stop offset="0.561" stop-color="#C6C6C6"/>
            <stop offset="0.731" stop-color="#6A6A6A"/>
            <stop offset="0.874" stop-color="#000505"/>
            <stop offset="0.964"/>
        </radialGradient>
        <radialGradient id="paint5_radial_2001_1418" cx="0" cy="0" r="1" gradientUnits="userSpaceOnUse" gradientTransform="translate(113.005 126.909) rotate(-3.69804) scale(12.481 12.481)">
            <stop offset="0.099" stop-color="white"/>
            <stop offset="0.363" stop-color="#7A7A7A"/>
            <stop offset="0.572" stop-color="#2A2A2A"/>
            <stop offset="0.663" stop-color="#161616"/>
            <stop offset="0.826" stop-color="#000505"/>
            <stop offset="0.964"/>
        </radialGradient>
        <radialGradient id="paint6_radial_2001_1418" cx="0" cy="0" r="1" gradientUnits="userSpaceOnUse" gradientTransform="translate(113.121 126.771) rotate(82.8389) scale(2.1659)">
            <stop stop-color="white"/>
            <stop offset="0.102" stop-color="#D9D9D9"/>
            <stop offset="0.168" stop-color="#AAAAAA"/>
            <stop offset="0.255" stop-color="#7A7A7A"/>
            <stop offset="0.408" stop-color="#424242"/>
            <stop offset="0.515" stop-color="#2A2A2A"/>
            <stop offset="0.663" stop-color="#161616"/>
            <stop offset="0.826" stop-color="#000505"/>
            <stop offset="0.964"/>
        </radialGradient>
        <radialGradient id="paint7_radial_2001_1418" cx="0" cy="0" r="1" gradientUnits="userSpaceOnUse" gradientTransform="translate(113.054 126.844) rotate(36.2522) scale(15.4361 15.4361)">
            <stop stop-color="white"/>
            <stop offset="0.102" stop-color="#D9D9D9"/>
            <stop offset="0.168" stop-color="#AAAAAA"/>
            <stop offset="0.255" stop-color="#7A7A7A"/>
            <stop offset="0.408" stop-color="#424242"/>
            <stop offset="0.515" stop-color="#2A2A2A"/>
            <stop offset="0.663" stop-color="#161616"/>
            <stop offset="0.826" stop-color="#000505"/>
            <stop offset="0.964"/>
        </radialGradient>
        <radialGradient id="paint8_radial_2001_1418" cx="0" cy="0" r="1" gradientUnits="userSpaceOnUse" gradientTransform="translate(113.051 126.845) rotate(122.516) scale(15.8295 15.8295)">
            <stop stop-color="white"/>
            <stop offset="0.102" stop-color="#D9D9D9"/>
            <stop offset="0.168" stop-color="#AAAAAA"/>
            <stop offset="0.255" stop-color="#7A7A7A"/>
            <stop offset="0.408" stop-color="#424242"/>
            <stop offset="0.515" stop-color="#2A2A2A"/>
            <stop offset="0.663" stop-color="#161616"/>
            <stop offset="0.826" stop-color="#000505"/>
            <stop offset="0.964"/>
        </radialGradient>
        <radialGradient id="paint9_radial_2001_1418" cx="0" cy="0" r="1" gradientUnits="userSpaceOnUse" gradientTransform="translate(113.055 126.844) rotate(39.6445) scale(4.41678)">
            <stop offset="0.324" stop-color="white"/>
            <stop offset="0.561" stop-color="#C6C6C6"/>
            <stop offset="0.731" stop-color="#6A6A6A"/>
            <stop offset="0.874" stop-color="#000505"/>
            <stop offset="0.964"/>
        </radialGradient>
        <radialGradient id="paint10_radial_2001_1418" cx="0" cy="0" r="1" gradientUnits="userSpaceOnUse" gradientTransform="translate(105.065 138.293) rotate(-3.6951) scale(8.45658 8.45658)">
            <stop offset="0.099" stop-color="white"/>
            <stop offset="0.363" stop-color="#7A7A7A"/>
            <stop offset="0.572" stop-color="#2A2A2A"/>
            <stop offset="0.663" stop-color="#161616"/>
            <stop offset="0.826" stop-color="#000505"/>
            <stop offset="0.964"/>
        </radialGradient>
        <radialGradient id="paint11_radial_2001_1418" cx="0" cy="0" r="1" gradientUnits="userSpaceOnUse" gradientTransform="translate(105.097 138.248) rotate(39.6438) scale(2.9921)">
            <stop offset="0.324" stop-color="white"/>
            <stop offset="0.561" stop-color="#C6C6C6"/>
            <stop offset="0.731" stop-color="#6A6A6A"/>
            <stop offset="0.874" stop-color="#000505"/>
            <stop offset="0.964"/>
        </radialGradient>
        <radialGradient id="paint12_radial_2001_1418" cx="0" cy="0" r="1" gradientUnits="userSpaceOnUse" gradientTransform="translate(70.1526 43.2452) rotate(-3.69509) scale(8.45658)">
            <stop offset="0.099" stop-color="white"/>
            <stop offset="0.363" stop-color="#7A7A7A"/>
            <stop offset="0.572" stop-color="#2A2A2A"/>
            <stop offset="0.663" stop-color="#161616"/>
            <stop offset="0.826" stop-color="#000505"/>
            <stop offset="0.964"/>
        </radialGradient>
        <radialGradient id="paint13_radial_2001_1418" cx="0" cy="0" r="1" gradientUnits="userSpaceOnUse" gradientTransform="translate(70.1846 43.2012) rotate(39.6463) scale(2.99351)">
            <stop offset="0.324" stop-color="white"/>
            <stop offset="0.561" stop-color="#C6C6C6"/>
            <stop offset="0.731" stop-color="#6A6A6A"/>
            <stop offset="0.874" stop-color="#000505"/>
            <stop offset="0.964"/>
        </radialGradient>
        <radialGradient id="paint14_radial_2001_1418" cx="0" cy="0" r="1" gradientUnits="userSpaceOnUse" gradientTransform="translate(34.9466 66.6922) rotate(-3.69979) scale(9.43767 9.43767)">
            <stop offset="0.099" stop-color="white"/>
            <stop offset="0.363" stop-color="#7A7A7A"/>
            <stop offset="0.572" stop-color="#2A2A2A"/>
            <stop offset="0.663" stop-color="#161616"/>
            <stop offset="0.826" stop-color="#000505"/>
            <stop offset="0.964"/>
        </radialGradient>
        <radialGradient id="paint15_radial_2001_1418" cx="0" cy="0" r="1" gradientUnits="userSpaceOnUse" gradientTransform="translate(35.0217 66.6022) rotate(82.8329) scale(1.85953 1.85953)">
            <stop stop-color="white"/>
            <stop offset="0.102" stop-color="#D9D9D9"/>
            <stop offset="0.168" stop-color="#AAAAAA"/>
            <stop offset="0.255" stop-color="#7A7A7A"/>
            <stop offset="0.408" stop-color="#424242"/>
            <stop offset="0.515" stop-color="#2A2A2A"/>
            <stop offset="0.663" stop-color="#161616"/>
            <stop offset="0.826" stop-color="#000505"/>
            <stop offset="0.964"/>
        </radialGradient>
        <radialGradient id="paint16_radial_2001_1418" cx="0" cy="0" r="1" gradientUnits="userSpaceOnUse" gradientTransform="translate(34.9838 66.6431) rotate(36.2533) scale(11.6715 11.6715)">
            <stop stop-color="white"/>
            <stop offset="0.102" stop-color="#D9D9D9"/>
            <stop offset="0.168" stop-color="#AAAAAA"/>
            <stop offset="0.255" stop-color="#7A7A7A"/>
            <stop offset="0.408" stop-color="#424242"/>
            <stop offset="0.515" stop-color="#2A2A2A"/>
            <stop offset="0.663" stop-color="#161616"/>
            <stop offset="0.826" stop-color="#000505"/>
            <stop offset="0.964"/>
        </radialGradient>
        <radialGradient id="paint17_radial_2001_1418" cx="0" cy="0" r="1" gradientUnits="userSpaceOnUse" gradientTransform="translate(34.9828 66.6432) rotate(122.517) scale(11.9671 11.9671)">
            <stop stop-color="white"/>
            <stop offset="0.102" stop-color="#D9D9D9"/>
            <stop offset="0.168" stop-color="#AAAAAA"/>
            <stop offset="0.255" stop-color="#7A7A7A"/>
            <stop offset="0.408" stop-color="#424242"/>
            <stop offset="0.515" stop-color="#2A2A2A"/>
            <stop offset="0.663" stop-color="#161616"/>
            <stop offset="0.826" stop-color="#000505"/>
            <stop offset="0.964"/>
        </radialGradient>
        <radialGradient id="paint18_radial_2001_1418" cx="0" cy="0" r="1" gradientUnits="userSpaceOnUse" gradientTransform="translate(34.9846 66.6432) rotate(39.654) scale(3.33934)">
            <stop offset="0.324" stop-color="white"/>
            <stop offset="0.561" stop-color="#C6C6C6"/>
            <stop offset="0.731" stop-color="#6A6A6A"/>
            <stop offset="0.874" stop-color="#000505"/>
            <stop offset="0.964"/>
        </radialGradient>
        <radialGradient id="paint19_radial_2001_1418" cx="0" cy="0" r="1" gradientUnits="userSpaceOnUse" gradientTransform="translate(17.9076 46.1562) rotate(-3.70018) scale(9.43667 9.43667)">
            <stop offset="0.099" stop-color="white"/>
            <stop offset="0.363" stop-color="#7A7A7A"/>
            <stop offset="0.572" stop-color="#2A2A2A"/>
            <stop offset="0.663" stop-color="#161616"/>
            <stop offset="0.826" stop-color="#000505"/>
            <stop offset="0.964"/>
        </radialGradient>
        <radialGradient id="paint20_radial_2001_1418" cx="0" cy="0" r="1" gradientUnits="userSpaceOnUse" gradientTransform="translate(17.9066 46.1582) rotate(82.8329) scale(1.85953 1.85953)">
            <stop stop-color="white"/>
            <stop offset="0.102" stop-color="#D9D9D9"/>
            <stop offset="0.168" stop-color="#AAAAAA"/>
            <stop offset="0.255" stop-color="#7A7A7A"/>
            <stop offset="0.408" stop-color="#424242"/>
            <stop offset="0.515" stop-color="#2A2A2A"/>
            <stop offset="0.663" stop-color="#161616"/>
            <stop offset="0.826" stop-color="#000505"/>
            <stop offset="0.964"/>
        </radialGradient>
        <radialGradient id="paint21_radial_2001_1418" cx="0" cy="0" r="1" gradientUnits="userSpaceOnUse" gradientTransform="translate(17.9446 46.1072) rotate(36.2544) scale(11.6729 11.6729)">
            <stop stop-color="white"/>
            <stop offset="0.102" stop-color="#D9D9D9"/>
            <stop offset="0.168" stop-color="#AAAAAA"/>
            <stop offset="0.255" stop-color="#7A7A7A"/>
            <stop offset="0.408" stop-color="#424242"/>
            <stop offset="0.515" stop-color="#2A2A2A"/>
            <stop offset="0.663" stop-color="#161616"/>
            <stop offset="0.826" stop-color="#000505"/>
            <stop offset="0.964"/>
        </radialGradient>
        <radialGradient id="paint22_radial_2001_1418" cx="0" cy="0" r="1" gradientUnits="userSpaceOnUse" gradientTransform="translate(17.9435 46.1082) rotate(122.515) scale(11.9716)">
            <stop stop-color="white"/>
            <stop offset="0.102" stop-color="#D9D9D9"/>
            <stop offset="0.168" stop-color="#AAAAAA"/>
            <stop offset="0.255" stop-color="#7A7A7A"/>
            <stop offset="0.408" stop-color="#424242"/>
            <stop offset="0.515" stop-color="#2A2A2A"/>
            <stop offset="0.663" stop-color="#161616"/>
            <stop offset="0.826" stop-color="#000505"/>
            <stop offset="0.964"/>
        </radialGradient>
        <radialGradient id="paint23_radial_2001_1418" cx="0" cy="0" r="1" gradientUnits="userSpaceOnUse" gradientTransform="translate(17.9445 46.1072) rotate(39.6408) scale(3.3387)">
            <stop offset="0.324" stop-color="white"/>
            <stop offset="0.561" stop-color="#C6C6C6"/>
            <stop offset="0.731" stop-color="#6A6A6A"/>
            <stop offset="0.874" stop-color="#000505"/>
            <stop offset="0.964"/>
        </radialGradient>
        <radialGradient id="paint24_radial_2001_1418" cx="0" cy="0" r="1" gradientUnits="userSpaceOnUse" gradientTransform="translate(118.807 101.235) rotate(-3.6971) scale(7.42846 7.42846)">
            <stop offset="0.099" stop-color="white"/>
            <stop offset="0.363" stop-color="#7A7A7A"/>
            <stop offset="0.572" stop-color="#2A2A2A"/>
            <stop offset="0.663" stop-color="#161616"/>
            <stop offset="0.826" stop-color="#000505"/>
            <stop offset="0.964"/>
        </radialGradient>
        <radialGradient id="paint25_radial_2001_1418" cx="0" cy="0" r="1" gradientUnits="userSpaceOnUse" gradientTransform="translate(118.835 101.196) rotate(39.6437) scale(2.62848)">
            <stop offset="0.324" stop-color="white"/>
            <stop offset="0.561" stop-color="#C6C6C6"/>
            <stop offset="0.731" stop-color="#6A6A6A"/>
            <stop offset="0.874" stop-color="#000505"/>
            <stop offset="0.964"/>
        </radialGradient>
        <radialGradient id="paint26_radial_2001_1418" cx="0" cy="0" r="1" gradientUnits="userSpaceOnUse" gradientTransform="translate(42.5376 7.43319) rotate(-3.6971) scale(7.42846 7.42846)">
            <stop offset="0.099" stop-color="white"/>
            <stop offset="0.363" stop-color="#7A7A7A"/>
            <stop offset="0.572" stop-color="#2A2A2A"/>
            <stop offset="0.663" stop-color="#161616"/>
            <stop offset="0.826" stop-color="#000505"/>
            <stop offset="0.964"/>
        </radialGradient>
        <radialGradient id="paint27_radial_2001_1418" cx="0" cy="0" r="1" gradientUnits="userSpaceOnUse" gradientTransform="translate(42.5656 7.3952) rotate(39.6437) scale(2.62848)">
            <stop offset="0.324" stop-color="white"/>
            <stop offset="0.561" stop-color="#C6C6C6"/>
            <stop offset="0.731" stop-color="#6A6A6A"/>
            <stop offset="0.874" stop-color="#000505"/>
            <stop offset="0.964"/>
        </radialGradient>
        <radialGradient id="paint28_radial_2001_1418" cx="0" cy="0" r="1" gradientUnits="userSpaceOnUse" gradientTransform="translate(15.1687 60.0012) rotate(-3.69709) scale(7.42846 7.42846)">
            <stop offset="0.099" stop-color="white"/>
            <stop offset="0.363" stop-color="#7A7A7A"/>
            <stop offset="0.572" stop-color="#2A2A2A"/>
            <stop offset="0.663" stop-color="#161616"/>
            <stop offset="0.826" stop-color="#000505"/>
            <stop offset="0.964"/>
        </radialGradient>
        <radialGradient id="paint29_radial_2001_1418" cx="0" cy="0" r="1" gradientUnits="userSpaceOnUse" gradientTransform="translate(15.1968 59.9622) rotate(39.6466) scale(2.62989)">
            <stop offset="0.324" stop-color="white"/>
            <stop offset="0.561" stop-color="#C6C6C6"/>
            <stop offset="0.731" stop-color="#6A6A6A"/>
            <stop offset="0.874" stop-color="#000505"/>
            <stop offset="0.964"/>
        </radialGradient>
    </defs>
</svg>
