<svg xmlns="http://www.w3.org/2000/svg" width="223" height="219" viewBox="-30 -30 223 219" fill="none">
    <defs>
    <radialGradient id="starMain" cx="0.5" cy="0.5" r="0.5">
      <stop offset="0%" stop-color="#FFFFFF" stop-opacity="1" />
      <stop offset="25%" stop-color="#FFFFFF" stop-opacity="0.95" />
      <stop offset="50%" stop-color="#FFFFFF" stop-opacity="0.5" />
      <stop offset="75%" stop-color="#FFFFFF" stop-opacity="0.15" />
      <stop offset="100%" stop-color="#FFFFFF" stop-opacity="0" />
    </radialGradient>
    <radialGradient id="starMedium" cx="0.5" cy="0.5" r="0.5">
      <stop offset="0%" stop-color="#FFFFFF" stop-opacity="1" />
      <stop offset="30%" stop-color="#FFFFFF" stop-opacity="0.85" />
      <stop offset="65%" stop-color="#FFFFFF" stop-opacity="0.3" />
      <stop offset="100%" stop-color="#FFFFFF" stop-opacity="0" />
    </radialGradient>
    <linearGradient id="rayGrad" x1="0%" y1="0%" x2="100%" y2="0%">
      <stop offset="0%" stop-color="#FFFFFF" stop-opacity="0" />
      <stop offset="40%" stop-color="#FFFFFF" stop-opacity="0.5" />
      <stop offset="50%" stop-color="#FFFFFF" stop-opacity="0.8" />
      <stop offset="60%" stop-color="#FFFFFF" stop-opacity="0.5" />
      <stop offset="100%" stop-color="#FFFFFF" stop-opacity="0" />
    </linearGradient>
    <g id="star-main">
      <circle r="18" fill="url(#starMain)" opacity="0.25" />
      <ellipse rx="26" ry="1" fill="url(#rayGrad)" opacity="0.72" />
      <ellipse rx="1" ry="26" fill="url(#rayGrad)" opacity="0.72" />
      <ellipse rx="22" ry="0.85" fill="url(#rayGrad)" opacity="0.62" transform="rotate(45)" />
      <ellipse rx="22" ry="0.85" fill="url(#rayGrad)" opacity="0.62" transform="rotate(-45)" />
      <circle r="10" fill="url(#starMain)" opacity="0.9" />
      <circle r="3.5" fill="#FFFFFF" />
    </g>
    <g id="star-medium">
      <circle r="14" fill="url(#starMain)" opacity="0.25" />
      <ellipse rx="22" ry="0.9" fill="url(#rayGrad)" opacity="0.68" />
      <ellipse rx="0.9" ry="22" fill="url(#rayGrad)" opacity="0.68" />
      <ellipse rx="18" ry="0.75" fill="url(#rayGrad)" opacity="0.58" transform="rotate(45)" />
      <ellipse rx="18" ry="0.75" fill="url(#rayGrad)" opacity="0.58" transform="rotate(-45)" />
      <circle r="8" fill="url(#starMain)" opacity="0.9" />
      <circle r="2.7" fill="#FFFFFF" />
    </g>
    <g id="star-small">
      <circle r="11" fill="url(#starMedium)" opacity="0.3" />
      <ellipse rx="14" ry="0.6" fill="url(#rayGrad)" opacity="0.55" />
      <ellipse rx="0.6" ry="14" fill="url(#rayGrad)" opacity="0.55" />
      <ellipse rx="11" ry="0.5" fill="url(#rayGrad)" opacity="0.5" transform="rotate(45)" />
      <ellipse rx="11" ry="0.5" fill="url(#rayGrad)" opacity="0.5" transform="rotate(-45)" />
      <circle r="6.5" fill="url(#starMedium)" />
      <circle r="2" fill="#FFFFFF" />
    </g>
  </defs>
  <g opacity="0.9">
    <g transform="translate(143.968 136.865)">
      <use href="#star-main" />
    </g>
    <g transform="translate(74.718 147.905)">
      <use href="#star-medium" />
    </g>
    <g transform="translate(74.608 147.855)">
      <use href="#star-medium" />
    </g>
    <g transform="translate(11.727 124.635)">
      <use href="#star-medium" />
    </g>
    <g transform="translate(27.767 117.905)">
      <use href="#star-small" />
    </g>
    <g transform="translate(53.688 101.055)">
      <use href="#star-small" />
    </g>
    <g transform="translate(84.998 83.585)">
      <use href="#star-small" />
    </g>
    <g transform="translate(132.758 20.625)">
      <use href="#star-small" />
    </g>
    <g transform="translate(143.128 10.775)">
      <use href="#star-small" />
    </g>
    <g transform="translate(145.928 33.225)">
      <use href="#star-small" />
    </g>
    <g transform="translate(151.628 119.925)">
      <use href="#star-small" />
    </g>
    <g transform="translate(151.578 120.025)">
      <use href="#star-small" />
    </g>
    <g transform="translate(74.808 146.995)">
      <use href="#star-small" />
    </g>
    <g transform="translate(143.358 136.065)">
      <use href="#star-small" />
    </g>
    <g transform="translate(150.738 119.755)">
      <use href="#star-small" />
    </g>
    <g transform="translate(145.048 33.305)">
      <use href="#star-small" />
    </g>
    <g transform="translate(142.468 12.615)">
      <use href="#star-small" />
    </g>
    <g transform="translate(133.408 21.205)">
      <use href="#star-small" />
    </g>
    <g transform="translate(85.588 84.265)">
      <use href="#star-small" />
    </g>
    <g transform="translate(85.507 84.305)">
      <use href="#star-small" />
    </g>
    <g transform="translate(54.148 101.795)">
      <use href="#star-small" />
    </g>
    <g transform="translate(28.188 118.675)">
      <use href="#star-small" />
    </g>
    <g transform="translate(14.127 124.585)">
      <use href="#star-small" />
    </g>
  </g>
  <g stroke="#FFFFFF" stroke-width="1.2" stroke-linecap="round" stroke-linejoin="round" opacity="0.85">
    <path d="M143.968 136.865L74.7175 147.905L74.6075 147.855L11.7275 124.635L27.7675 117.905L53.6875 101.055L84.9975 83.5853L132.758 20.6254L143.128 10.7753L145.928 33.2253L151.628 119.925L151.578 120.025L143.968 136.865ZM74.8075 146.995L143.358 136.065L150.738 119.755L145.048 33.3054L142.468 12.6154L133.408 21.2054L85.5875 84.2654L85.5075 84.3054L54.1475 101.795L28.1875 118.675L14.1275 124.585L74.8075 146.995Z" fill="none" />
  </g>
</svg>
