<svg width="163" height="159" viewBox="0 0 163 159" fill="none" xmlns="http://www.w3.org/2000/svg">
    <path style="mix-blend-mode:screen" d="M149.508 17.2153C140.558 15.0453 131.558 20.5453 129.378 29.4853C127.238 38.4153 132.698 47.4353 141.658 49.5953C150.598 51.7653 159.608 46.2653 161.778 37.3353C163.938 28.3953 158.458 19.3753 149.508 17.2153Z" fill="url(#paint0_radial_2001_1148)"/>
    <path style="mix-blend-mode:screen" d="M147.808 33.8054C145.658 45.7354 142.928 55.2254 141.698 54.9954C140.468 54.7854 141.218 44.9354 143.358 33.0054C145.498 21.0854 148.238 11.5954 149.478 11.8154C150.698 12.0354 149.958 21.8854 147.808 33.8054Z" fill="url(#paint1_radial_2001_1148)"/>
    <path style="mix-blend-mode:screen" d="M162.118 21.0754C161.408 20.1254 153.428 24.8353 144.248 31.6053C135.088 38.3653 128.218 44.6053 128.918 45.5553C129.618 46.5053 137.618 41.7953 146.778 35.0253C155.938 28.2653 162.808 22.0254 162.118 21.0754Z" fill="url(#paint2_radial_2001_1148)"/>
    <path style="mix-blend-mode:screen" d="M159.128 49.4454C159.848 48.8454 154.318 41.1354 146.798 32.2254C139.288 23.3154 132.618 16.5854 131.908 17.1854C131.198 17.7854 136.718 25.4854 144.228 34.4054C151.748 43.3054 158.418 50.0454 159.128 49.4454Z" fill="url(#paint3_radial_2001_1148)"/>
    <path style="mix-blend-mode:screen" d="M150.468 30.1053C152.248 32.8453 151.468 36.4854 148.728 38.2554C145.998 40.0354 142.358 39.2753 140.578 36.5353C138.798 33.8053 139.578 30.1454 142.308 28.3754C145.038 26.5954 148.688 27.3753 150.468 30.1053Z" fill="url(#paint4_radial_2001_1148)"/>
    <path style="mix-blend-mode:screen" d="M16.0177 112.105C9.07771 110.425 2.0777 114.695 0.387702 121.635C-1.2723 128.575 2.97771 135.565 9.92771 137.255C16.8677 138.935 23.8677 134.665 25.5477 127.735C27.2277 120.785 22.9777 113.795 16.0177 112.105Z" fill="url(#paint5_radial_2001_1148)"/>
    <path style="mix-blend-mode:screen" d="M15.1477 125.005C12.9977 136.935 10.2677 146.425 9.03766 146.205C7.80766 145.985 8.55766 136.135 10.6977 124.205C12.8477 112.285 15.5877 102.795 16.8177 103.015C18.0377 103.235 17.2977 113.085 15.1477 125.005Z" fill="url(#paint6_radial_2001_1148)"/>
    <path style="mix-blend-mode:screen" d="M25.8077 115.105C25.2677 114.365 19.0577 118.025 11.9377 123.285C4.82766 128.535 -0.502335 133.375 0.0376652 134.115C0.577665 134.855 6.78766 131.195 13.9077 125.945C21.0177 120.685 26.3477 115.845 25.8077 115.105Z" fill="url(#paint7_radial_2001_1148)"/>
    <path style="mix-blend-mode:screen" d="M23.4877 137.135C24.0477 136.665 19.7577 130.685 13.9177 123.755C8.08766 116.845 2.90765 111.625 2.35765 112.085C1.79765 112.555 6.09766 118.535 11.9177 125.455C17.7577 132.365 22.9377 137.595 23.4877 137.135Z" fill="url(#paint8_radial_2001_1148)"/>
    <path style="mix-blend-mode:screen" d="M16.7676 122.115C18.1476 124.245 17.5376 127.065 15.4176 128.445C13.2976 129.825 10.4676 129.235 9.08758 127.105C7.70758 124.985 8.30758 122.155 10.4276 120.775C12.5476 119.395 15.3876 119.995 16.7676 122.115Z" fill="url(#paint9_radial_2001_1148)"/>
    <path style="mix-blend-mode:screen" d="M145.718 0.3353C139.338 -1.2047 132.918 2.7053 131.358 9.0853C129.838 15.4653 133.738 21.8953 140.118 23.4353C146.498 24.9853 152.928 21.0653 154.478 14.6853C156.018 8.31534 152.108 1.8853 145.718 0.3353Z" fill="url(#paint10_radial_2001_1148)"/>
    <path style="mix-blend-mode:screen" d="M154.718 3.09531C154.218 2.41531 148.518 5.77532 141.968 10.6053C135.428 15.4253 130.538 19.8753 131.038 20.5553C131.528 21.2353 137.238 17.8653 143.778 13.0453C150.308 8.21532 155.208 3.76531 154.718 3.09531Z" fill="url(#paint11_radial_2001_1148)"/>
    <path style="mix-blend-mode:screen" d="M152.587 23.3254C153.097 22.8954 149.157 17.4053 143.787 11.0453C138.437 4.69534 133.677 -0.114639 133.167 0.315361C132.657 0.745361 136.597 6.23533 141.957 12.5953C147.317 18.9553 152.077 23.7554 152.587 23.3254Z" fill="url(#paint12_radial_2001_1148)"/>
    <path style="mix-blend-mode:screen" d="M146.398 9.53534C147.668 11.4853 147.118 14.0753 145.168 15.3453C143.218 16.6153 140.618 16.0654 139.348 14.1154C138.078 12.1654 138.638 9.56535 140.588 8.29535C142.528 7.02535 145.138 7.58534 146.398 9.53534Z" fill="url(#paint13_radial_2001_1148)"/>
    <path style="mix-blend-mode:screen" d="M77.3676 136.665C71.4176 135.225 65.4176 138.885 63.9676 144.835C62.5376 150.785 66.1876 156.795 72.1376 158.225C78.0976 159.675 84.1076 156.015 85.5476 150.065C86.9876 144.115 83.3376 138.115 77.3676 136.665Z" fill="url(#paint14_radial_2001_1148)"/>
    <path style="mix-blend-mode:screen" d="M78.0075 145.255C79.1875 147.075 78.6775 149.505 76.8575 150.685C75.0375 151.865 72.6075 151.355 71.4175 149.535C70.2375 147.715 70.7575 145.285 72.5775 144.095C74.3875 142.915 76.8275 143.435 78.0075 145.255Z" fill="url(#paint15_radial_2001_1148)"/>
    <path style="mix-blend-mode:screen" d="M153.718 108.955C147.768 107.515 141.758 111.165 140.318 117.125C138.888 123.075 142.528 129.075 148.488 130.515C154.448 131.965 160.448 128.305 161.898 122.355C163.338 116.395 159.678 110.395 153.718 108.955Z" fill="url(#paint16_radial_2001_1148)"/>
    <path style="mix-blend-mode:screen" d="M154.357 117.535C155.537 119.355 155.017 121.785 153.207 122.965C151.387 124.155 148.957 123.645 147.767 121.815C146.587 119.995 147.097 117.565 148.927 116.385C150.737 115.205 153.167 115.715 154.357 117.535Z" fill="url(#paint17_radial_2001_1148)"/>
    <path style="mix-blend-mode:screen" d="M146.268 125.685C140.318 124.245 134.318 127.905 132.868 133.855C131.438 139.805 135.088 145.805 141.048 147.245C146.998 148.695 153.008 145.035 154.448 139.085C155.888 133.125 152.238 127.125 146.268 125.685Z" fill="url(#paint18_radial_2001_1148)"/>
    <path style="mix-blend-mode:screen" d="M146.908 134.265C148.098 136.095 147.578 138.515 145.758 139.695C143.938 140.885 141.508 140.375 140.318 138.555C139.138 136.735 139.658 134.295 141.478 133.115C143.298 131.935 145.728 132.455 146.908 134.265Z" fill="url(#paint19_radial_2001_1148)"/>
    <path style="mix-blend-mode:screen" d="M87.2378 75.8654C82.7878 74.7854 78.2977 77.5153 77.2177 81.9753C76.1477 86.4253 78.8777 90.9154 83.3277 91.9854C87.7877 93.0754 92.2777 90.3354 93.3577 85.8854C94.4277 81.4254 91.6978 76.9454 87.2378 75.8654Z" fill="url(#paint20_radial_2001_1148)"/>
    <path style="mix-blend-mode:screen" d="M87.7179 82.2854C88.6079 83.6454 88.2179 85.4654 86.8579 86.3454C85.4979 87.2354 83.6779 86.8454 82.7979 85.4854C81.9079 84.1254 82.2979 82.3054 83.6579 81.4254C85.0179 80.5354 86.8379 80.9254 87.7179 82.2854Z" fill="url(#paint21_radial_2001_1148)"/>
    <path style="mix-blend-mode:screen" d="M55.8876 93.3553C51.4276 92.2753 46.9476 95.0153 45.8576 99.4653C44.7876 103.915 47.5176 108.405 51.9776 109.485C56.4276 110.565 60.9176 107.825 61.9976 103.375C63.0776 98.9254 60.3476 94.4353 55.8876 93.3553Z" fill="url(#paint22_radial_2001_1148)"/>
    <path style="mix-blend-mode:screen" d="M56.3575 99.7753C57.2475 101.145 56.8575 102.955 55.4975 103.835C54.1375 104.725 52.3175 104.345 51.4375 102.975C50.5475 101.615 50.9375 99.7953 52.2975 98.9153C53.6575 98.0353 55.4775 98.4153 56.3575 99.7753Z" fill="url(#paint23_radial_2001_1148)"/>
    <path style="mix-blend-mode:screen" d="M29.8978 110.245C25.4378 109.165 20.9577 111.905 19.8777 116.365C18.7977 120.805 21.5277 125.295 25.9877 126.375C30.4377 127.455 34.9278 124.725 36.0078 120.275C37.0878 115.815 34.3578 111.325 29.8978 110.245Z" fill="url(#paint24_radial_2001_1148)"/>
    <path style="mix-blend-mode:screen" d="M30.3777 116.665C31.2577 118.035 30.8677 119.845 29.5077 120.735C28.1477 121.615 26.3377 121.235 25.4478 119.875C24.5678 118.515 24.9478 116.695 26.3078 115.805C27.6678 114.925 29.4877 115.315 30.3777 116.665Z" fill="url(#paint25_radial_2001_1148)"/>
    <path style="mix-blend-mode:screen" d="M135.508 12.5353C131.048 11.4553 126.558 14.1954 125.478 18.6454C124.408 23.0954 127.138 27.5853 131.598 28.6653C136.048 29.7453 140.538 27.0053 141.618 22.5553C142.698 18.1053 139.958 13.6153 135.508 12.5353Z" fill="url(#paint26_radial_2001_1148)"/>
    <path style="mix-blend-mode:screen" d="M135.978 18.9554C136.868 20.3254 136.478 22.1354 135.118 23.0154C133.758 23.9054 131.938 23.5253 131.058 22.1553C130.168 20.8053 130.558 18.9853 131.918 18.0953C133.278 17.2153 135.098 17.5954 135.978 18.9554Z" fill="url(#paint27_radial_2001_1148)"/>
    <path fill-rule="evenodd" clip-rule="evenodd" d="M143.968 136.865L74.7175 147.905L74.6075 147.855L11.7275 124.635L27.7675 117.905L53.6875 101.055L84.9975 83.5853L132.758 20.6254L143.128 10.7753L145.928 33.2253L151.628 119.925L151.578 120.025L143.968 136.865ZM74.8075 146.995L143.358 136.065L150.738 119.755L145.048 33.3054L142.468 12.6154L133.408 21.2054L85.5875 84.2654L85.5075 84.3054L54.1475 101.795L28.1875 118.675L14.1275 124.585L74.8075 146.995Z" fill="white"/>
    <defs>
        <radialGradient id="paint0_radial_2001_1148" cx="0" cy="0" r="1" gradientUnits="userSpaceOnUse" gradientTransform="translate(145.581 33.4043) rotate(-76.3665) scale(16.6646 16.6645)">
            <stop offset="0.099" stop-color="white"/>
            <stop offset="0.363" stop-color="#7A7A7A"/>
            <stop offset="0.572" stop-color="#2A2A2A"/>
            <stop offset="0.663" stop-color="#161616"/>
            <stop offset="0.826" stop-color="#000505"/>
            <stop offset="0.964"/>
        </radialGradient>
        <radialGradient id="paint1_radial_2001_1148" cx="0" cy="0" r="1" gradientUnits="userSpaceOnUse" gradientTransform="translate(145.581 33.4054) rotate(10.2164) scale(2.26084)">
            <stop stop-color="white"/>
            <stop offset="0.102" stop-color="#D9D9D9"/>
            <stop offset="0.168" stop-color="#AAAAAA"/>
            <stop offset="0.255" stop-color="#7A7A7A"/>
            <stop offset="0.408" stop-color="#424242"/>
            <stop offset="0.515" stop-color="#2A2A2A"/>
            <stop offset="0.663" stop-color="#161616"/>
            <stop offset="0.826" stop-color="#000505"/>
            <stop offset="0.964"/>
        </radialGradient>
        <radialGradient id="paint2_radial_2001_1148" cx="0" cy="0" r="1" gradientUnits="userSpaceOnUse" gradientTransform="translate(145.518 33.3163) rotate(-36.4167) scale(20.6096 20.6096)">
            <stop stop-color="white"/>
            <stop offset="0.102" stop-color="#D9D9D9"/>
            <stop offset="0.168" stop-color="#AAAAAA"/>
            <stop offset="0.255" stop-color="#7A7A7A"/>
            <stop offset="0.408" stop-color="#424242"/>
            <stop offset="0.515" stop-color="#2A2A2A"/>
            <stop offset="0.663" stop-color="#161616"/>
            <stop offset="0.826" stop-color="#000505"/>
            <stop offset="0.964"/>
        </radialGradient>
        <radialGradient id="paint3_radial_2001_1148" cx="0" cy="0" r="1" gradientUnits="userSpaceOnUse" gradientTransform="translate(145.517 33.3184) rotate(49.8472) scale(21.1297)">
            <stop stop-color="white"/>
            <stop offset="0.102" stop-color="#D9D9D9"/>
            <stop offset="0.168" stop-color="#AAAAAA"/>
            <stop offset="0.255" stop-color="#7A7A7A"/>
            <stop offset="0.408" stop-color="#424242"/>
            <stop offset="0.515" stop-color="#2A2A2A"/>
            <stop offset="0.663" stop-color="#161616"/>
            <stop offset="0.826" stop-color="#000505"/>
            <stop offset="0.964"/>
        </radialGradient>
        <radialGradient id="paint4_radial_2001_1148" cx="0" cy="0" r="1" gradientUnits="userSpaceOnUse" gradientTransform="translate(145.518 33.3154) rotate(-33.0271) scale(5.89686 5.89686)">
            <stop offset="0.324" stop-color="white"/>
            <stop offset="0.561" stop-color="#C6C6C6"/>
            <stop offset="0.731" stop-color="#6A6A6A"/>
            <stop offset="0.874" stop-color="#000505"/>
            <stop offset="0.964"/>
        </radialGradient>
        <radialGradient id="paint5_radial_2001_1148" cx="0" cy="0" r="1" gradientUnits="userSpaceOnUse" gradientTransform="translate(12.9717 124.679) rotate(-76.3665) scale(12.9396 12.9396)">
            <stop offset="0.099" stop-color="white"/>
            <stop offset="0.363" stop-color="#7A7A7A"/>
            <stop offset="0.572" stop-color="#2A2A2A"/>
            <stop offset="0.663" stop-color="#161616"/>
            <stop offset="0.826" stop-color="#000505"/>
            <stop offset="0.964"/>
        </radialGradient>
        <radialGradient id="paint6_radial_2001_1148" cx="0" cy="0" r="1" gradientUnits="userSpaceOnUse" gradientTransform="translate(12.9247 124.607) rotate(10.2164) scale(2.26085)">
            <stop stop-color="white"/>
            <stop offset="0.102" stop-color="#D9D9D9"/>
            <stop offset="0.168" stop-color="#AAAAAA"/>
            <stop offset="0.255" stop-color="#7A7A7A"/>
            <stop offset="0.408" stop-color="#424242"/>
            <stop offset="0.515" stop-color="#2A2A2A"/>
            <stop offset="0.663" stop-color="#161616"/>
            <stop offset="0.826" stop-color="#000505"/>
            <stop offset="0.964"/>
        </radialGradient>
        <radialGradient id="paint7_radial_2001_1148" cx="0" cy="0" r="1" gradientUnits="userSpaceOnUse" gradientTransform="translate(12.9247 124.611) rotate(-36.4167) scale(16.0043 16.0043)">
            <stop stop-color="white"/>
            <stop offset="0.102" stop-color="#D9D9D9"/>
            <stop offset="0.168" stop-color="#AAAAAA"/>
            <stop offset="0.255" stop-color="#7A7A7A"/>
            <stop offset="0.408" stop-color="#424242"/>
            <stop offset="0.515" stop-color="#2A2A2A"/>
            <stop offset="0.663" stop-color="#161616"/>
            <stop offset="0.826" stop-color="#000505"/>
            <stop offset="0.964"/>
        </radialGradient>
        <radialGradient id="paint8_radial_2001_1148" cx="0" cy="0" r="1" gradientTransform="matrix(10.577 12.538 -12.538 10.577 12.9236 124.612)" gradientUnits="userSpaceOnUse">
            <stop stop-color="white"/>
            <stop offset="0.102" stop-color="#D9D9D9"/>
            <stop offset="0.168" stop-color="#AAAAAA"/>
            <stop offset="0.255" stop-color="#7A7A7A"/>
            <stop offset="0.408" stop-color="#424242"/>
            <stop offset="0.515" stop-color="#2A2A2A"/>
            <stop offset="0.663" stop-color="#161616"/>
            <stop offset="0.826" stop-color="#000505"/>
            <stop offset="0.964"/>
        </radialGradient>
        <radialGradient id="paint9_radial_2001_1148" cx="0" cy="0" r="1" gradientTransform="matrix(3.838 -2.49501 2.495 3.83801 12.9226 124.61)" gradientUnits="userSpaceOnUse">
            <stop offset="0.324" stop-color="white"/>
            <stop offset="0.561" stop-color="#C6C6C6"/>
            <stop offset="0.731" stop-color="#6A6A6A"/>
            <stop offset="0.874" stop-color="#000505"/>
            <stop offset="0.964"/>
        </radialGradient>
        <radialGradient id="paint10_radial_2001_1148" cx="0" cy="0" r="1" gradientUnits="userSpaceOnUse" gradientTransform="translate(142.919 11.8843) rotate(-76.3671) scale(11.888 11.8879)">
            <stop offset="0.099" stop-color="white"/>
            <stop offset="0.363" stop-color="#7A7A7A"/>
            <stop offset="0.572" stop-color="#2A2A2A"/>
            <stop offset="0.663" stop-color="#161616"/>
            <stop offset="0.826" stop-color="#000505"/>
            <stop offset="0.964"/>
        </radialGradient>
        <radialGradient id="paint11_radial_2001_1148" cx="0" cy="0" r="1" gradientTransform="matrix(11.832 -8.72901 8.729 11.832 142.876 11.8233)" gradientUnits="userSpaceOnUse">
            <stop stop-color="white"/>
            <stop offset="0.102" stop-color="#D9D9D9"/>
            <stop offset="0.168" stop-color="#AAAAAA"/>
            <stop offset="0.255" stop-color="#7A7A7A"/>
            <stop offset="0.408" stop-color="#424242"/>
            <stop offset="0.515" stop-color="#2A2A2A"/>
            <stop offset="0.663" stop-color="#161616"/>
            <stop offset="0.826" stop-color="#000505"/>
            <stop offset="0.964"/>
        </radialGradient>
        <radialGradient id="paint12_radial_2001_1148" cx="0" cy="0" r="1" gradientTransform="matrix(9.71499 11.516 -11.516 9.715 142.874 11.8234)" gradientUnits="userSpaceOnUse">
            <stop stop-color="white"/>
            <stop offset="0.102" stop-color="#D9D9D9"/>
            <stop offset="0.168" stop-color="#AAAAAA"/>
            <stop offset="0.255" stop-color="#7A7A7A"/>
            <stop offset="0.408" stop-color="#424242"/>
            <stop offset="0.515" stop-color="#2A2A2A"/>
            <stop offset="0.663" stop-color="#161616"/>
            <stop offset="0.826" stop-color="#000505"/>
            <stop offset="0.964"/>
        </radialGradient>
        <radialGradient id="paint13_radial_2001_1148" cx="0" cy="0" r="1" gradientUnits="userSpaceOnUse" gradientTransform="translate(142.874 11.8223) rotate(-33.025) scale(4.20546)">
            <stop offset="0.324" stop-color="white"/>
            <stop offset="0.561" stop-color="#C6C6C6"/>
            <stop offset="0.731" stop-color="#6A6A6A"/>
            <stop offset="0.874" stop-color="#000505"/>
            <stop offset="0.964"/>
        </radialGradient>
        <radialGradient id="paint14_radial_2001_1148" cx="0" cy="0" r="1" gradientUnits="userSpaceOnUse" gradientTransform="translate(74.7576 147.448) rotate(-76.3707) scale(11.0975 11.0975)">
            <stop offset="0.099" stop-color="white"/>
            <stop offset="0.363" stop-color="#7A7A7A"/>
            <stop offset="0.572" stop-color="#2A2A2A"/>
            <stop offset="0.663" stop-color="#161616"/>
            <stop offset="0.826" stop-color="#000505"/>
            <stop offset="0.964"/>
        </radialGradient>
        <radialGradient id="paint15_radial_2001_1148" cx="0" cy="0" r="1" gradientTransform="matrix(3.294 -2.141 2.141 3.294 74.7145 147.391)" gradientUnits="userSpaceOnUse">
            <stop offset="0.324" stop-color="white"/>
            <stop offset="0.561" stop-color="#C6C6C6"/>
            <stop offset="0.731" stop-color="#6A6A6A"/>
            <stop offset="0.874" stop-color="#000505"/>
            <stop offset="0.964"/>
        </radialGradient>
        <radialGradient id="paint16_radial_2001_1148" cx="0" cy="0" r="1" gradientUnits="userSpaceOnUse" gradientTransform="translate(151.105 119.733) rotate(-76.3707) scale(11.0975 11.0975)">
            <stop offset="0.099" stop-color="white"/>
            <stop offset="0.363" stop-color="#7A7A7A"/>
            <stop offset="0.572" stop-color="#2A2A2A"/>
            <stop offset="0.663" stop-color="#161616"/>
            <stop offset="0.826" stop-color="#000505"/>
            <stop offset="0.964"/>
        </radialGradient>
        <radialGradient id="paint17_radial_2001_1148" cx="0" cy="0" r="1" gradientTransform="matrix(3.293 -2.14099 2.141 3.29299 151.062 119.677)" gradientUnits="userSpaceOnUse">
            <stop offset="0.324" stop-color="white"/>
            <stop offset="0.561" stop-color="#C6C6C6"/>
            <stop offset="0.731" stop-color="#6A6A6A"/>
            <stop offset="0.874" stop-color="#000505"/>
            <stop offset="0.964"/>
        </radialGradient>
        <radialGradient id="paint18_radial_2001_1148" cx="0" cy="0" r="1" gradientUnits="userSpaceOnUse" gradientTransform="translate(143.659 136.466) rotate(-76.3695) scale(11.0965 11.0965)">
            <stop offset="0.099" stop-color="white"/>
            <stop offset="0.363" stop-color="#7A7A7A"/>
            <stop offset="0.572" stop-color="#2A2A2A"/>
            <stop offset="0.663" stop-color="#161616"/>
            <stop offset="0.826" stop-color="#000505"/>
            <stop offset="0.964"/>
        </radialGradient>
        <radialGradient id="paint19_radial_2001_1148" cx="0" cy="0" r="1" gradientUnits="userSpaceOnUse" gradientTransform="translate(143.615 136.409) rotate(-33.0184) scale(3.92727 3.92727)">
            <stop offset="0.324" stop-color="white"/>
            <stop offset="0.561" stop-color="#C6C6C6"/>
            <stop offset="0.731" stop-color="#6A6A6A"/>
            <stop offset="0.874" stop-color="#000505"/>
            <stop offset="0.964"/>
        </radialGradient>
        <radialGradient id="paint20_radial_2001_1148" cx="0" cy="0" r="1" gradientUnits="userSpaceOnUse" gradientTransform="translate(85.2887 83.9264) rotate(-76.3657) scale(8.29783 8.29784)">
            <stop offset="0.099" stop-color="white"/>
            <stop offset="0.363" stop-color="#7A7A7A"/>
            <stop offset="0.572" stop-color="#2A2A2A"/>
            <stop offset="0.663" stop-color="#161616"/>
            <stop offset="0.826" stop-color="#000505"/>
            <stop offset="0.964"/>
        </radialGradient>
        <radialGradient id="paint21_radial_2001_1148" cx="0" cy="0" r="1" gradientUnits="userSpaceOnUse" gradientTransform="translate(85.2559 83.8854) rotate(-33.0353) scale(2.93677)">
            <stop offset="0.324" stop-color="white"/>
            <stop offset="0.561" stop-color="#C6C6C6"/>
            <stop offset="0.731" stop-color="#6A6A6A"/>
            <stop offset="0.874" stop-color="#000505"/>
            <stop offset="0.964"/>
        </radialGradient>
        <radialGradient id="paint22_radial_2001_1148" cx="0" cy="0" r="1" gradientUnits="userSpaceOnUse" gradientTransform="translate(53.9296 101.42) rotate(-76.3673) scale(8.29881 8.2988)">
            <stop offset="0.099" stop-color="white"/>
            <stop offset="0.363" stop-color="#7A7A7A"/>
            <stop offset="0.572" stop-color="#2A2A2A"/>
            <stop offset="0.663" stop-color="#161616"/>
            <stop offset="0.826" stop-color="#000505"/>
            <stop offset="0.964"/>
        </radialGradient>
        <radialGradient id="paint23_radial_2001_1148" cx="0" cy="0" r="1" gradientTransform="matrix(2.462 -1.601 1.601 2.462 53.8975 101.377)" gradientUnits="userSpaceOnUse">
            <stop offset="0.324" stop-color="white"/>
            <stop offset="0.561" stop-color="#C6C6C6"/>
            <stop offset="0.731" stop-color="#6A6A6A"/>
            <stop offset="0.874" stop-color="#000505"/>
            <stop offset="0.964"/>
        </radialGradient>
        <radialGradient id="paint24_radial_2001_1148" cx="0" cy="0" r="1" gradientUnits="userSpaceOnUse" gradientTransform="translate(27.9417 118.312) rotate(-76.3673) scale(8.29881)">
            <stop offset="0.099" stop-color="white"/>
            <stop offset="0.363" stop-color="#7A7A7A"/>
            <stop offset="0.572" stop-color="#2A2A2A"/>
            <stop offset="0.663" stop-color="#161616"/>
            <stop offset="0.826" stop-color="#000505"/>
            <stop offset="0.964"/>
        </radialGradient>
        <radialGradient id="paint25_radial_2001_1148" cx="0" cy="0" r="1" gradientTransform="matrix(2.463 -1.601 1.601 2.463 27.9097 118.271)" gradientUnits="userSpaceOnUse">
            <stop offset="0.324" stop-color="white"/>
            <stop offset="0.561" stop-color="#C6C6C6"/>
            <stop offset="0.731" stop-color="#6A6A6A"/>
            <stop offset="0.874" stop-color="#000505"/>
            <stop offset="0.964"/>
        </radialGradient>
        <radialGradient id="paint26_radial_2001_1148" cx="0" cy="0" r="1" gradientUnits="userSpaceOnUse" gradientTransform="translate(133.549 20.6003) rotate(-76.3657) scale(8.29783 8.29783)">
            <stop offset="0.099" stop-color="white"/>
            <stop offset="0.363" stop-color="#7A7A7A"/>
            <stop offset="0.572" stop-color="#2A2A2A"/>
            <stop offset="0.663" stop-color="#161616"/>
            <stop offset="0.826" stop-color="#000505"/>
            <stop offset="0.964"/>
        </radialGradient>
        <radialGradient id="paint27_radial_2001_1148" cx="0" cy="0" r="1" gradientTransform="matrix(2.463 -1.601 1.601 2.46301 133.517 20.5583)" gradientUnits="userSpaceOnUse">
            <stop offset="0.324" stop-color="white"/>
            <stop offset="0.561" stop-color="#C6C6C6"/>
            <stop offset="0.731" stop-color="#6A6A6A"/>
            <stop offset="0.874" stop-color="#000505"/>
            <stop offset="0.964"/>
        </radialGradient>
    </defs>
</svg>
