<svg xmlns="http://www.w3.org/2000/svg" width="211" height="263" viewBox="-30 -30 211 263" fill="none">
        <defs>
    <radialGradient id="starMain" cx="0.5" cy="0.5" r="0.5">
      <stop offset="0%" stop-color="#FFFFFF" stop-opacity="1" />
      <stop offset="25%" stop-color="#FFFFFF" stop-opacity="0.95" />
      <stop offset="50%" stop-color="#FFFFFF" stop-opacity="0.5" />
      <stop offset="75%" stop-color="#FFFFFF" stop-opacity="0.15" />
      <stop offset="100%" stop-color="#FFFFFF" stop-opacity="0" />
    </radialGradient>
    <radialGradient id="starMedium" cx="0.5" cy="0.5" r="0.5">
      <stop offset="0%" stop-color="#FFFFFF" stop-opacity="1" />
      <stop offset="30%" stop-color="#FFFFFF" stop-opacity="0.85" />
      <stop offset="65%" stop-color="#AAAAAA" stop-opacity="0.3" />
      <stop offset="100%" stop-color="#000000" stop-opacity="0" />
    </radialGradient>
    <linearGradient id="rayGrad" x1="0%" y1="0%" x2="100%" y2="0%">
      <stop offset="0%" stop-color="#FFFFFF" stop-opacity="0" />
      <stop offset="40%" stop-color="#FFFFFF" stop-opacity="0.5" />
      <stop offset="50%" stop-color="#FFFFFF" stop-opacity="0.8" />
      <stop offset="60%" stop-color="#FFFFFF" stop-opacity="0.5" />
      <stop offset="100%" stop-color="#FFFFFF" stop-opacity="0" />
    </linearGradient>
    <g id="star-main">
      <circle r="17" fill="url(#starMain)" opacity="0.25" />
      <ellipse rx="24" ry="0.92" fill="url(#rayGrad)" opacity="0.72" />
      <ellipse rx="0.92" ry="24" fill="url(#rayGrad)" opacity="0.72" />
      <ellipse rx="20.31" ry="0.78" fill="url(#rayGrad)" opacity="0.62" transform="rotate(45)" />
      <ellipse rx="20.31" ry="0.78" fill="url(#rayGrad)" opacity="0.62" transform="rotate(-45)" />
      <circle r="9.44" fill="url(#starMain)" opacity="0.9" />
      <circle r="3.31" fill="#FFFFFF" />
    </g>
    <g id="star-medium">
      <circle r="14" fill="url(#starMain)" opacity="0.25" />
      <ellipse rx="21" ry="0.86" fill="url(#rayGrad)" opacity="0.68" />
      <ellipse rx="0.86" ry="21" fill="url(#rayGrad)" opacity="0.68" />
      <ellipse rx="17.18" ry="0.71" fill="url(#rayGrad)" opacity="0.58" transform="rotate(45)" />
      <ellipse rx="17.18" ry="0.71" fill="url(#rayGrad)" opacity="0.58" transform="rotate(-45)" />
      <circle r="8" fill="url(#starMain)" opacity="0.9" />
      <circle r="2.7" fill="#FFFFFF" />
    </g>
    <g id="star-small">
      <circle r="10.5" fill="url(#starMedium)" opacity="0.3" />
      <ellipse rx="14.5" ry="0.62" fill="url(#rayGrad)" opacity="0.55" />
      <ellipse rx="0.62" ry="14.5" fill="url(#rayGrad)" opacity="0.55" />
      <ellipse rx="11.39" ry="0.52" fill="url(#rayGrad)" opacity="0.5" transform="rotate(45)" />
      <ellipse rx="11.39" ry="0.52" fill="url(#rayGrad)" opacity="0.5" transform="rotate(-45)" />
      <circle r="6.2" fill="url(#starMedium)" opacity="0.9" />
      <circle r="1.91" fill="#FFFFFF" />
    </g>
  </defs>
  <g opacity="0.9">
    <g transform="translate(134.715 116.810)">
      <use href="#star-main" />
    </g>
    <g transform="translate(48.905 150.510)">
      <use href="#star-medium" />
    </g>
    <g transform="translate(13.165 184.050)">
      <use href="#star-medium" />
    </g>
    <g transform="translate(21.035 128.200)">
      <use href="#star-medium" />
    </g>
    <g transform="translate(21.165 128.100)">
      <use href="#star-small" />
    </g>
    <g transform="translate(67.075 88.990)">
      <use href="#star-small" />
    </g>
    <g transform="translate(51.715 51.570)">
      <use href="#star-small" />
    </g>
    <g transform="translate(51.755 51.430)">
      <use href="#star-small" />
    </g>
    <g transform="translate(62.115 8.470)">
      <use href="#star-small" />
    </g>
    <g transform="translate(94.865 16.290)">
      <use href="#star-small" />
    </g>
    <g transform="translate(94.665 17.150)">
      <use href="#star-small" />
    </g>
    <g transform="translate(62.764 9.530)">
      <use href="#star-small" />
    </g>
    <g transform="translate(52.635 51.500)">
      <use href="#star-small" />
    </g>
    <g transform="translate(67.915 88.710)">
      <use href="#star-small" />
    </g>
    <g transform="translate(99.575 91.700)">
      <use href="#star-small" />
    </g>
    <g transform="translate(99.674 91.770)">
      <use href="#star-small" />
    </g>
    <g transform="translate(14.384 181.710)">
      <use href="#star-small" />
    </g>
    <g transform="translate(48.505 149.730)">
      <use href="#star-small" />
    </g>
    <g transform="translate(132.875 116.580)">
      <use href="#star-small" />
    </g>
    <g transform="translate(99.254 92.560)">
      <use href="#star-small" />
    </g>
    <g transform="translate(67.745 89.580)">
      <use href="#star-small" />
    </g>
    <g transform="translate(21.865 128.660)">
      <use href="#star-small" />
    </g>
  </g>
  <g stroke="#FFFFFF" stroke-width="1.2" stroke-linecap="round" stroke-linejoin="round" opacity="0.85">
    <path d="M134.715 116.81L48.9046 150.51L13.1646 184.05L21.0345 128.2L21.1646 128.1L67.0746 88.99L51.7146 51.5699L51.7546 51.43L62.1146 8.46997L94.8645 16.2899L94.6646 17.15L62.7645 9.52997L52.6345 51.5L67.9145 88.71L99.5745 91.7L99.6745 91.77L134.715 116.81ZM14.3845 181.71L48.5046 149.73L132.875 116.58L99.2545 92.56L67.7445 89.58L21.8646 128.66L14.3845 181.71Z" fill="none" />
  </g>
</svg>
