<svg xmlns="http://www.w3.org/2000/svg" width="205" height="221" viewBox="-30 -30 205 221" fill="none">
    <defs>
    <radialGradient id="starMain" cx="0.5" cy="0.5" r="0.5">
      <stop offset="0%" stop-color="#FFFFFF" stop-opacity="1" />
      <stop offset="25%" stop-color="#FFFFFF" stop-opacity="0.95" />
      <stop offset="50%" stop-color="#FFFFFF" stop-opacity="0.5" />
      <stop offset="75%" stop-color="#FFFFFF" stop-opacity="0.15" />
      <stop offset="100%" stop-color="#FFFFFF" stop-opacity="0" />
    </radialGradient>
    <radialGradient id="starMedium" cx="0.5" cy="0.5" r="0.5">
      <stop offset="0%" stop-color="#FFFFFF" stop-opacity="1" />
      <stop offset="30%" stop-color="#FFFFFF" stop-opacity="0.85" />
      <stop offset="65%" stop-color="#FFFFFF" stop-opacity="0.3" />
      <stop offset="100%" stop-color="#FFFFFF" stop-opacity="0" />
    </radialGradient>
    <linearGradient id="rayGrad" x1="0%" y1="0%" x2="100%" y2="0%">
      <stop offset="0%" stop-color="#FFFFFF" stop-opacity="0" />
      <stop offset="40%" stop-color="#FFFFFF" stop-opacity="0.5" />
      <stop offset="50%" stop-color="#FFFFFF" stop-opacity="0.8" />
      <stop offset="60%" stop-color="#FFFFFF" stop-opacity="0.5" />
      <stop offset="100%" stop-color="#FFFFFF" stop-opacity="0" />
    </linearGradient>
    <g id="star-main">
      <circle r="18" fill="url(#starMain)" opacity="0.25" />
      <ellipse rx="26" ry="1" fill="url(#rayGrad)" opacity="0.72" />
      <ellipse rx="1" ry="26" fill="url(#rayGrad)" opacity="0.72" />
      <ellipse rx="22" ry="0.85" fill="url(#rayGrad)" opacity="0.62" transform="rotate(45)" />
      <ellipse rx="22" ry="0.85" fill="url(#rayGrad)" opacity="0.62" transform="rotate(-45)" />
      <circle r="10" fill="url(#starMain)" opacity="0.9" />
      <circle r="3.5" fill="#FFFFFF" />
    </g>
    <g id="star-medium">
      <circle r="14" fill="url(#starMain)" opacity="0.25" />
      <ellipse rx="22" ry="0.9" fill="url(#rayGrad)" opacity="0.68" />
      <ellipse rx="0.9" ry="22" fill="url(#rayGrad)" opacity="0.68" />
      <ellipse rx="18" ry="0.75" fill="url(#rayGrad)" opacity="0.58" transform="rotate(45)" />
      <ellipse rx="18" ry="0.75" fill="url(#rayGrad)" opacity="0.58" transform="rotate(-45)" />
      <circle r="8" fill="url(#starMain)" opacity="0.9" />
      <circle r="2.7" fill="#FFFFFF" />
    </g>
    <g id="star-small">
      <circle r="11" fill="url(#starMedium)" opacity="0.3" />
      <ellipse rx="14" ry="0.6" fill="url(#rayGrad)" opacity="0.55" />
      <ellipse rx="0.6" ry="14" fill="url(#rayGrad)" opacity="0.55" />
      <ellipse rx="11" ry="0.5" fill="url(#rayGrad)" opacity="0.5" transform="rotate(45)" />
      <ellipse rx="11" ry="0.5" fill="url(#rayGrad)" opacity="0.5" transform="rotate(-45)" />
      <circle r="6.5" fill="url(#starMedium)" />
      <circle r="2" fill="#FFFFFF" />
    </g>
  </defs>
  <g opacity="0.9">
    <g transform="translate(104.800 153.650)">
      <use href="#star-main" />
    </g>
    <g transform="translate(94.990 133.760)">
      <use href="#star-medium" />
    </g>
    <g transform="translate(129.660 94.841)">
      <use href="#star-medium" />
    </g>
    <g transform="translate(95.220 19.700)">
      <use href="#star-medium" />
    </g>
    <g transform="translate(32.120 15.670)">
      <use href="#star-small" />
    </g>
    <g transform="translate(38.340 65.110)">
      <use href="#star-small" />
    </g>
    <g transform="translate(38.330 65.180)">
      <use href="#star-small" />
    </g>
    <g transform="translate(34.230 87.100)">
      <use href="#star-small" />
    </g>
    <g transform="translate(34.160 87.191)">
      <use href="#star-small" />
    </g>
    <g transform="translate(15.130 109.980)">
      <use href="#star-small" />
    </g>
    <g transform="translate(14.450 109.420)">
      <use href="#star-small" />
    </g>
    <g transform="translate(33.410 86.721)">
      <use href="#star-small" />
    </g>
    <g transform="translate(37.450 65.091)">
      <use href="#star-small" />
    </g>
    <g transform="translate(31.110 14.720)">
      <use href="#star-small" />
    </g>
    <g transform="translate(95.800 18.851)">
      <use href="#star-small" />
    </g>
    <g transform="translate(95.920 19.090)">
      <use href="#star-small" />
    </g>
    <g transform="translate(130.700 94.990)">
      <use href="#star-small" />
    </g>
    <g transform="translate(130.510 95.210)">
      <use href="#star-small" />
    </g>
    <g transform="translate(96.040 133.900)">
      <use href="#star-small" />
    </g>
    <g transform="translate(105.590 153.260)">
      <use href="#star-small" />
    </g>
    <g transform="translate(129.900 95.260)">
      <use href="#star-small" />
    </g>
    <g transform="translate(31.340 15.540)">
      <use href="#star-small" />
    </g>
    <g transform="translate(31.890 14.850)">
      <use href="#star-small" />
    </g>
    <g transform="translate(130.450 94.570)">
      <use href="#star-small" />
    </g>
  </g>
  <g stroke="#FFFFFF" stroke-width="1.2" stroke-linecap="round" stroke-linejoin="round" opacity="0.85">
    <path d="M104.8 153.65L94.9902 133.76L129.66 94.8405L95.2202 19.7004L32.1202 15.6704L38.3402 65.1104L38.3302 65.1805L34.2302 87.1005L34.1602 87.1905L15.1302 109.98L14.4502 109.42L33.4102 86.7205L37.4502 65.0905L31.1102 14.7205L95.8002 18.8505L95.9202 19.0905L130.7 94.9904L130.51 95.2104L96.0402 133.9L105.59 153.26L104.8 153.65Z" fill="none" />
    <path d="M129.9 95.2601L31.3401 15.5401L31.8901 14.8501L130.45 94.5701L129.9 95.2601Z" fill="none" />
  </g>
</svg>
