<svg xmlns="http://www.w3.org/2000/svg" width="203" height="265" viewBox="-30 -30 203 265" fill="none">
    <defs>
    <radialGradient id="starMain" cx="0.5" cy="0.5" r="0.5">
      <stop offset="0%" stop-color="#FFFFFF" stop-opacity="1" />
      <stop offset="25%" stop-color="#FFFFFF" stop-opacity="0.95" />
      <stop offset="50%" stop-color="#FFFFFF" stop-opacity="0.5" />
      <stop offset="75%" stop-color="#FFFFFF" stop-opacity="0.15" />
      <stop offset="100%" stop-color="#FFFFFF" stop-opacity="0" />
    </radialGradient>
    <radialGradient id="starMedium" cx="0.5" cy="0.5" r="0.5">
      <stop offset="0%" stop-color="#FFFFFF" stop-opacity="1" />
      <stop offset="30%" stop-color="#FFFFFF" stop-opacity="0.85" />
      <stop offset="65%" stop-color="#FFFFFF" stop-opacity="0.3" />
      <stop offset="100%" stop-color="#FFFFFF" stop-opacity="0" />
    </radialGradient>
    <linearGradient id="rayGrad" x1="0%" y1="0%" x2="100%" y2="0%">
      <stop offset="0%" stop-color="#FFFFFF" stop-opacity="0" />
      <stop offset="40%" stop-color="#FFFFFF" stop-opacity="0.5" />
      <stop offset="50%" stop-color="#FFFFFF" stop-opacity="0.8" />
      <stop offset="60%" stop-color="#FFFFFF" stop-opacity="0.5" />
      <stop offset="100%" stop-color="#FFFFFF" stop-opacity="0" />
    </linearGradient>
    <g id="star-main">
      <circle r="18" fill="url(#starMain)" opacity="0.25" />
      <ellipse rx="26" ry="1" fill="url(#rayGrad)" opacity="0.72" />
      <ellipse rx="1" ry="26" fill="url(#rayGrad)" opacity="0.72" />
      <ellipse rx="22" ry="0.85" fill="url(#rayGrad)" opacity="0.62" transform="rotate(45)" />
      <ellipse rx="22" ry="0.85" fill="url(#rayGrad)" opacity="0.62" transform="rotate(-45)" />
      <circle r="10" fill="url(#starMain)" opacity="0.9" />
      <circle r="3.5" fill="#FFFFFF" />
    </g>
    <g id="star-medium">
      <circle r="14" fill="url(#starMain)" opacity="0.25" />
      <ellipse rx="22" ry="0.9" fill="url(#rayGrad)" opacity="0.68" />
      <ellipse rx="0.9" ry="22" fill="url(#rayGrad)" opacity="0.68" />
      <ellipse rx="18" ry="0.75" fill="url(#rayGrad)" opacity="0.58" transform="rotate(45)" />
      <ellipse rx="18" ry="0.75" fill="url(#rayGrad)" opacity="0.58" transform="rotate(-45)" />
      <circle r="8" fill="url(#starMain)" opacity="0.9" />
      <circle r="2.7" fill="#FFFFFF" />
    </g>
    <g id="star-small">
      <circle r="11" fill="url(#starMedium)" opacity="0.3" />
      <ellipse rx="14" ry="0.6" fill="url(#rayGrad)" opacity="0.55" />
      <ellipse rx="0.6" ry="14" fill="url(#rayGrad)" opacity="0.55" />
      <ellipse rx="11" ry="0.5" fill="url(#rayGrad)" opacity="0.5" transform="rotate(45)" />
      <ellipse rx="11" ry="0.5" fill="url(#rayGrad)" opacity="0.5" transform="rotate(-45)" />
      <circle r="6.5" fill="url(#starMedium)" />
      <circle r="2" fill="#FFFFFF" />
    </g>
  </defs>
  <g opacity="0.9">
    <g transform="translate(104.560 182.791)">
      <use href="#star-main" />
    </g>
    <g transform="translate(98.690 167.991)">
      <use href="#star-medium" />
    </g>
    <g transform="translate(108.790 156.191)">
      <use href="#star-medium" />
    </g>
    <g transform="translate(101.100 135.981)">
      <use href="#star-medium" />
    </g>
    <g transform="translate(68.260 85.071)">
      <use href="#star-small" />
    </g>
    <g transform="translate(61.050 69.951)">
      <use href="#star-small" />
    </g>
    <g transform="translate(54.440 62.381)">
      <use href="#star-small" />
    </g>
    <g transform="translate(39.540 52.121)">
      <use href="#star-small" />
    </g>
    <g transform="translate(31.870 45.331)">
      <use href="#star-small" />
    </g>
    <g transform="translate(18.070 42.251)">
      <use href="#star-small" />
    </g>
    <g transform="translate(10.400 35.511)">
      <use href="#star-small" />
    </g>
    <g transform="translate(41.300 32.481)">
      <use href="#star-small" />
    </g>
    <g transform="translate(66.180 26.491)">
      <use href="#star-small" />
    </g>
    <g transform="translate(95.320 23.141)">
      <use href="#star-small" />
    </g>
    <g transform="translate(104.870 16.011)">
      <use href="#star-small" />
    </g>
    <g transform="translate(111.000 8.121)">
      <use href="#star-small" />
    </g>
    <g transform="translate(111.160 8.091)">
      <use href="#star-small" />
    </g>
    <g transform="translate(120.260 6.161)">
      <use href="#star-small" />
    </g>
    <g transform="translate(120.450 7.031)">
      <use href="#star-small" />
    </g>
    <g transform="translate(111.490 8.911)">
      <use href="#star-small" />
    </g>
    <g transform="translate(105.490 16.641)">
      <use href="#star-small" />
    </g>
    <g transform="translate(105.440 16.671)">
      <use href="#star-small" />
    </g>
    <g transform="translate(95.650 23.991)">
      <use href="#star-small" />
    </g>
    <g transform="translate(95.540 24.001)">
      <use href="#star-small" />
    </g>
    <g transform="translate(66.330 27.351)">
      <use href="#star-small" />
    </g>
    <g transform="translate(41.450 33.351)">
      <use href="#star-small" />
    </g>
    <g transform="translate(12.500 36.191)">
      <use href="#star-small" />
    </g>
    <g transform="translate(18.570 41.511)">
      <use href="#star-small" />
    </g>
    <g transform="translate(32.280 44.521)">
      <use href="#star-small" />
    </g>
    <g transform="translate(32.370 44.591)">
      <use href="#star-small" />
    </g>
    <g transform="translate(40.090 51.431)">
      <use href="#star-small" />
    </g>
    <g transform="translate(55.070 61.761)">
      <use href="#star-small" />
    </g>
    <g transform="translate(61.820 69.521)">
      <use href="#star-small" />
    </g>
    <g transform="translate(69.030 84.641)">
      <use href="#star-small" />
    </g>
    <g transform="translate(101.880 135.591)">
      <use href="#star-small" />
    </g>
    <g transform="translate(109.800 156.371)">
      <use href="#star-small" />
    </g>
    <g transform="translate(99.710 168.161)">
      <use href="#star-small" />
    </g>
    <g transform="translate(105.210 182.041)">
      <use href="#star-small" />
    </g>
    <g transform="translate(117.420 184.881)">
      <use href="#star-small" />
    </g>
    <g transform="translate(136.000 197.781)">
      <use href="#star-small" />
    </g>
    <g transform="translate(135.490 198.501)">
      <use href="#star-small" />
    </g>
    <g transform="translate(116.980 185.651)">
      <use href="#star-small" />
    </g>
    <g transform="translate(116.850 184.931)">
      <use href="#star-small" />
    </g>
    <g transform="translate(123.530 177.891)">
      <use href="#star-small" />
    </g>
    <g transform="translate(120.680 166.601)">
      <use href="#star-small" />
    </g>
    <g transform="translate(109.010 156.611)">
      <use href="#star-small" />
    </g>
    <g transform="translate(109.580 155.941)">
      <use href="#star-small" />
    </g>
    <g transform="translate(121.470 166.111)">
      <use href="#star-small" />
    </g>
    <g transform="translate(124.510 178.151)">
      <use href="#star-small" />
    </g>
    <g transform="translate(117.480 185.541)">
      <use href="#star-small" />
    </g>
  </g>
  <g stroke="#FFFFFF" stroke-width="1.2" stroke-linecap="round" stroke-linejoin="round" opacity="0.85">
    <path d="M104.56 182.791L98.6902 167.991L108.79 156.191L101.1 135.981L68.2602 85.0709L61.0502 69.9509L54.4402 62.3809L39.5402 52.1209L31.8702 45.3309L18.0702 42.2509L10.4001 35.5109L41.3002 32.4809L66.1802 26.4909L95.3202 23.1409L104.87 16.0109L111 8.12091L111.16 8.09094L120.26 6.16095L120.45 7.03094L111.49 8.91095L105.49 16.6409L105.44 16.6709L95.6501 23.9909L95.5402 24.0009L66.3302 27.3509L41.4502 33.3509L12.5002 36.1909L18.5702 41.5109L32.2802 44.5209L32.3702 44.5909L40.0901 51.4309L55.0702 61.7609L61.8202 69.5209L69.0302 84.6409L101.88 135.591L109.8 156.371L99.7101 168.161L105.21 182.041L117.42 184.881L136 197.781L135.49 198.501L116.98 185.651L104.56 182.791Z" fill="none" />
    <path d="M116.85 184.931L123.53 177.891L120.68 166.601L109.01 156.611L109.58 155.941L121.47 166.111L124.51 178.151L117.48 185.541L116.85 184.931Z" fill="none" />
  </g>
</svg>
