<svg xmlns="http://www.w3.org/2000/svg" width="205" height="241" viewBox="-30 -30 205 241" fill="none">
        <defs>
    <radialGradient id="starMain" cx="0.5" cy="0.5" r="0.5">
      <stop offset="0%" stop-color="#FFFFFF" stop-opacity="1" />
      <stop offset="25%" stop-color="#FFFFFF" stop-opacity="0.95" />
      <stop offset="50%" stop-color="#FFFFFF" stop-opacity="0.5" />
      <stop offset="75%" stop-color="#FFFFFF" stop-opacity="0.15" />
      <stop offset="100%" stop-color="#FFFFFF" stop-opacity="0" />
    </radialGradient>
    <radialGradient id="starMedium" cx="0.5" cy="0.5" r="0.5">
      <stop offset="0%" stop-color="#FFFFFF" stop-opacity="1" />
      <stop offset="30%" stop-color="#FFFFFF" stop-opacity="0.85" />
      <stop offset="65%" stop-color="#AAAAAA" stop-opacity="0.3" />
      <stop offset="100%" stop-color="#000000" stop-opacity="0" />
    </radialGradient>
    <linearGradient id="rayGrad" x1="0%" y1="0%" x2="100%" y2="0%">
      <stop offset="0%" stop-color="#FFFFFF" stop-opacity="0" />
      <stop offset="40%" stop-color="#FFFFFF" stop-opacity="0.5" />
      <stop offset="50%" stop-color="#FFFFFF" stop-opacity="0.8" />
      <stop offset="60%" stop-color="#FFFFFF" stop-opacity="0.5" />
      <stop offset="100%" stop-color="#FFFFFF" stop-opacity="0" />
    </linearGradient>
    <g id="star-main">
      <circle r="13" fill="url(#starMain)" opacity="0.25" />
      <ellipse rx="19" ry="0.73" fill="url(#rayGrad)" opacity="0.72" />
      <ellipse rx="0.73" ry="19" fill="url(#rayGrad)" opacity="0.72" />
      <ellipse rx="16.08" ry="0.62" fill="url(#rayGrad)" opacity="0.62" transform="rotate(45)" />
      <ellipse rx="16.08" ry="0.62" fill="url(#rayGrad)" opacity="0.62" transform="rotate(-45)" />
      <circle r="7.22" fill="url(#starMain)" opacity="0.9" />
      <circle r="2.53" fill="#FFFFFF" />
    </g>
    <g id="star-medium">
      <circle r="10" fill="url(#starMain)" opacity="0.25" />
      <ellipse rx="15" ry="0.61" fill="url(#rayGrad)" opacity="0.68" />
      <ellipse rx="0.61" ry="15" fill="url(#rayGrad)" opacity="0.68" />
      <ellipse rx="12.27" ry="0.51" fill="url(#rayGrad)" opacity="0.58" transform="rotate(45)" />
      <ellipse rx="12.27" ry="0.51" fill="url(#rayGrad)" opacity="0.58" transform="rotate(-45)" />
      <circle r="5.71" fill="url(#starMain)" opacity="0.9" />
      <circle r="1.93" fill="#FFFFFF" />
    </g>
    <g id="star-small">
      <circle r="7.5" fill="url(#starMedium)" opacity="0.3" />
      <ellipse rx="10.5" ry="0.45" fill="url(#rayGrad)" opacity="0.55" />
      <ellipse rx="0.45" ry="10.5" fill="url(#rayGrad)" opacity="0.55" />
      <ellipse rx="8.25" ry="0.37" fill="url(#rayGrad)" opacity="0.5" transform="rotate(45)" />
      <ellipse rx="8.25" ry="0.37" fill="url(#rayGrad)" opacity="0.5" transform="rotate(-45)" />
      <circle r="4.43" fill="url(#starMedium)" opacity="0.9" />
      <circle r="1.36" fill="#FFFFFF" />
    </g>
  </defs>
  <g opacity="0.9">
    <g transform="translate(63.008 172.865)">
      <use href="#star-main" />
    </g>
    <g transform="translate(29.308 169.725)">
      <use href="#star-medium" />
    </g>
    <g transform="translate(29.198 169.485)">
      <use href="#star-medium" />
    </g>
    <g transform="translate(12.637 131.455)">
      <use href="#star-medium" />
    </g>
    <g transform="translate(5.218 75.775)">
      <use href="#star-small" />
    </g>
    <g transform="translate(35.087 54.985)">
      <use href="#star-small" />
    </g>
    <g transform="translate(73.888 70.255)">
      <use href="#star-small" />
    </g>
    <g transform="translate(68.707 30.955)">
      <use href="#star-small" />
    </g>
    <g transform="translate(54.667 18.075)">
      <use href="#star-small" />
    </g>
    <g transform="translate(52.278 4.515)">
      <use href="#star-small" />
    </g>
    <g transform="translate(53.138 4.365)">
      <use href="#star-small" />
    </g>
    <g transform="translate(55.477 17.635)">
      <use href="#star-small" />
    </g>
    <g transform="translate(69.537 30.515)">
      <use href="#star-small" />
    </g>
    <g transform="translate(69.558 30.685)">
      <use href="#star-small" />
    </g>
    <g transform="translate(74.957 71.615)">
      <use href="#star-small" />
    </g>
    <g transform="translate(35.208 55.975)">
      <use href="#star-small" />
    </g>
    <g transform="translate(6.158 76.195)">
      <use href="#star-small" />
    </g>
    <g transform="translate(13.508 131.285)">
      <use href="#star-small" />
    </g>
    <g transform="translate(29.907 168.895)">
      <use href="#star-small" />
    </g>
    <g transform="translate(63.087 171.985)">
      <use href="#star-small" />
    </g>
    <g transform="translate(29.847 169.675)">
      <use href="#star-small" />
    </g>
    <g transform="translate(29.357 168.945)">
      <use href="#star-small" />
    </g>
    <g transform="translate(52.687 153.205)">
      <use href="#star-small" />
    </g>
    <g transform="translate(53.177 153.925)">
      <use href="#star-small" />
    </g>
    <g transform="translate(81.058 81.825)">
      <use href="#star-small" />
    </g>
    <g transform="translate(73.818 70.815)">
      <use href="#star-small" />
    </g>
    <g transform="translate(86.808 61.865)">
      <use href="#star-small" />
    </g>
    <g transform="translate(96.148 67.045)">
      <use href="#star-small" />
    </g>
    <g transform="translate(75.028 71.045)">
      <use href="#star-small" />
    </g>
    <g transform="translate(81.198 80.445)">
      <use href="#star-small" />
    </g>
    <g transform="translate(94.688 67.235)">
      <use href="#star-small" />
    </g>
    <g transform="translate(86.858 62.895)">
      <use href="#star-small" />
    </g>
    <g transform="translate(95.528 67.565)">
      <use href="#star-small" />
    </g>
    <g transform="translate(95.298 66.715)">
      <use href="#star-small" />
    </g>
    <g transform="translate(119.548 60.055)">
      <use href="#star-small" />
    </g>
    <g transform="translate(136.368 35.685)">
      <use href="#star-small" />
    </g>
    <g transform="translate(137.098 36.185)">
      <use href="#star-small" />
    </g>
    <g transform="translate(120.088 60.815)">
      <use href="#star-small" />
    </g>
    <g transform="translate(119.938 60.855)">
      <use href="#star-small" />
    </g>
    <g transform="translate(121.568 129.665)">
      <use href="#star-small" />
    </g>
    <g transform="translate(114.288 116.485)">
      <use href="#star-small" />
    </g>
    <g transform="translate(121.518 92.275)">
      <use href="#star-small" />
    </g>
    <g transform="translate(119.378 60.465)">
      <use href="#star-small" />
    </g>
    <g transform="translate(120.258 60.405)">
      <use href="#star-small" />
    </g>
    <g transform="translate(122.398 92.365)">
      <use href="#star-small" />
    </g>
    <g transform="translate(122.378 92.445)">
      <use href="#star-small" />
    </g>
    <g transform="translate(115.238 116.375)">
      <use href="#star-small" />
    </g>
    <g transform="translate(122.338 129.245)">
      <use href="#star-small" />
    </g>
    <g transform="translate(138.538 98.185)">
      <use href="#star-small" />
    </g>
    <g transform="translate(121.818 92.735)">
      <use href="#star-small" />
    </g>
    <g transform="translate(122.098 91.905)">
      <use href="#star-small" />
    </g>
    <g transform="translate(138.818 97.345)">
      <use href="#star-small" />
    </g>
  </g>
  <g stroke="#FFFFFF" stroke-width="1.2" stroke-linecap="round" stroke-linejoin="round" opacity="0.85">
    <path d="M63.0075 172.865L29.3075 169.725L29.1975 169.485L12.6375 131.455L5.21753 75.7747L35.0875 54.9846L73.8875 70.2546L68.7075 30.9547L54.6675 18.0746L52.2775 4.51465L53.1375 4.36462L55.4775 17.6346L69.5375 30.5146L69.5575 30.6846L74.9575 71.6146L35.2075 55.9747L6.15753 76.1946L13.5075 131.285L29.9075 168.895L63.0875 171.985L63.0075 172.865Z" fill="none" />
    <path d="M29.8474 169.675L29.3574 168.945L52.6874 153.205L53.1774 153.925L29.8474 169.675Z" fill="none" />
    <path d="M81.0576 81.8246L73.8176 70.8146L86.8076 61.8646L96.1476 67.0447L81.0576 81.8246ZM75.0276 71.0447L81.1976 80.4446L94.6876 67.2346L86.8576 62.8947L75.0276 71.0447Z" fill="none" />
    <path d="M95.5276 67.5646L95.2976 66.7146L119.548 60.0546L136.368 35.6846L137.098 36.1846L120.088 60.8146L119.938 60.8546L95.5276 67.5646Z" fill="none" />
    <path d="M121.568 129.665L114.288 116.485L121.518 92.2747L119.378 60.4647L120.258 60.4047L122.398 92.3646L122.378 92.4446L115.238 116.375L122.338 129.245L121.568 129.665Z" fill="none" />
    <path d="M138.538 98.1846L121.818 92.7346L122.098 91.9047L138.818 97.3447L138.538 98.1846Z" fill="none" />
  </g>
</svg>
