<svg width="145" height="181" viewBox="0 0 145 181" fill="none" xmlns="http://www.w3.org/2000/svg">
    <path style="mix-blend-mode:screen" d="M121.328 110.295C117.908 106.675 112.198 106.505 108.568 109.925C104.958 113.345 104.778 119.055 108.208 122.685C111.628 126.305 117.338 126.475 120.958 123.055C124.578 119.635 124.748 113.925 121.328 110.295Z" fill="url(#paint0_radial_2001_1220)"/>
    <path style="mix-blend-mode:screen" d="M115.918 117.575C110.098 123.755 104.868 128.285 104.238 127.685C103.598 127.095 107.798 121.595 113.608 115.405C119.428 109.225 124.658 104.685 125.298 105.295C125.928 105.885 121.738 111.385 115.918 117.575Z" fill="url(#paint1_radial_2001_1220)"/>
    <path style="mix-blend-mode:screen" d="M125.907 115.775C125.867 115.135 120.857 114.915 114.687 115.275C108.537 115.645 103.577 116.455 103.617 117.095C103.647 117.725 108.677 117.945 114.827 117.575C120.987 117.215 125.947 116.405 125.907 115.775Z" fill="url(#paint2_radial_2001_1220)"/>
    <path style="mix-blend-mode:screen" d="M116.177 127.765C116.687 127.705 116.447 122.575 115.667 116.315C114.887 110.055 113.847 105.025 113.347 105.095C112.847 105.145 113.077 110.275 113.857 116.545C114.647 122.805 115.687 127.825 116.177 127.765Z" fill="url(#paint3_radial_2001_1220)"/>
    <path style="mix-blend-mode:screen" d="M117.957 116.425C117.957 118.195 116.527 119.625 114.767 119.625C112.997 119.625 111.567 118.195 111.567 116.425C111.567 114.665 112.997 113.235 114.767 113.235C116.527 113.235 117.957 114.665 117.957 116.425Z" fill="url(#paint4_radial_2001_1220)"/>
    <path style="mix-blend-mode:screen" d="M93.3975 56.2447C89.9675 52.6247 84.2575 52.4547 80.6375 55.8747C77.0175 59.3047 76.8475 65.0047 80.2675 68.6247C83.6875 72.2547 89.4075 72.4147 93.0275 69.0047C96.6475 65.5747 96.8175 59.8747 93.3975 56.2447Z" fill="url(#paint5_radial_2001_1220)"/>
    <path style="mix-blend-mode:screen" d="M87.9773 63.5247C82.1673 69.7047 76.9373 74.2347 76.2973 73.6447C75.6573 73.0447 79.8573 67.5447 85.6673 61.3547C91.4874 55.1747 96.7173 50.6346 97.3573 51.2346C97.9973 51.8346 93.7973 57.3347 87.9773 63.5247Z" fill="url(#paint6_radial_2001_1220)"/>
    <path style="mix-blend-mode:screen" d="M97.9774 61.7247C97.9374 61.0847 92.9174 60.8647 86.7574 61.2247C80.6074 61.5947 75.6474 62.4047 75.6774 63.0347C75.7174 63.6747 80.7374 63.8947 86.8974 63.5347C93.0574 63.1647 98.0074 62.3547 97.9774 61.7247Z" fill="url(#paint7_radial_2001_1220)"/>
    <path style="mix-blend-mode:screen" d="M88.2474 73.7146C88.7474 73.6546 88.5174 68.5246 87.7374 62.2646C86.9474 56.0046 85.9074 50.9747 85.4074 51.0447C84.9074 51.0947 85.1474 56.2246 85.9174 62.4946C86.7074 68.7546 87.7474 73.7846 88.2474 73.7146Z" fill="url(#paint8_radial_2001_1220)"/>
    <path style="mix-blend-mode:screen" d="M90.0175 62.3846C90.0175 64.1446 88.5975 65.5646 86.8275 65.5646C85.0675 65.5646 83.6375 64.1446 83.6375 62.3846C83.6375 60.6146 85.0675 59.1846 86.8275 59.1846C88.5975 59.1846 90.0175 60.6146 90.0175 62.3846Z" fill="url(#paint9_radial_2001_1220)"/>
    <path style="mix-blend-mode:screen" d="M36.1676 163.115C32.7476 159.485 27.0376 159.315 23.4076 162.735C19.7976 166.165 19.6176 171.865 23.0476 175.495C26.4676 179.115 32.1776 179.285 35.7976 175.865C39.4176 172.445 39.5876 166.735 36.1676 163.115Z" fill="url(#paint10_radial_2001_1220)"/>
    <path style="mix-blend-mode:screen" d="M40.7475 168.585C40.7075 167.945 35.6975 167.725 29.5375 168.095C23.3775 168.455 18.4175 169.265 18.4575 169.905C18.4875 170.535 23.5175 170.755 29.6675 170.395C35.8275 170.025 40.7875 169.215 40.7475 168.585Z" fill="url(#paint11_radial_2001_1220)"/>
    <path style="mix-blend-mode:screen" d="M31.0174 180.575C31.5274 180.515 31.2874 175.395 30.5074 169.125C29.7274 162.865 28.6874 157.835 28.1874 157.905C27.6874 157.965 27.9174 163.095 28.6974 169.355C29.4874 175.615 30.5274 180.645 31.0174 180.575Z" fill="url(#paint12_radial_2001_1220)"/>
    <path style="mix-blend-mode:screen" d="M32.7975 169.245C32.7975 171.015 31.3675 172.435 29.6075 172.435C27.8375 172.435 26.4075 171.015 26.4075 169.245C26.4075 167.485 27.8375 166.045 29.6075 166.045C31.3675 166.045 32.7975 167.485 32.7975 169.245Z" fill="url(#paint13_radial_2001_1220)"/>
    <path style="mix-blend-mode:screen" d="M126.097 125.805C123.937 123.525 120.337 123.425 118.047 125.575C115.777 127.735 115.657 131.335 117.817 133.615C119.977 135.905 123.577 136.005 125.867 133.855C128.147 131.695 128.257 128.095 126.097 125.805Z" fill="url(#paint14_radial_2001_1220)"/>
    <path style="mix-blend-mode:screen" d="M123.967 129.675C123.967 130.795 123.068 131.685 121.958 131.685C120.848 131.685 119.938 130.795 119.938 129.675C119.938 128.565 120.848 127.665 121.958 127.665C123.068 127.665 123.967 128.565 123.967 129.675Z" fill="url(#paint15_radial_2001_1220)"/>
    <path style="mix-blend-mode:screen" d="M142.818 93.8547C140.658 91.5747 137.058 91.4747 134.768 93.6247C132.488 95.7847 132.378 99.3847 134.538 101.665C136.698 103.955 140.298 104.055 142.588 101.895C144.868 99.7447 144.978 96.1447 142.818 93.8547Z" fill="url(#paint16_radial_2001_1220)"/>
    <path style="mix-blend-mode:screen" d="M140.687 97.7247C140.687 98.8347 139.787 99.7347 138.677 99.7347C137.557 99.7347 136.657 98.8347 136.657 97.7247C136.657 96.6147 137.557 95.7147 138.677 95.7147C139.787 95.7147 140.687 96.6147 140.687 97.7247Z" fill="url(#paint17_radial_2001_1220)"/>
    <path style="mix-blend-mode:screen" d="M126.097 88.4147C123.937 86.1347 120.337 86.0246 118.047 88.1846C115.777 90.3346 115.657 93.9347 117.817 96.2247C119.977 98.5047 123.577 98.6146 125.867 96.4546C128.147 94.3046 128.257 90.7047 126.097 88.4147Z" fill="url(#paint18_radial_2001_1220)"/>
    <path style="mix-blend-mode:screen" d="M123.967 92.2847C123.967 93.3947 123.068 94.2947 121.958 94.2947C120.848 94.2947 119.938 93.3947 119.938 92.2847C119.938 91.1747 120.848 90.2646 121.958 90.2646C123.068 90.2646 123.967 91.1747 123.967 92.2847Z" fill="url(#paint19_radial_2001_1220)"/>
    <path style="mix-blend-mode:screen" d="M124.147 56.2146C121.997 53.9346 118.387 53.8245 116.107 55.9845C113.827 58.1445 113.717 61.7446 115.877 64.0246C118.027 66.3146 121.637 66.4146 123.917 64.2646C126.197 62.1046 126.307 58.5046 124.147 56.2146Z" fill="url(#paint20_radial_2001_1220)"/>
    <path style="mix-blend-mode:screen" d="M122.027 60.0846C122.027 61.2046 121.127 62.0946 120.017 62.0946C118.897 62.0946 117.997 61.2046 117.997 60.0846C117.997 58.9746 118.897 58.0746 120.017 58.0746C121.127 58.0746 122.027 58.9746 122.027 60.0846Z" fill="url(#paint21_radial_2001_1220)"/>
    <path style="mix-blend-mode:screen" d="M40.5673 50.4147C37.7373 47.4247 33.0273 47.2847 30.0373 50.1047C27.0573 52.9347 26.9073 57.6446 29.7373 60.6346C32.5573 63.6246 37.2673 63.7646 40.2573 60.9446C43.2473 58.1146 43.3873 53.4047 40.5673 50.4147Z" fill="url(#paint22_radial_2001_1220)"/>
    <path style="mix-blend-mode:screen" d="M36.0674 56.3347C31.4274 61.2647 27.2674 64.8747 26.7574 64.3947C26.2474 63.9147 29.5974 59.5347 34.2274 54.6047C38.8574 49.6847 43.0274 46.0747 43.5374 46.5547C44.0374 47.0247 40.6974 51.4147 36.0674 56.3347Z" fill="url(#paint23_radial_2001_1220)"/>
    <path style="mix-blend-mode:screen" d="M44.3474 54.9347C44.3174 54.4047 40.1774 54.2248 35.0874 54.5248C30.0074 54.8248 25.9174 55.4947 25.9474 56.0147C25.9774 56.5447 30.1274 56.7247 35.1974 56.4247C40.2874 56.1247 44.3774 55.4547 44.3474 54.9347Z" fill="url(#paint24_radial_2001_1220)"/>
    <path style="mix-blend-mode:screen" d="M36.3175 64.8347C36.7375 64.7847 36.5375 60.5547 35.8975 55.3747C35.2475 50.2147 34.3875 46.0647 33.9775 46.1147C33.5675 46.1647 33.7575 50.3947 34.3975 55.5647C35.0475 60.7347 35.9075 64.8847 36.3175 64.8347Z" fill="url(#paint25_radial_2001_1220)"/>
    <path style="mix-blend-mode:screen" d="M37.7773 55.4747C37.7773 56.9347 36.6073 58.1047 35.1473 58.1047C33.6873 58.1047 32.5073 56.9347 32.5073 55.4747C32.5073 54.0247 33.6873 52.8347 35.1473 52.8347C36.6073 52.8347 37.7773 54.0247 37.7773 55.4747Z" fill="url(#paint26_radial_2001_1220)"/>
    <path style="mix-blend-mode:screen" d="M140.797 32.0347C138.637 29.7447 135.037 29.6448 132.747 31.7948C130.477 33.9548 130.367 37.5547 132.527 39.8347C134.677 42.1247 138.287 42.2247 140.567 40.0747C142.847 37.9147 142.957 34.3147 140.797 32.0347Z" fill="url(#paint27_radial_2001_1220)"/>
    <path style="mix-blend-mode:screen" d="M138.667 35.8948C138.667 37.0148 137.767 37.9148 136.657 37.9148C135.547 37.9148 134.647 37.0148 134.647 35.8948C134.647 34.7848 135.547 33.8848 136.657 33.8848C137.767 33.8848 138.667 34.7848 138.667 35.8948Z" fill="url(#paint28_radial_2001_1220)"/>
    <path style="mix-blend-mode:screen" d="M98.6373 64.0946C96.9573 62.3146 94.1473 62.2347 92.3673 63.9147C90.5873 65.5947 90.4973 68.4046 92.1873 70.1846C93.8673 71.9746 96.6773 72.0546 98.4573 70.3746C100.237 68.6846 100.327 65.8846 98.6373 64.0946Z" fill="url(#paint29_radial_2001_1220)"/>
    <path style="mix-blend-mode:screen" d="M96.9874 67.1146C96.9874 67.9846 96.2774 68.6846 95.4074 68.6846C94.5474 68.6846 93.8374 67.9846 93.8374 67.1146C93.8374 66.2446 94.5474 65.5447 95.4074 65.5447C96.2774 65.5447 96.9874 66.2446 96.9874 67.1146Z" fill="url(#paint30_radial_2001_1220)"/>
    <path style="mix-blend-mode:screen" d="M77.6473 67.8547C75.9673 66.0747 73.1574 65.9846 71.3773 67.6746C69.5974 69.3546 69.5073 72.1646 71.1973 73.9446C72.8773 75.7246 75.6873 75.8046 77.4673 74.1346C79.2473 72.4446 79.3373 69.6347 77.6473 67.8547Z" fill="url(#paint31_radial_2001_1220)"/>
    <path style="mix-blend-mode:screen" d="M75.9874 70.8746C75.9874 71.7446 75.2874 72.4446 74.4174 72.4446C73.5574 72.4446 72.8474 71.7446 72.8474 70.8746C72.8474 70.0046 73.5574 69.2947 74.4174 69.2947C75.2874 69.2947 75.9874 70.0046 75.9874 70.8746Z" fill="url(#paint32_radial_2001_1220)"/>
    <path style="mix-blend-mode:screen" d="M73.2575 26.8347C71.0975 24.5447 67.4975 24.4447 65.2175 26.5947C62.9375 28.7547 62.8275 32.3547 64.9875 34.6347C67.1375 36.9247 70.7475 37.0247 73.0275 34.8747C75.3075 32.7147 75.4175 29.1147 73.2575 26.8347Z" fill="url(#paint33_radial_2001_1220)"/>
    <path style="mix-blend-mode:screen" d="M71.1374 30.7046C71.1374 31.8146 70.2274 32.7146 69.1174 32.7146C68.0074 32.7146 67.1074 31.8146 67.1074 30.7046C67.1074 29.5846 68.0074 28.6846 69.1174 28.6846C70.2274 28.6846 71.1374 29.5846 71.1374 30.7046Z" fill="url(#paint34_radial_2001_1220)"/>
    <path style="mix-blend-mode:screen" d="M9.82744 72.0847C7.66744 69.8047 4.06744 69.6947 1.77744 71.8547C-0.492559 74.0047 -0.612561 77.6047 1.55744 79.8847C3.70744 82.1747 7.30744 82.2847 9.59744 80.1247C11.8774 77.9647 11.9874 74.3647 9.82744 72.0847Z" fill="url(#paint35_radial_2001_1220)"/>
    <path style="mix-blend-mode:screen" d="M7.69749 75.9546C7.69749 77.0646 6.79749 77.9646 5.68749 77.9646C4.57749 77.9646 3.67749 77.0646 3.67749 75.9546C3.67749 74.8346 4.57749 73.9346 5.68749 73.9346C6.79749 73.9346 7.69749 74.8346 7.69749 75.9546Z" fill="url(#paint36_radial_2001_1220)"/>
    <path style="mix-blend-mode:screen" d="M17.2174 127.785C15.0574 125.495 11.4574 125.395 9.16745 127.555C6.88745 129.705 6.77745 133.305 8.93745 135.595C11.0975 137.875 14.6974 137.975 16.9874 135.825C19.2674 133.665 19.3774 130.065 17.2174 127.785Z" fill="url(#paint37_radial_2001_1220)"/>
    <path style="mix-blend-mode:screen" d="M15.0874 131.655C15.0874 132.765 14.1874 133.665 13.0774 133.665C11.9574 133.665 11.0574 132.765 11.0574 131.655C11.0574 130.545 11.9574 129.635 13.0774 129.635C14.1874 129.635 15.0874 130.545 15.0874 131.655Z" fill="url(#paint38_radial_2001_1220)"/>
    <path style="mix-blend-mode:screen" d="M57.0676 149.655C54.9076 147.375 51.3076 147.275 49.0276 149.425C46.7476 151.585 46.6376 155.185 48.7976 157.465C50.9476 159.755 54.5576 159.855 56.8376 157.705C59.1176 155.545 59.2276 151.945 57.0676 149.655Z" fill="url(#paint39_radial_2001_1220)"/>
    <path style="mix-blend-mode:screen" d="M54.9475 153.525C54.9475 154.645 54.0475 155.545 52.9275 155.545C51.8175 155.545 50.9175 154.645 50.9175 153.525C50.9175 152.415 51.8175 151.515 52.9275 151.515C54.0475 151.515 54.9475 152.415 54.9475 153.525Z" fill="url(#paint40_radial_2001_1220)"/>
    <path style="mix-blend-mode:screen" d="M67.1774 168.515C65.0274 166.235 61.4174 166.125 59.1374 168.285C56.8574 170.445 56.7474 174.045 58.9074 176.325C61.0674 178.615 64.6674 178.715 66.9474 176.555C69.2374 174.405 69.3374 170.805 67.1774 168.515Z" fill="url(#paint41_radial_2001_1220)"/>
    <path style="mix-blend-mode:screen" d="M65.0574 172.385C65.0574 173.495 64.1573 174.395 63.0473 174.395C61.9273 174.395 61.0273 173.495 61.0273 172.385C61.0273 171.275 61.9273 170.375 63.0473 170.375C64.1573 170.375 65.0574 171.275 65.0574 172.385Z" fill="url(#paint42_radial_2001_1220)"/>
    <path style="mix-blend-mode:screen" d="M84.3574 78.0946C82.6774 76.3146 79.8674 76.2246 78.0774 77.9046C76.3074 79.5946 76.2174 82.4045 77.8974 84.1845C79.5874 85.9645 82.3974 86.0545 84.1774 84.3645C85.9574 82.6845 86.0374 79.8746 84.3574 78.0946Z" fill="url(#paint43_radial_2001_1220)"/>
    <path style="mix-blend-mode:screen" d="M82.6974 81.1146C82.6974 81.9746 81.9974 82.6746 81.1274 82.6746C80.2574 82.6746 79.5574 81.9746 79.5574 81.1146C79.5574 80.2446 80.2574 79.5347 81.1274 79.5347C81.9974 79.5347 82.6974 80.2446 82.6974 81.1146Z" fill="url(#paint44_radial_2001_1220)"/>
    <path style="mix-blend-mode:screen" d="M58.2975 14.8046C56.6175 13.0246 53.8075 12.9446 52.0275 14.6246C50.2475 16.3046 50.1575 19.1146 51.8475 20.8946C53.5275 22.6846 56.3375 22.7646 58.1175 21.0846C59.8975 19.3946 59.9875 16.5946 58.2975 14.8046Z" fill="url(#paint45_radial_2001_1220)"/>
    <path style="mix-blend-mode:screen" d="M56.6476 17.8246C56.6476 18.6946 55.9376 19.3947 55.0676 19.3947C54.2076 19.3947 53.4976 18.6946 53.4976 17.8246C53.4976 16.9546 54.2076 16.2546 55.0676 16.2546C55.9376 16.2546 56.6476 16.9546 56.6476 17.8246Z" fill="url(#paint46_radial_2001_1220)"/>
    <path style="mix-blend-mode:screen" d="M55.9374 1.39462C54.2474 -0.385375 51.4374 -0.475378 49.6574 1.20462C47.8774 2.89462 47.7974 5.70459 49.4774 7.48459C51.1574 9.26459 53.9674 9.34464 55.7574 7.66464C57.5374 5.98464 57.6174 3.17462 55.9374 1.39462Z" fill="url(#paint47_radial_2001_1220)"/>
    <path style="mix-blend-mode:screen" d="M54.2774 4.40472C54.2774 5.27472 53.5674 5.97473 52.7074 5.97473C51.8374 5.97473 51.1274 5.27472 51.1274 4.40472C51.1274 3.54472 51.8374 2.83472 52.7074 2.83472C53.5674 2.83472 54.2774 3.54472 54.2774 4.40472Z" fill="url(#paint48_radial_2001_1220)"/>
    <path d="M63.0075 172.865L29.3075 169.725L29.1975 169.485L12.6375 131.455L5.21753 75.7747L35.0875 54.9846L73.8875 70.2546L68.7075 30.9547L54.6675 18.0746L52.2775 4.51465L53.1375 4.36462L55.4775 17.6346L69.5375 30.5146L69.5575 30.6846L74.9575 71.6146L35.2075 55.9747L6.15753 76.1946L13.5075 131.285L29.9075 168.895L63.0875 171.985L63.0075 172.865Z" fill="white"/>
    <path d="M29.8474 169.675L29.3574 168.945L52.6874 153.205L53.1774 153.925L29.8474 169.675Z" fill="white"/>
    <path fill-rule="evenodd" clip-rule="evenodd" d="M81.0576 81.8246L73.8176 70.8146L86.8076 61.8646L96.1476 67.0447L81.0576 81.8246ZM75.0276 71.0447L81.1976 80.4446L94.6876 67.2346L86.8576 62.8947L75.0276 71.0447Z" fill="white"/>
    <path d="M95.5276 67.5646L95.2976 66.7146L119.548 60.0546L136.368 35.6846L137.098 36.1846L120.088 60.8146L119.938 60.8546L95.5276 67.5646Z" fill="white"/>
    <path d="M121.568 129.665L114.288 116.485L121.518 92.2747L119.378 60.4647L120.258 60.4047L122.398 92.3646L122.378 92.4446L115.238 116.375L122.338 129.245L121.568 129.665Z" fill="white"/>
    <path d="M138.538 98.1846L121.818 92.7346L122.098 91.9047L138.818 97.3447L138.538 98.1846Z" fill="white"/>
    <defs>
        <radialGradient id="paint0_radial_2001_1220" cx="0" cy="0" r="1" gradientUnits="userSpaceOnUse" gradientTransform="translate(114.765 116.487) rotate(-43.3429) scale(9.02291)">
            <stop offset="0.099" stop-color="white"/>
            <stop offset="0.363" stop-color="#7A7A7A"/>
            <stop offset="0.572" stop-color="#2A2A2A"/>
            <stop offset="0.663" stop-color="#161616"/>
            <stop offset="0.826" stop-color="#000505"/>
            <stop offset="0.964"/>
        </radialGradient>
        <radialGradient id="paint1_radial_2001_1220" cx="0" cy="0" r="1" gradientTransform="matrix(1.154 1.085 -1.085 1.154 114.766 116.488)" gradientUnits="userSpaceOnUse">
            <stop stop-color="white"/>
            <stop offset="0.102" stop-color="#D9D9D9"/>
            <stop offset="0.168" stop-color="#AAAAAA"/>
            <stop offset="0.255" stop-color="#7A7A7A"/>
            <stop offset="0.408" stop-color="#424242"/>
            <stop offset="0.515" stop-color="#2A2A2A"/>
            <stop offset="0.663" stop-color="#161616"/>
            <stop offset="0.826" stop-color="#000505"/>
            <stop offset="0.964"/>
        </radialGradient>
        <radialGradient id="paint2_radial_2001_1220" cx="0" cy="0" r="1" gradientUnits="userSpaceOnUse" gradientTransform="translate(114.762 116.429) rotate(-3.39057) scale(11.1595 11.1595)">
            <stop stop-color="white"/>
            <stop offset="0.102" stop-color="#D9D9D9"/>
            <stop offset="0.168" stop-color="#AAAAAA"/>
            <stop offset="0.255" stop-color="#7A7A7A"/>
            <stop offset="0.408" stop-color="#424242"/>
            <stop offset="0.515" stop-color="#2A2A2A"/>
            <stop offset="0.663" stop-color="#161616"/>
            <stop offset="0.826" stop-color="#000505"/>
            <stop offset="0.964"/>
        </radialGradient>
        <radialGradient id="paint3_radial_2001_1220" cx="0" cy="0" r="1" gradientUnits="userSpaceOnUse" gradientTransform="translate(114.761 116.43) rotate(82.8756) scale(11.4413 11.4413)">
            <stop stop-color="white"/>
            <stop offset="0.102" stop-color="#D9D9D9"/>
            <stop offset="0.168" stop-color="#AAAAAA"/>
            <stop offset="0.255" stop-color="#7A7A7A"/>
            <stop offset="0.408" stop-color="#424242"/>
            <stop offset="0.515" stop-color="#2A2A2A"/>
            <stop offset="0.663" stop-color="#161616"/>
            <stop offset="0.826" stop-color="#000505"/>
            <stop offset="0.964"/>
        </radialGradient>
        <radialGradient id="paint4_radial_2001_1220" cx="0" cy="0" r="1" gradientUnits="userSpaceOnUse" gradientTransform="translate(114.762 116.43) scale(3.193 3.19301)">
            <stop offset="0.324" stop-color="white"/>
            <stop offset="0.561" stop-color="#C6C6C6"/>
            <stop offset="0.731" stop-color="#6A6A6A"/>
            <stop offset="0.874" stop-color="#000505"/>
            <stop offset="0.964"/>
        </radialGradient>
        <radialGradient id="paint5_radial_2001_1220" cx="0" cy="0" r="1" gradientUnits="userSpaceOnUse" gradientTransform="translate(86.8305 62.4367) rotate(-43.3429) scale(9.02292)">
            <stop offset="0.099" stop-color="white"/>
            <stop offset="0.363" stop-color="#7A7A7A"/>
            <stop offset="0.572" stop-color="#2A2A2A"/>
            <stop offset="0.663" stop-color="#161616"/>
            <stop offset="0.826" stop-color="#000505"/>
            <stop offset="0.964"/>
        </radialGradient>
        <radialGradient id="paint6_radial_2001_1220" cx="0" cy="0" r="1" gradientTransform="matrix(1.155 1.085 -1.085 1.155 86.8263 62.4377)" gradientUnits="userSpaceOnUse">
            <stop stop-color="white"/>
            <stop offset="0.102" stop-color="#D9D9D9"/>
            <stop offset="0.168" stop-color="#AAAAAA"/>
            <stop offset="0.255" stop-color="#7A7A7A"/>
            <stop offset="0.408" stop-color="#424242"/>
            <stop offset="0.515" stop-color="#2A2A2A"/>
            <stop offset="0.663" stop-color="#161616"/>
            <stop offset="0.826" stop-color="#000505"/>
            <stop offset="0.964"/>
        </radialGradient>
        <radialGradient id="paint7_radial_2001_1220" cx="0" cy="0" r="1" gradientUnits="userSpaceOnUse" gradientTransform="translate(86.8284 62.3787) rotate(-3.38906) scale(11.1645 11.1645)">
            <stop stop-color="white"/>
            <stop offset="0.102" stop-color="#D9D9D9"/>
            <stop offset="0.168" stop-color="#AAAAAA"/>
            <stop offset="0.255" stop-color="#7A7A7A"/>
            <stop offset="0.408" stop-color="#424242"/>
            <stop offset="0.515" stop-color="#2A2A2A"/>
            <stop offset="0.663" stop-color="#161616"/>
            <stop offset="0.826" stop-color="#000505"/>
            <stop offset="0.964"/>
        </radialGradient>
        <radialGradient id="paint8_radial_2001_1220" cx="0" cy="0" r="1" gradientUnits="userSpaceOnUse" gradientTransform="translate(86.8274 62.3787) rotate(82.8725) scale(11.4444)">
            <stop stop-color="white"/>
            <stop offset="0.102" stop-color="#D9D9D9"/>
            <stop offset="0.168" stop-color="#AAAAAA"/>
            <stop offset="0.255" stop-color="#7A7A7A"/>
            <stop offset="0.408" stop-color="#424242"/>
            <stop offset="0.515" stop-color="#2A2A2A"/>
            <stop offset="0.663" stop-color="#161616"/>
            <stop offset="0.826" stop-color="#000505"/>
            <stop offset="0.964"/>
        </radialGradient>
        <radialGradient id="paint9_radial_2001_1220" cx="0" cy="0" r="1" gradientUnits="userSpaceOnUse" gradientTransform="translate(86.8285 62.3766) scale(3.193)">
            <stop offset="0.324" stop-color="white"/>
            <stop offset="0.561" stop-color="#C6C6C6"/>
            <stop offset="0.731" stop-color="#6A6A6A"/>
            <stop offset="0.874" stop-color="#000505"/>
            <stop offset="0.964"/>
        </radialGradient>
        <radialGradient id="paint10_radial_2001_1220" cx="0" cy="0" r="1" gradientUnits="userSpaceOnUse" gradientTransform="translate(29.6046 169.3) rotate(-43.3429) scale(9.02292)">
            <stop offset="0.099" stop-color="white"/>
            <stop offset="0.363" stop-color="#7A7A7A"/>
            <stop offset="0.572" stop-color="#2A2A2A"/>
            <stop offset="0.663" stop-color="#161616"/>
            <stop offset="0.826" stop-color="#000505"/>
            <stop offset="0.964"/>
        </radialGradient>
        <radialGradient id="paint11_radial_2001_1220" cx="0" cy="0" r="1" gradientUnits="userSpaceOnUse" gradientTransform="translate(29.6025 169.243) rotate(-3.38905) scale(11.1645 11.1645)">
            <stop stop-color="white"/>
            <stop offset="0.102" stop-color="#D9D9D9"/>
            <stop offset="0.168" stop-color="#AAAAAA"/>
            <stop offset="0.255" stop-color="#7A7A7A"/>
            <stop offset="0.408" stop-color="#424242"/>
            <stop offset="0.515" stop-color="#2A2A2A"/>
            <stop offset="0.663" stop-color="#161616"/>
            <stop offset="0.826" stop-color="#000505"/>
            <stop offset="0.964"/>
        </radialGradient>
        <radialGradient id="paint12_radial_2001_1220" cx="0" cy="0" r="1" gradientUnits="userSpaceOnUse" gradientTransform="translate(29.6014 169.242) rotate(82.875) scale(11.4403 11.4403)">
            <stop stop-color="white"/>
            <stop offset="0.102" stop-color="#D9D9D9"/>
            <stop offset="0.168" stop-color="#AAAAAA"/>
            <stop offset="0.255" stop-color="#7A7A7A"/>
            <stop offset="0.408" stop-color="#424242"/>
            <stop offset="0.515" stop-color="#2A2A2A"/>
            <stop offset="0.663" stop-color="#161616"/>
            <stop offset="0.826" stop-color="#000505"/>
            <stop offset="0.964"/>
        </radialGradient>
        <radialGradient id="paint13_radial_2001_1220" cx="0" cy="0" r="1" gradientUnits="userSpaceOnUse" gradientTransform="translate(29.6025 169.241) scale(3.193 3.19298)">
            <stop offset="0.324" stop-color="white"/>
            <stop offset="0.561" stop-color="#C6C6C6"/>
            <stop offset="0.731" stop-color="#6A6A6A"/>
            <stop offset="0.874" stop-color="#000505"/>
            <stop offset="0.964"/>
        </radialGradient>
        <radialGradient id="paint14_radial_2001_1220" cx="0" cy="0" r="1" gradientTransform="matrix(4.138 -3.905 3.905 4.13801 121.957 129.713)" gradientUnits="userSpaceOnUse">
            <stop offset="0.099" stop-color="white"/>
            <stop offset="0.363" stop-color="#7A7A7A"/>
            <stop offset="0.572" stop-color="#2A2A2A"/>
            <stop offset="0.663" stop-color="#161616"/>
            <stop offset="0.826" stop-color="#000505"/>
            <stop offset="0.964"/>
        </radialGradient>
        <radialGradient id="paint15_radial_2001_1220" cx="0" cy="0" r="1" gradientUnits="userSpaceOnUse" gradientTransform="translate(121.955 129.676) scale(2.013 2.01298)">
            <stop offset="0.324" stop-color="white"/>
            <stop offset="0.561" stop-color="#C6C6C6"/>
            <stop offset="0.731" stop-color="#6A6A6A"/>
            <stop offset="0.874" stop-color="#000505"/>
            <stop offset="0.964"/>
        </radialGradient>
        <radialGradient id="paint16_radial_2001_1220" cx="0" cy="0" r="1" gradientTransform="matrix(4.138 -3.905 3.905 4.138 138.677 97.7617)" gradientUnits="userSpaceOnUse">
            <stop offset="0.099" stop-color="white"/>
            <stop offset="0.363" stop-color="#7A7A7A"/>
            <stop offset="0.572" stop-color="#2A2A2A"/>
            <stop offset="0.663" stop-color="#161616"/>
            <stop offset="0.826" stop-color="#000505"/>
            <stop offset="0.964"/>
        </radialGradient>
        <radialGradient id="paint17_radial_2001_1220" cx="0" cy="0" r="1" gradientUnits="userSpaceOnUse" gradientTransform="translate(138.675 97.7247) scale(2.013 2.01298)">
            <stop offset="0.324" stop-color="white"/>
            <stop offset="0.561" stop-color="#C6C6C6"/>
            <stop offset="0.731" stop-color="#6A6A6A"/>
            <stop offset="0.874" stop-color="#000505"/>
            <stop offset="0.964"/>
        </radialGradient>
        <radialGradient id="paint18_radial_2001_1220" cx="0" cy="0" r="1" gradientTransform="matrix(4.137 -3.905 3.905 4.137 121.957 92.3176)" gradientUnits="userSpaceOnUse">
            <stop offset="0.099" stop-color="white"/>
            <stop offset="0.363" stop-color="#7A7A7A"/>
            <stop offset="0.572" stop-color="#2A2A2A"/>
            <stop offset="0.663" stop-color="#161616"/>
            <stop offset="0.826" stop-color="#000505"/>
            <stop offset="0.964"/>
        </radialGradient>
        <radialGradient id="paint19_radial_2001_1220" cx="0" cy="0" r="1" gradientUnits="userSpaceOnUse" gradientTransform="translate(121.955 92.2807) scale(2.012 2.01201)">
            <stop offset="0.324" stop-color="white"/>
            <stop offset="0.561" stop-color="#C6C6C6"/>
            <stop offset="0.731" stop-color="#6A6A6A"/>
            <stop offset="0.874" stop-color="#000505"/>
            <stop offset="0.964"/>
        </radialGradient>
        <radialGradient id="paint20_radial_2001_1220" cx="0" cy="0" r="1" gradientTransform="matrix(4.138 -3.905 3.905 4.13801 120.013 60.1216)" gradientUnits="userSpaceOnUse">
            <stop offset="0.099" stop-color="white"/>
            <stop offset="0.363" stop-color="#7A7A7A"/>
            <stop offset="0.572" stop-color="#2A2A2A"/>
            <stop offset="0.663" stop-color="#161616"/>
            <stop offset="0.826" stop-color="#000505"/>
            <stop offset="0.964"/>
        </radialGradient>
        <radialGradient id="paint21_radial_2001_1220" cx="0" cy="0" r="1" gradientUnits="userSpaceOnUse" gradientTransform="translate(120.011 60.0846) scale(2.013 2.01301)">
            <stop offset="0.324" stop-color="white"/>
            <stop offset="0.561" stop-color="#C6C6C6"/>
            <stop offset="0.731" stop-color="#6A6A6A"/>
            <stop offset="0.874" stop-color="#000505"/>
            <stop offset="0.964"/>
        </radialGradient>
        <radialGradient id="paint22_radial_2001_1220" cx="0" cy="0" r="1" gradientTransform="matrix(5.416 -5.11099 5.111 5.41599 35.1483 55.5226)" gradientUnits="userSpaceOnUse">
            <stop offset="0.099" stop-color="white"/>
            <stop offset="0.363" stop-color="#7A7A7A"/>
            <stop offset="0.572" stop-color="#2A2A2A"/>
            <stop offset="0.663" stop-color="#161616"/>
            <stop offset="0.826" stop-color="#000505"/>
            <stop offset="0.964"/>
        </radialGradient>
        <radialGradient id="paint23_radial_2001_1220" cx="0" cy="0" r="1" gradientTransform="matrix(0.919 0.864001 -0.864 0.919001 35.1444 55.4717)" gradientUnits="userSpaceOnUse">
            <stop stop-color="white"/>
            <stop offset="0.102" stop-color="#D9D9D9"/>
            <stop offset="0.168" stop-color="#AAAAAA"/>
            <stop offset="0.255" stop-color="#7A7A7A"/>
            <stop offset="0.408" stop-color="#424242"/>
            <stop offset="0.515" stop-color="#2A2A2A"/>
            <stop offset="0.663" stop-color="#161616"/>
            <stop offset="0.826" stop-color="#000505"/>
            <stop offset="0.964"/>
        </radialGradient>
        <radialGradient id="paint24_radial_2001_1220" cx="0" cy="0" r="1" gradientTransform="matrix(9.198 -0.544994 0.545 9.1979 35.1454 55.4747)" gradientUnits="userSpaceOnUse">
            <stop stop-color="white"/>
            <stop offset="0.102" stop-color="#D9D9D9"/>
            <stop offset="0.168" stop-color="#AAAAAA"/>
            <stop offset="0.255" stop-color="#7A7A7A"/>
            <stop offset="0.408" stop-color="#424242"/>
            <stop offset="0.515" stop-color="#2A2A2A"/>
            <stop offset="0.663" stop-color="#161616"/>
            <stop offset="0.826" stop-color="#000505"/>
            <stop offset="0.964"/>
        </radialGradient>
        <radialGradient id="paint25_radial_2001_1220" cx="0" cy="0" r="1" gradientUnits="userSpaceOnUse" gradientTransform="translate(35.1455 55.4737) rotate(82.8743) scale(9.44799 9.44797)">
            <stop stop-color="white"/>
            <stop offset="0.102" stop-color="#D9D9D9"/>
            <stop offset="0.168" stop-color="#AAAAAA"/>
            <stop offset="0.255" stop-color="#7A7A7A"/>
            <stop offset="0.408" stop-color="#424242"/>
            <stop offset="0.515" stop-color="#2A2A2A"/>
            <stop offset="0.663" stop-color="#161616"/>
            <stop offset="0.826" stop-color="#000505"/>
            <stop offset="0.964"/>
        </radialGradient>
        <radialGradient id="paint26_radial_2001_1220" cx="0" cy="0" r="1" gradientUnits="userSpaceOnUse" gradientTransform="translate(35.1463 55.4727) scale(2.635 2.63501)">
            <stop offset="0.324" stop-color="white"/>
            <stop offset="0.561" stop-color="#C6C6C6"/>
            <stop offset="0.731" stop-color="#6A6A6A"/>
            <stop offset="0.874" stop-color="#000505"/>
            <stop offset="0.964"/>
        </radialGradient>
        <radialGradient id="paint27_radial_2001_1220" cx="0" cy="0" r="1" gradientTransform="matrix(4.138 -3.90499 3.905 4.13799 136.66 35.9337)" gradientUnits="userSpaceOnUse">
            <stop offset="0.099" stop-color="white"/>
            <stop offset="0.363" stop-color="#7A7A7A"/>
            <stop offset="0.572" stop-color="#2A2A2A"/>
            <stop offset="0.663" stop-color="#161616"/>
            <stop offset="0.826" stop-color="#000505"/>
            <stop offset="0.964"/>
        </radialGradient>
        <radialGradient id="paint28_radial_2001_1220" cx="0" cy="0" r="1" gradientUnits="userSpaceOnUse" gradientTransform="translate(136.658 35.8978) scale(2.01399 2.01401)">
            <stop offset="0.324" stop-color="white"/>
            <stop offset="0.561" stop-color="#C6C6C6"/>
            <stop offset="0.731" stop-color="#6A6A6A"/>
            <stop offset="0.874" stop-color="#000505"/>
            <stop offset="0.964"/>
        </radialGradient>
        <radialGradient id="paint29_radial_2001_1220" cx="0" cy="0" r="1" gradientTransform="matrix(3.229 -3.04699 3.047 3.22899 95.4143 67.1416)" gradientUnits="userSpaceOnUse">
            <stop offset="0.099" stop-color="white"/>
            <stop offset="0.363" stop-color="#7A7A7A"/>
            <stop offset="0.572" stop-color="#2A2A2A"/>
            <stop offset="0.663" stop-color="#161616"/>
            <stop offset="0.826" stop-color="#000505"/>
            <stop offset="0.964"/>
        </radialGradient>
        <radialGradient id="paint30_radial_2001_1220" cx="0" cy="0" r="1" gradientUnits="userSpaceOnUse" gradientTransform="translate(95.4124 67.1137) scale(1.572 1.57198)">
            <stop offset="0.324" stop-color="white"/>
            <stop offset="0.561" stop-color="#C6C6C6"/>
            <stop offset="0.731" stop-color="#6A6A6A"/>
            <stop offset="0.874" stop-color="#000505"/>
            <stop offset="0.964"/>
        </radialGradient>
        <radialGradient id="paint31_radial_2001_1220" cx="0" cy="0" r="1" gradientUnits="userSpaceOnUse" gradientTransform="translate(74.4233 70.8996) rotate(-43.3478) scale(4.43894)">
            <stop offset="0.099" stop-color="white"/>
            <stop offset="0.363" stop-color="#7A7A7A"/>
            <stop offset="0.572" stop-color="#2A2A2A"/>
            <stop offset="0.663" stop-color="#161616"/>
            <stop offset="0.826" stop-color="#000505"/>
            <stop offset="0.964"/>
        </radialGradient>
        <radialGradient id="paint32_radial_2001_1220" cx="0" cy="0" r="1" gradientUnits="userSpaceOnUse" gradientTransform="translate(74.4204 70.8707) scale(1.572 1.57198)">
            <stop offset="0.324" stop-color="white"/>
            <stop offset="0.561" stop-color="#C6C6C6"/>
            <stop offset="0.731" stop-color="#6A6A6A"/>
            <stop offset="0.874" stop-color="#000505"/>
            <stop offset="0.964"/>
        </radialGradient>
        <radialGradient id="paint33_radial_2001_1220" cx="0" cy="0" r="1" gradientTransform="matrix(4.137 -3.90499 3.905 4.13699 69.1215 30.7357)" gradientUnits="userSpaceOnUse">
            <stop offset="0.099" stop-color="white"/>
            <stop offset="0.363" stop-color="#7A7A7A"/>
            <stop offset="0.572" stop-color="#2A2A2A"/>
            <stop offset="0.663" stop-color="#161616"/>
            <stop offset="0.826" stop-color="#000505"/>
            <stop offset="0.964"/>
        </radialGradient>
        <radialGradient id="paint34_radial_2001_1220" cx="0" cy="0" r="1" gradientUnits="userSpaceOnUse" gradientTransform="translate(69.1194 30.6976) scale(2.013 2.01301)">
            <stop offset="0.324" stop-color="white"/>
            <stop offset="0.561" stop-color="#C6C6C6"/>
            <stop offset="0.731" stop-color="#6A6A6A"/>
            <stop offset="0.874" stop-color="#000505"/>
            <stop offset="0.964"/>
        </radialGradient>
        <radialGradient id="paint35_radial_2001_1220" cx="0" cy="0" r="1" gradientTransform="matrix(4.137 -3.90499 3.905 4.13699 5.69044 75.9867)" gradientUnits="userSpaceOnUse">
            <stop offset="0.099" stop-color="white"/>
            <stop offset="0.363" stop-color="#7A7A7A"/>
            <stop offset="0.572" stop-color="#2A2A2A"/>
            <stop offset="0.663" stop-color="#161616"/>
            <stop offset="0.826" stop-color="#000505"/>
            <stop offset="0.964"/>
        </radialGradient>
        <radialGradient id="paint36_radial_2001_1220" cx="0" cy="0" r="1" gradientUnits="userSpaceOnUse" gradientTransform="translate(5.68749 75.9506) scale(2.014 2.01401)">
            <stop offset="0.324" stop-color="white"/>
            <stop offset="0.561" stop-color="#C6C6C6"/>
            <stop offset="0.731" stop-color="#6A6A6A"/>
            <stop offset="0.874" stop-color="#000505"/>
            <stop offset="0.964"/>
        </radialGradient>
        <radialGradient id="paint37_radial_2001_1220" cx="0" cy="0" r="1" gradientUnits="userSpaceOnUse" gradientTransform="translate(13.0764 131.686) rotate(-43.3407) scale(5.68965)">
            <stop offset="0.099" stop-color="white"/>
            <stop offset="0.363" stop-color="#7A7A7A"/>
            <stop offset="0.572" stop-color="#2A2A2A"/>
            <stop offset="0.663" stop-color="#161616"/>
            <stop offset="0.826" stop-color="#000505"/>
            <stop offset="0.964"/>
        </radialGradient>
        <radialGradient id="paint38_radial_2001_1220" cx="0" cy="0" r="1" gradientUnits="userSpaceOnUse" gradientTransform="translate(13.0744 131.65) scale(2.014 2.01401)">
            <stop offset="0.324" stop-color="white"/>
            <stop offset="0.561" stop-color="#C6C6C6"/>
            <stop offset="0.731" stop-color="#6A6A6A"/>
            <stop offset="0.874" stop-color="#000505"/>
            <stop offset="0.964"/>
        </radialGradient>
        <radialGradient id="paint39_radial_2001_1220" cx="0" cy="0" r="1" gradientTransform="matrix(4.138 -3.90501 3.905 4.13801 52.9336 153.563)" gradientUnits="userSpaceOnUse">
            <stop offset="0.099" stop-color="white"/>
            <stop offset="0.363" stop-color="#7A7A7A"/>
            <stop offset="0.572" stop-color="#2A2A2A"/>
            <stop offset="0.663" stop-color="#161616"/>
            <stop offset="0.826" stop-color="#000505"/>
            <stop offset="0.964"/>
        </radialGradient>
        <radialGradient id="paint40_radial_2001_1220" cx="0" cy="0" r="1" gradientUnits="userSpaceOnUse" gradientTransform="translate(52.9315 153.527) scale(2.014 2.01401)">
            <stop offset="0.324" stop-color="white"/>
            <stop offset="0.561" stop-color="#C6C6C6"/>
            <stop offset="0.731" stop-color="#6A6A6A"/>
            <stop offset="0.874" stop-color="#000505"/>
            <stop offset="0.964"/>
        </radialGradient>
        <radialGradient id="paint41_radial_2001_1220" cx="0" cy="0" r="1" gradientTransform="matrix(4.138 -3.90499 3.905 4.13799 63.0444 172.42)" gradientUnits="userSpaceOnUse">
            <stop offset="0.099" stop-color="white"/>
            <stop offset="0.363" stop-color="#7A7A7A"/>
            <stop offset="0.572" stop-color="#2A2A2A"/>
            <stop offset="0.663" stop-color="#161616"/>
            <stop offset="0.826" stop-color="#000505"/>
            <stop offset="0.964"/>
        </radialGradient>
        <radialGradient id="paint42_radial_2001_1220" cx="0" cy="0" r="1" gradientUnits="userSpaceOnUse" gradientTransform="translate(63.0423 172.384) scale(2.014 2.01401)">
            <stop offset="0.324" stop-color="white"/>
            <stop offset="0.561" stop-color="#C6C6C6"/>
            <stop offset="0.731" stop-color="#6A6A6A"/>
            <stop offset="0.874" stop-color="#000505"/>
            <stop offset="0.964"/>
        </radialGradient>
        <radialGradient id="paint43_radial_2001_1220" cx="0" cy="0" r="1" gradientTransform="matrix(3.228 -3.04699 3.047 3.22799 81.1274 81.1376)" gradientUnits="userSpaceOnUse">
            <stop offset="0.099" stop-color="white"/>
            <stop offset="0.363" stop-color="#7A7A7A"/>
            <stop offset="0.572" stop-color="#2A2A2A"/>
            <stop offset="0.663" stop-color="#161616"/>
            <stop offset="0.826" stop-color="#000505"/>
            <stop offset="0.964"/>
        </radialGradient>
        <radialGradient id="paint44_radial_2001_1220" cx="0" cy="0" r="1" gradientUnits="userSpaceOnUse" gradientTransform="translate(81.1274 81.1086) scale(1.571 1.57098)">
            <stop offset="0.324" stop-color="white"/>
            <stop offset="0.561" stop-color="#C6C6C6"/>
            <stop offset="0.731" stop-color="#6A6A6A"/>
            <stop offset="0.874" stop-color="#000505"/>
            <stop offset="0.964"/>
        </radialGradient>
        <radialGradient id="paint45_radial_2001_1220" cx="0" cy="0" r="1" gradientTransform="matrix(3.228 -3.04701 3.047 3.22801 55.0745 17.8526)" gradientUnits="userSpaceOnUse">
            <stop offset="0.099" stop-color="white"/>
            <stop offset="0.363" stop-color="#7A7A7A"/>
            <stop offset="0.572" stop-color="#2A2A2A"/>
            <stop offset="0.663" stop-color="#161616"/>
            <stop offset="0.826" stop-color="#000505"/>
            <stop offset="0.964"/>
        </radialGradient>
        <radialGradient id="paint46_radial_2001_1220" cx="0" cy="0" r="1" gradientUnits="userSpaceOnUse" gradientTransform="translate(55.0716 17.8246) scale(1.572 1.57201)">
            <stop offset="0.324" stop-color="white"/>
            <stop offset="0.561" stop-color="#C6C6C6"/>
            <stop offset="0.731" stop-color="#6A6A6A"/>
            <stop offset="0.874" stop-color="#000505"/>
            <stop offset="0.964"/>
        </radialGradient>
        <radialGradient id="paint47_radial_2001_1220" cx="0" cy="0" r="1" gradientUnits="userSpaceOnUse" gradientTransform="translate(52.7054 4.43562) rotate(-43.3478) scale(4.43894)">
            <stop offset="0.099" stop-color="white"/>
            <stop offset="0.363" stop-color="#7A7A7A"/>
            <stop offset="0.572" stop-color="#2A2A2A"/>
            <stop offset="0.663" stop-color="#161616"/>
            <stop offset="0.826" stop-color="#000505"/>
            <stop offset="0.964"/>
        </radialGradient>
        <radialGradient id="paint48_radial_2001_1220" cx="0" cy="0" r="1" gradientUnits="userSpaceOnUse" gradientTransform="translate(52.7034 4.40672) scale(1.571 1.57101)">
            <stop offset="0.324" stop-color="white"/>
            <stop offset="0.561" stop-color="#C6C6C6"/>
            <stop offset="0.731" stop-color="#6A6A6A"/>
            <stop offset="0.874" stop-color="#000505"/>
            <stop offset="0.964"/>
        </radialGradient>
    </defs>
</svg>