<svg xmlns="http://www.w3.org/2000/svg" width="218" height="264" viewBox="-30 -30 218 264" fill="none">
    <defs>
    <radialGradient id="starMain" cx="0.5" cy="0.5" r="0.5">
      <stop offset="0%" stop-color="#FFFFFF" stop-opacity="1" />
      <stop offset="25%" stop-color="#FFFFFF" stop-opacity="0.95" />
      <stop offset="50%" stop-color="#FFFFFF" stop-opacity="0.5" />
      <stop offset="75%" stop-color="#FFFFFF" stop-opacity="0.15" />
      <stop offset="100%" stop-color="#FFFFFF" stop-opacity="0" />
    </radialGradient>
    <radialGradient id="starMedium" cx="0.5" cy="0.5" r="0.5">
      <stop offset="0%" stop-color="#FFFFFF" stop-opacity="1" />
      <stop offset="30%" stop-color="#FFFFFF" stop-opacity="0.85" />
      <stop offset="65%" stop-color="#FFFFFF" stop-opacity="0.3" />
      <stop offset="100%" stop-color="#FFFFFF" stop-opacity="0" />
    </radialGradient>
    <linearGradient id="rayGrad" x1="0%" y1="0%" x2="100%" y2="0%">
      <stop offset="0%" stop-color="#FFFFFF" stop-opacity="0" />
      <stop offset="40%" stop-color="#FFFFFF" stop-opacity="0.5" />
      <stop offset="50%" stop-color="#FFFFFF" stop-opacity="0.8" />
      <stop offset="60%" stop-color="#FFFFFF" stop-opacity="0.5" />
      <stop offset="100%" stop-color="#FFFFFF" stop-opacity="0" />
    </linearGradient>
    <g id="star-main">
      <circle r="18" fill="url(#starMain)" opacity="0.25" />
      <ellipse rx="26" ry="1" fill="url(#rayGrad)" opacity="0.72" />
      <ellipse rx="1" ry="26" fill="url(#rayGrad)" opacity="0.72" />
      <ellipse rx="22" ry="0.85" fill="url(#rayGrad)" opacity="0.62" transform="rotate(45)" />
      <ellipse rx="22" ry="0.85" fill="url(#rayGrad)" opacity="0.62" transform="rotate(-45)" />
      <circle r="10" fill="url(#starMain)" opacity="0.9" />
      <circle r="3.5" fill="#FFFFFF" />
    </g>
    <g id="star-medium">
      <circle r="14" fill="url(#starMain)" opacity="0.25" />
      <ellipse rx="22" ry="0.9" fill="url(#rayGrad)" opacity="0.68" />
      <ellipse rx="0.9" ry="22" fill="url(#rayGrad)" opacity="0.68" />
      <ellipse rx="18" ry="0.75" fill="url(#rayGrad)" opacity="0.58" transform="rotate(45)" />
      <ellipse rx="18" ry="0.75" fill="url(#rayGrad)" opacity="0.58" transform="rotate(-45)" />
      <circle r="8" fill="url(#starMain)" opacity="0.9" />
      <circle r="2.7" fill="#FFFFFF" />
    </g>
    <g id="star-small">
      <circle r="11" fill="url(#starMedium)" opacity="0.3" />
      <ellipse rx="14" ry="0.6" fill="url(#rayGrad)" opacity="0.55" />
      <ellipse rx="0.6" ry="14" fill="url(#rayGrad)" opacity="0.55" />
      <ellipse rx="11" ry="0.5" fill="url(#rayGrad)" opacity="0.5" transform="rotate(45)" />
      <ellipse rx="11" ry="0.5" fill="url(#rayGrad)" opacity="0.5" transform="rotate(-45)" />
      <circle r="6.5" fill="url(#starMedium)" />
      <circle r="2" fill="#FFFFFF" />
    </g>
  </defs>
  <g opacity="0.9">
    <g transform="translate(94.742 160.098)">
      <use href="#star-main" />
    </g>
    <g transform="translate(74.862 172.128)">
      <use href="#star-medium" />
    </g>
    <g transform="translate(42.122 185.928)">
      <use href="#star-medium" />
    </g>
    <g transform="translate(22.942 176.458)">
      <use href="#star-medium" />
    </g>
    <g transform="translate(25.872 165.968)">
      <use href="#star-small" />
    </g>
    <g transform="translate(27.532 147.728)">
      <use href="#star-small" />
    </g>
    <g transform="translate(4.592 157.218)">
      <use href="#star-small" />
    </g>
    <g transform="translate(4.262 156.398)">
      <use href="#star-small" />
    </g>
    <g transform="translate(28.542 146.358)">
      <use href="#star-small" />
    </g>
    <g transform="translate(26.732 166.128)">
      <use href="#star-small" />
    </g>
    <g transform="translate(23.982 175.998)">
      <use href="#star-small" />
    </g>
    <g transform="translate(42.153 184.958)">
      <use href="#star-small" />
    </g>
    <g transform="translate(74.463 171.338)">
      <use href="#star-small" />
    </g>
    <g transform="translate(93.742 159.678)">
      <use href="#star-small" />
    </g>
    <g transform="translate(84.862 120.998)">
      <use href="#star-small" />
    </g>
    <g transform="translate(77.203 104.738)">
      <use href="#star-small" />
    </g>
    <g transform="translate(77.252 104.568)">
      <use href="#star-small" />
    </g>
    <g transform="translate(89.272 67.088)">
      <use href="#star-small" />
    </g>
    <g transform="translate(101.172 51.988)">
      <use href="#star-small" />
    </g>
    <g transform="translate(113.132 46.188)">
      <use href="#star-small" />
    </g>
    <g transform="translate(128.992 6.108)">
      <use href="#star-small" />
    </g>
    <g transform="translate(129.812 6.438)">
      <use href="#star-small" />
    </g>
    <g transform="translate(113.822 46.828)">
      <use href="#star-small" />
    </g>
    <g transform="translate(101.732 52.688)">
      <use href="#star-small" />
    </g>
    <g transform="translate(90.013 67.568)">
      <use href="#star-small" />
    </g>
    <g transform="translate(78.142 104.678)">
      <use href="#star-small" />
    </g>
    <g transform="translate(85.692 120.708)">
      <use href="#star-small" />
    </g>
    <g transform="translate(151.112 50.108)">
      <use href="#star-small" />
    </g>
    <g transform="translate(112.312 46.848)">
      <use href="#star-small" />
    </g>
    <g transform="translate(144.992 21.758)">
      <use href="#star-small" />
    </g>
    <g transform="translate(145.523 22.458)">
      <use href="#star-small" />
    </g>
    <g transform="translate(114.653 46.158)">
      <use href="#star-small" />
    </g>
    <g transform="translate(151.193 49.228)">
      <use href="#star-small" />
    </g>
  </g>
  <g stroke="#FFFFFF" stroke-width="1.2" stroke-linecap="round" stroke-linejoin="round" opacity="0.85">
    <path d="M94.7424 160.098L74.8624 172.128L42.1224 185.928L22.9424 176.458L25.8724 165.968L27.5324 147.728L4.59247 157.218L4.26245 156.398L28.5424 146.358L26.7324 166.128L23.9824 175.998L42.1525 184.958L74.4625 171.338L93.7424 159.678L84.8624 120.998L77.2025 104.738L77.2524 104.568L89.2725 67.0884L101.172 51.9884L113.132 46.1884L128.992 6.1084L129.812 6.43839L113.822 46.8284L101.732 52.6884L90.0125 67.5684L78.1425 104.678L85.6924 120.708L94.7424 160.098Z" fill="none" />
    <path d="M151.112 50.1084L112.312 46.8484L144.992 21.7584L145.523 22.4584L114.653 46.1584L151.193 49.2284L151.112 50.1084Z" fill="none" />
  </g>
</svg>
