<svg width="158" height="204" viewBox="0 0 158 204" fill="none" xmlns="http://www.w3.org/2000/svg">
    <path style="mix-blend-mode:screen" d="M104.453 38.6184C96.8325 36.9984 89.3325 41.8584 87.7025 49.4784C86.1025 57.0884 90.9425 64.5884 98.5625 66.2084C106.173 67.8384 113.673 62.9784 115.303 55.3584C116.923 47.7384 112.073 40.2484 104.453 38.6184Z" fill="url(#paint0_radial_2001_1637)"/>
    <path style="mix-blend-mode:screen" d="M103.602 52.7384C101.902 63.9884 99.5823 72.9684 98.4123 72.7884C97.2623 72.6184 97.7024 63.3584 99.4024 52.0984C101.112 40.8484 103.432 31.8684 104.602 32.0384C105.752 32.2184 105.312 41.4784 103.602 52.7384Z" fill="url(#paint1_radial_2001_1637)"/>
    <path style="mix-blend-mode:screen" d="M115.202 41.5984C114.582 40.8084 107.942 44.9784 100.332 50.9284C92.7425 56.8584 87.0825 62.3083 87.6925 63.0884C88.3025 63.8784 94.9625 59.6984 102.552 53.7684C110.152 47.8184 115.812 42.3784 115.202 41.5984Z" fill="url(#paint2_radial_2001_1637)"/>
    <path style="mix-blend-mode:screen" d="M113.342 65.6684C113.942 65.1484 109.082 58.7584 102.512 51.3884C95.9424 44.0284 90.1424 38.4884 89.5524 39.0084C88.9624 39.5284 93.8224 45.9284 100.382 53.2884C106.952 60.6484 112.762 66.1884 113.342 65.6684Z" fill="url(#paint3_radial_2001_1637)"/>
    <path style="mix-blend-mode:screen" d="M105.562 49.5084C107.132 51.7784 106.552 54.8784 104.282 56.4484C102.012 58.0184 98.9125 57.4484 97.3425 55.1784C95.7725 52.9084 96.3425 49.7984 98.6125 48.2284C100.882 46.6684 103.992 47.2384 105.562 49.5084Z" fill="url(#paint4_radial_2001_1637)"/>
    <path style="mix-blend-mode:screen" d="M44.7424 173.538C38.1324 172.128 31.6324 176.348 30.2124 182.958C28.8124 189.558 33.0124 196.068 39.6324 197.478C46.2424 198.888 52.7424 194.658 54.1524 188.058C55.5624 181.448 51.3524 174.948 44.7424 173.538Z" fill="url(#paint5_radial_2001_1637)"/>
    <path style="mix-blend-mode:screen" d="M44.0422 185.788C42.5322 195.738 40.4822 203.678 39.4522 203.528C38.4322 203.368 38.8222 195.178 40.3322 185.218C41.8422 175.278 43.8922 167.328 44.9222 167.488C45.9422 167.638 45.5522 175.838 44.0422 185.788Z" fill="url(#paint6_radial_2001_1637)"/>
    <path style="mix-blend-mode:screen" d="M54.0723 176.118C53.5323 175.438 47.7722 179.048 41.1722 184.208C34.5822 189.358 29.6723 194.088 30.2023 194.768C30.7323 195.448 36.5122 191.828 43.1022 186.678C49.6922 181.528 54.6023 176.808 54.0723 176.118Z" fill="url(#paint7_radial_2001_1637)"/>
    <path style="mix-blend-mode:screen" d="M52.4522 197.008C52.9722 196.548 48.7521 191.008 43.0621 184.608C37.3621 178.228 32.3322 173.418 31.8222 173.878C31.3022 174.328 35.5222 179.868 41.2022 186.268C46.9122 192.648 51.9522 197.458 52.4522 197.008Z" fill="url(#paint8_radial_2001_1637)"/>
    <path style="mix-blend-mode:screen" d="M45.7023 182.988C47.0623 184.958 46.5623 187.638 44.5923 188.998C42.6223 190.358 39.9323 189.878 38.5723 187.898C37.2123 185.938 37.7123 183.228 39.6723 181.878C41.6523 180.518 44.3423 181.018 45.7023 182.988Z" fill="url(#paint9_radial_2001_1637)"/>
    <path style="mix-blend-mode:screen" d="M79.4624 96.5284C74.9224 95.5584 70.4523 98.4584 69.4723 102.998C68.5123 107.538 71.4024 112.008 75.9524 112.978C80.4924 113.938 84.9624 111.038 85.9324 106.508C86.9024 101.968 84.0124 97.4884 79.4624 96.5284Z" fill="url(#paint10_radial_2001_1637)"/>
    <path style="mix-blend-mode:screen" d="M79.0123 104.948C77.9523 111.938 76.5123 117.518 75.7923 117.408C75.0723 117.298 75.3424 111.548 76.4024 104.558C77.4624 97.5684 78.9023 91.9884 79.6323 92.0984C80.3523 92.2084 80.0723 97.9584 79.0123 104.948Z" fill="url(#paint11_radial_2001_1637)"/>
    <path style="mix-blend-mode:screen" d="M85.8823 98.2984C85.5123 97.8284 81.5423 100.318 77.0123 103.858C72.4823 107.398 69.1023 110.648 69.4623 111.108C69.8323 111.578 73.8023 109.098 78.3323 105.548C82.8623 102.008 86.2423 98.7684 85.8823 98.2984Z" fill="url(#paint12_radial_2001_1637)"/>
    <path style="mix-blend-mode:screen" d="M84.7624 112.658C85.1224 112.338 82.2224 108.528 78.3124 104.138C74.3924 99.7484 70.9324 96.4384 70.5824 96.7584C70.2324 97.0684 73.1224 100.878 77.0324 105.278C80.9524 109.658 84.4224 112.968 84.7624 112.658Z" fill="url(#paint13_radial_2001_1637)"/>
    <path style="mix-blend-mode:screen" d="M80.1223 103.018C81.0623 104.368 80.7223 106.218 79.3623 107.158C78.0123 108.088 76.1623 107.758 75.2223 106.398C74.2923 105.048 74.6323 103.188 75.9823 102.258C77.3423 101.318 79.1923 101.658 80.1223 103.018Z" fill="url(#paint14_radial_2001_1637)"/>
    <path style="mix-blend-mode:screen" d="M29.8325 138.878C25.2925 137.918 20.8224 140.808 19.8524 145.348C18.8924 149.898 21.7725 154.358 26.3225 155.328C30.8625 156.298 35.3325 153.398 36.3125 148.858C37.2725 144.318 34.3825 139.848 29.8325 138.878Z" fill="url(#paint15_radial_2001_1637)"/>
    <path style="mix-blend-mode:screen" d="M29.7724 147.598C28.5424 155.698 26.8724 162.158 26.0424 162.038C25.2024 161.908 25.5224 155.238 26.7424 147.148C27.9724 139.048 29.6524 132.578 30.4824 132.708C31.3124 132.838 31.0024 139.498 29.7724 147.598Z" fill="url(#paint16_radial_2001_1637)"/>
    <path style="mix-blend-mode:screen" d="M36.2524 140.658C35.8824 140.178 31.9124 142.678 27.3824 146.218C22.8524 149.758 19.4724 152.998 19.8424 153.468C20.2024 153.938 24.1824 151.448 28.7024 147.908C33.2424 144.368 36.6124 141.118 36.2524 140.658Z" fill="url(#paint17_radial_2001_1637)"/>
    <path style="mix-blend-mode:screen" d="M35.1425 155.008C35.4925 154.698 32.5924 150.888 28.6824 146.488C24.7624 142.098 21.3025 138.798 20.9525 139.108C20.6025 139.418 23.5024 143.238 27.4124 147.628C31.3324 152.018 34.7925 155.318 35.1425 155.008Z" fill="url(#paint18_radial_2001_1637)"/>
    <path style="mix-blend-mode:screen" d="M30.4924 145.368C31.4324 146.728 31.0924 148.578 29.7424 149.508C28.3824 150.448 26.5324 150.108 25.5924 148.758C24.6624 147.408 25.0024 145.548 26.3524 144.608C27.7124 143.678 29.5624 144.018 30.4924 145.368Z" fill="url(#paint19_radial_2001_1637)"/>
    <path style="mix-blend-mode:screen" d="M90.9224 61.2184C87.5324 60.4984 84.2024 62.6584 83.4724 66.0484C82.7624 69.4284 84.9224 72.7684 88.3124 73.4884C91.7024 74.2184 95.0325 72.0484 95.7625 68.6684C96.4825 65.2784 94.3224 61.9384 90.9224 61.2184Z" fill="url(#paint20_radial_2001_1637)"/>
    <path style="mix-blend-mode:screen" d="M91.4223 66.0584C92.1223 67.0684 91.8623 68.4484 90.8523 69.1484C89.8423 69.8484 88.4623 69.5884 87.7623 68.5784C87.0723 67.5684 87.3223 66.1884 88.3323 65.4884C89.3423 64.7984 90.7223 65.0484 91.4223 66.0584Z" fill="url(#paint21_radial_2001_1637)"/>
    <path style="mix-blend-mode:screen" d="M114.922 40.5684C111.532 39.8484 108.202 42.0084 107.472 45.3984C106.752 48.7884 108.912 52.1284 112.302 52.8484C115.692 53.5684 119.032 51.4084 119.752 48.0184C120.472 44.6284 118.312 41.2984 114.922 40.5684Z" fill="url(#paint22_radial_2001_1637)"/>
    <path style="mix-blend-mode:screen" d="M115.422 45.4184C116.112 46.4284 115.862 47.8084 114.852 48.5084C113.842 49.1984 112.452 48.9484 111.762 47.9384C111.062 46.9284 111.312 45.5484 112.322 44.8484C113.332 44.1484 114.722 44.4084 115.422 45.4184Z" fill="url(#paint23_radial_2001_1637)"/>
    <path style="mix-blend-mode:screen" d="M130.702 0.13841C127.312 -0.58159 123.982 1.5784 123.252 4.9684C122.542 8.3584 124.692 11.6884 128.082 12.4084C131.472 13.1384 134.812 10.9684 135.542 7.58839C136.262 4.19839 134.102 0.85841 130.702 0.13841Z" fill="url(#paint24_radial_2001_1637)"/>
    <path style="mix-blend-mode:screen" d="M131.202 4.97839C131.892 5.98839 131.642 7.37839 130.632 8.06839C129.622 8.76839 128.242 8.51839 127.542 7.50839C126.852 6.49839 127.102 5.1084 128.112 4.4184C129.112 3.7184 130.502 3.96839 131.202 4.97839Z" fill="url(#paint25_radial_2001_1637)"/>
    <path style="mix-blend-mode:screen" d="M146.612 16.0484C143.232 15.3284 139.902 17.4884 139.172 20.8784C138.452 24.2584 140.612 27.5984 144.002 28.3184C147.392 29.0484 150.732 26.8784 151.452 23.4984C152.172 20.1084 150.012 16.7684 146.612 16.0484Z" fill="url(#paint26_radial_2001_1637)"/>
    <path style="mix-blend-mode:screen" d="M147.112 20.8884C147.812 21.8984 147.562 23.2784 146.542 23.9784C145.542 24.6784 144.152 24.4284 143.462 23.4084C142.762 22.3984 143.012 21.0184 144.022 20.3184C145.032 19.6284 146.422 19.8784 147.112 20.8884Z" fill="url(#paint27_radial_2001_1637)"/>
    <path style="mix-blend-mode:screen" d="M152.572 43.6884C149.182 42.9684 145.852 45.1284 145.112 48.5184C144.402 51.9084 146.562 55.2484 149.952 55.9684C153.342 56.6884 156.682 54.5284 157.402 51.1384C158.122 47.7484 155.962 44.4184 152.572 43.6884Z" fill="url(#paint28_radial_2001_1637)"/>
    <path style="mix-blend-mode:screen" d="M153.062 48.5384C153.762 49.5484 153.512 50.9284 152.502 51.6284C151.492 52.3284 150.112 52.0684 149.412 51.0584C148.712 50.0484 148.962 48.6684 149.972 47.9684C150.982 47.2784 152.372 47.5284 153.062 48.5384Z" fill="url(#paint29_radial_2001_1637)"/>
    <path style="mix-blend-mode:screen" d="M86.5523 114.788C83.1723 114.068 79.8323 116.228 79.1123 119.618C78.3923 123.008 80.5523 126.348 83.9323 127.058C87.3323 127.788 90.6723 125.618 91.3923 122.228C92.1123 118.848 89.9523 115.508 86.5523 114.788Z" fill="url(#paint30_radial_2001_1637)"/>
    <path style="mix-blend-mode:screen" d="M87.0522 119.638C87.7422 120.648 87.4922 122.028 86.4922 122.718C85.4722 123.418 84.0922 123.168 83.3922 122.158C82.7022 121.148 82.9522 119.758 83.9622 119.058C84.9722 118.368 86.3522 118.628 87.0522 119.638Z" fill="url(#paint31_radial_2001_1637)"/>
    <path style="mix-blend-mode:screen" d="M27.3623 159.608C23.9823 158.888 20.6423 161.048 19.9223 164.438C19.2023 167.828 21.3624 171.168 24.7524 171.888C28.1424 172.608 31.4824 170.438 32.2024 167.058C32.9224 163.668 30.7623 160.328 27.3623 159.608Z" fill="url(#paint32_radial_2001_1637)"/>
    <path style="mix-blend-mode:screen" d="M27.8622 164.448C28.5622 165.458 28.3022 166.848 27.2922 167.538C26.2822 168.238 24.9023 167.988 24.2023 166.978C23.5123 165.968 23.7623 164.588 24.7723 163.888C25.7823 163.188 27.1722 163.438 27.8622 164.448Z" fill="url(#paint33_radial_2001_1637)"/>
    <path style="mix-blend-mode:screen" d="M95.2025 155.378C92.7225 154.848 90.2725 156.438 89.7425 158.928C89.2125 161.418 90.7925 163.868 93.2825 164.388C95.7725 164.918 98.2225 163.338 98.7625 160.848C99.2825 158.358 97.7025 155.908 95.2025 155.378Z" fill="url(#paint34_radial_2001_1637)"/>
    <path style="mix-blend-mode:screen" d="M95.5726 158.928C96.0826 159.678 95.8926 160.688 95.1526 161.208C94.4126 161.718 93.3926 161.528 92.8826 160.788C92.3726 160.048 92.5626 159.028 93.3026 158.518C94.0426 158.008 95.0626 158.198 95.5726 158.928Z" fill="url(#paint35_radial_2001_1637)"/>
    <path style="mix-blend-mode:screen" d="M75.6024 167.238C73.1124 166.708 70.6624 168.298 70.1324 170.778C69.6024 173.278 71.1924 175.728 73.6724 176.248C76.1624 176.788 78.6125 175.188 79.1525 172.708C79.6725 170.218 78.0924 167.778 75.6024 167.238Z" fill="url(#paint36_radial_2001_1637)"/>
    <path style="mix-blend-mode:screen" d="M75.9625 170.798C76.4725 171.538 76.2824 172.558 75.5424 173.068C74.8024 173.578 73.7925 173.388 73.2725 172.648C72.7625 171.908 72.9525 170.888 73.6925 170.378C74.4325 169.868 75.4525 170.058 75.9625 170.798Z" fill="url(#paint37_radial_2001_1637)"/>
    <path style="mix-blend-mode:screen" d="M24.4025 171.738C21.9125 171.208 19.4624 172.788 18.9324 175.278C18.4024 177.768 19.9824 180.218 22.4724 180.748C24.9624 181.278 27.4124 179.688 27.9424 177.198C28.4724 174.718 26.8925 172.268 24.4025 171.738Z" fill="url(#paint38_radial_2001_1637)"/>
    <path style="mix-blend-mode:screen" d="M24.7626 175.288C25.2726 176.038 25.0826 177.048 24.3426 177.558C23.6026 178.068 22.5926 177.888 22.0826 177.148C21.5626 176.398 21.7526 175.388 22.4926 174.878C23.2326 174.368 24.2526 174.548 24.7626 175.288Z" fill="url(#paint39_radial_2001_1637)"/>
    <path style="mix-blend-mode:screen" d="M33.9124 141.348C31.4224 140.818 28.9724 142.408 28.4424 144.888C27.9124 147.378 29.4924 149.838 31.9924 150.358C34.4724 150.898 36.9224 149.298 37.4624 146.818C37.9824 144.328 36.4024 141.878 33.9124 141.348Z" fill="url(#paint40_radial_2001_1637)"/>
    <path style="mix-blend-mode:screen" d="M34.2723 144.908C34.7823 145.648 34.6023 146.668 33.8623 147.178C33.1123 147.688 32.1023 147.498 31.5823 146.758C31.0823 146.018 31.2623 144.998 32.0023 144.488C32.7423 143.978 33.7623 144.168 34.2723 144.908Z" fill="url(#paint41_radial_2001_1637)"/>
    <path style="mix-blend-mode:screen" d="M5.57237 152.568C3.08237 152.038 0.632336 153.628 0.102336 156.108C-0.427664 158.598 1.15238 161.048 3.65238 161.568C6.13238 162.108 8.58235 160.518 9.11235 158.038C9.64235 155.548 8.06237 153.098 5.57237 152.568Z" fill="url(#paint42_radial_2001_1637)"/>
    <path style="mix-blend-mode:screen" d="M5.93245 156.118C6.44245 156.858 6.25247 157.878 5.51247 158.388C4.77247 158.898 3.76245 158.708 3.24245 157.968C2.73245 157.228 2.92243 156.218 3.66243 155.698C4.40243 155.198 5.42245 155.378 5.93245 156.118Z" fill="url(#paint43_radial_2001_1637)"/>
    <path d="M94.7424 160.098L74.8624 172.128L42.1224 185.928L22.9424 176.458L25.8724 165.968L27.5324 147.728L4.59247 157.218L4.26245 156.398L28.5424 146.358L26.7324 166.128L23.9824 175.998L42.1525 184.958L74.4625 171.338L93.7424 159.678L84.8624 120.998L77.2025 104.738L77.2524 104.568L89.2725 67.0884L101.172 51.9884L113.132 46.1884L128.992 6.1084L129.812 6.43839L113.822 46.8284L101.732 52.6884L90.0125 67.5684L78.1425 104.678L85.6924 120.708L94.7424 160.098Z" fill="white"/>
    <path d="M151.112 50.1084L112.312 46.8484L144.992 21.7584L145.523 22.4584L114.653 46.1584L151.193 49.2284L151.112 50.1084Z" fill="white"/>
    <defs>
        <radialGradient id="paint0_radial_2001_1637" cx="0" cy="0" r="1" gradientUnits="userSpaceOnUse" gradientTransform="translate(101.504 52.4134) rotate(-77.9549) scale(14.1076 14.1076)">
            <stop offset="0.099" stop-color="white"/>
            <stop offset="0.363" stop-color="#7A7A7A"/>
            <stop offset="0.572" stop-color="#2A2A2A"/>
            <stop offset="0.663" stop-color="#161616"/>
            <stop offset="0.826" stop-color="#000505"/>
            <stop offset="0.964"/>
        </radialGradient>
        <radialGradient id="paint1_radial_2001_1637" cx="0" cy="0" r="1" gradientUnits="userSpaceOnUse" gradientTransform="translate(101.502 52.4154) rotate(8.63748) scale(2.12409 2.12409)">
            <stop stop-color="white"/>
            <stop offset="0.102" stop-color="#D9D9D9"/>
            <stop offset="0.168" stop-color="#AAAAAA"/>
            <stop offset="0.255" stop-color="#7A7A7A"/>
            <stop offset="0.408" stop-color="#424242"/>
            <stop offset="0.515" stop-color="#2A2A2A"/>
            <stop offset="0.663" stop-color="#161616"/>
            <stop offset="0.826" stop-color="#000505"/>
            <stop offset="0.964"/>
        </radialGradient>
        <radialGradient id="paint2_radial_2001_1637" cx="0" cy="0" r="1" gradientUnits="userSpaceOnUse" gradientTransform="translate(101.448 52.3424) rotate(-38.0023) scale(17.447 17.447)">
            <stop stop-color="white"/>
            <stop offset="0.102" stop-color="#D9D9D9"/>
            <stop offset="0.168" stop-color="#AAAAAA"/>
            <stop offset="0.255" stop-color="#7A7A7A"/>
            <stop offset="0.408" stop-color="#424242"/>
            <stop offset="0.515" stop-color="#2A2A2A"/>
            <stop offset="0.663" stop-color="#161616"/>
            <stop offset="0.826" stop-color="#000505"/>
            <stop offset="0.964"/>
        </radialGradient>
        <radialGradient id="paint3_radial_2001_1637" cx="0" cy="0" r="1" gradientTransform="matrix(11.906 13.346 -13.346 11.906 101.446 52.3424)" gradientUnits="userSpaceOnUse">
            <stop stop-color="white"/>
            <stop offset="0.102" stop-color="#D9D9D9"/>
            <stop offset="0.168" stop-color="#AAAAAA"/>
            <stop offset="0.255" stop-color="#7A7A7A"/>
            <stop offset="0.408" stop-color="#424242"/>
            <stop offset="0.515" stop-color="#2A2A2A"/>
            <stop offset="0.663" stop-color="#161616"/>
            <stop offset="0.826" stop-color="#000505"/>
            <stop offset="0.964"/>
        </radialGradient>
        <radialGradient id="paint4_radial_2001_1637" cx="0" cy="0" r="1" gradientTransform="matrix(4.10799 -2.835 2.83499 4.108 101.447 52.3404)" gradientUnits="userSpaceOnUse">
            <stop offset="0.324" stop-color="white"/>
            <stop offset="0.561" stop-color="#C6C6C6"/>
            <stop offset="0.731" stop-color="#6A6A6A"/>
            <stop offset="0.874" stop-color="#000505"/>
            <stop offset="0.964"/>
        </radialGradient>
        <radialGradient id="paint5_radial_2001_1637" cx="0" cy="0" r="1" gradientUnits="userSpaceOnUse" gradientTransform="translate(42.1844 185.505) rotate(-77.9546) scale(12.2385)">
            <stop offset="0.099" stop-color="white"/>
            <stop offset="0.363" stop-color="#7A7A7A"/>
            <stop offset="0.572" stop-color="#2A2A2A"/>
            <stop offset="0.663" stop-color="#161616"/>
            <stop offset="0.826" stop-color="#000505"/>
            <stop offset="0.964"/>
        </radialGradient>
        <radialGradient id="paint6_radial_2001_1637" cx="0" cy="0" r="1" gradientTransform="matrix(1.85699 0.282 -0.281999 1.857 42.1832 185.505)" gradientUnits="userSpaceOnUse">
            <stop stop-color="white"/>
            <stop offset="0.102" stop-color="#D9D9D9"/>
            <stop offset="0.168" stop-color="#AAAAAA"/>
            <stop offset="0.255" stop-color="#7A7A7A"/>
            <stop offset="0.408" stop-color="#424242"/>
            <stop offset="0.515" stop-color="#2A2A2A"/>
            <stop offset="0.663" stop-color="#161616"/>
            <stop offset="0.826" stop-color="#000505"/>
            <stop offset="0.964"/>
        </radialGradient>
        <radialGradient id="paint7_radial_2001_1637" cx="0" cy="0" r="1" gradientUnits="userSpaceOnUse" gradientTransform="translate(42.1353 185.441) rotate(-38.0004) scale(15.1445)">
            <stop stop-color="white"/>
            <stop offset="0.102" stop-color="#D9D9D9"/>
            <stop offset="0.168" stop-color="#AAAAAA"/>
            <stop offset="0.255" stop-color="#7A7A7A"/>
            <stop offset="0.408" stop-color="#424242"/>
            <stop offset="0.515" stop-color="#2A2A2A"/>
            <stop offset="0.663" stop-color="#161616"/>
            <stop offset="0.826" stop-color="#000505"/>
            <stop offset="0.964"/>
        </radialGradient>
        <radialGradient id="paint8_radial_2001_1637" cx="0" cy="0" r="1" gradientUnits="userSpaceOnUse" gradientTransform="translate(42.1362 185.442) rotate(48.2623) scale(15.532)">
            <stop stop-color="white"/>
            <stop offset="0.102" stop-color="#D9D9D9"/>
            <stop offset="0.168" stop-color="#AAAAAA"/>
            <stop offset="0.255" stop-color="#7A7A7A"/>
            <stop offset="0.408" stop-color="#424242"/>
            <stop offset="0.515" stop-color="#2A2A2A"/>
            <stop offset="0.663" stop-color="#161616"/>
            <stop offset="0.826" stop-color="#000505"/>
            <stop offset="0.964"/>
        </radialGradient>
        <radialGradient id="paint9_radial_2001_1637" cx="0" cy="0" r="1" gradientTransform="matrix(3.56301 -2.459 2.459 3.563 42.1333 185.439)" gradientUnits="userSpaceOnUse">
            <stop offset="0.324" stop-color="white"/>
            <stop offset="0.561" stop-color="#C6C6C6"/>
            <stop offset="0.731" stop-color="#6A6A6A"/>
            <stop offset="0.874" stop-color="#000505"/>
            <stop offset="0.964"/>
        </radialGradient>
        <radialGradient id="paint10_radial_2001_1637" cx="0" cy="0" r="1" gradientUnits="userSpaceOnUse" gradientTransform="translate(77.7054 104.749) rotate(-77.9566) scale(8.41114 8.41114)">
            <stop offset="0.099" stop-color="white"/>
            <stop offset="0.363" stop-color="#7A7A7A"/>
            <stop offset="0.572" stop-color="#2A2A2A"/>
            <stop offset="0.663" stop-color="#161616"/>
            <stop offset="0.826" stop-color="#000505"/>
            <stop offset="0.964"/>
        </radialGradient>
        <radialGradient id="paint11_radial_2001_1637" cx="0" cy="0" r="1" gradientUnits="userSpaceOnUse" gradientTransform="translate(77.7093 104.75) rotate(8.62082) scale(1.32093 1.32092)">
            <stop stop-color="white"/>
            <stop offset="0.102" stop-color="#D9D9D9"/>
            <stop offset="0.168" stop-color="#AAAAAA"/>
            <stop offset="0.255" stop-color="#7A7A7A"/>
            <stop offset="0.408" stop-color="#424242"/>
            <stop offset="0.515" stop-color="#2A2A2A"/>
            <stop offset="0.663" stop-color="#161616"/>
            <stop offset="0.826" stop-color="#000505"/>
            <stop offset="0.964"/>
        </radialGradient>
        <radialGradient id="paint12_radial_2001_1637" cx="0" cy="0" r="1" gradientUnits="userSpaceOnUse" gradientTransform="translate(77.6723 104.706) rotate(-38.0005) scale(10.4098 10.4098)">
            <stop stop-color="white"/>
            <stop offset="0.102" stop-color="#D9D9D9"/>
            <stop offset="0.168" stop-color="#AAAAAA"/>
            <stop offset="0.255" stop-color="#7A7A7A"/>
            <stop offset="0.408" stop-color="#424242"/>
            <stop offset="0.515" stop-color="#2A2A2A"/>
            <stop offset="0.663" stop-color="#161616"/>
            <stop offset="0.826" stop-color="#000505"/>
            <stop offset="0.964"/>
        </radialGradient>
        <radialGradient id="paint13_radial_2001_1637" cx="0" cy="0" r="1" gradientUnits="userSpaceOnUse" gradientTransform="translate(77.6734 104.706) rotate(48.2622) scale(10.6741)">
            <stop stop-color="white"/>
            <stop offset="0.102" stop-color="#D9D9D9"/>
            <stop offset="0.168" stop-color="#AAAAAA"/>
            <stop offset="0.255" stop-color="#7A7A7A"/>
            <stop offset="0.408" stop-color="#424242"/>
            <stop offset="0.515" stop-color="#2A2A2A"/>
            <stop offset="0.663" stop-color="#161616"/>
            <stop offset="0.826" stop-color="#000505"/>
            <stop offset="0.964"/>
        </radialGradient>
        <radialGradient id="paint14_radial_2001_1637" cx="0" cy="0" r="1" gradientTransform="matrix(2.45101 -1.691 1.69101 2.451 77.6743 104.706)" gradientUnits="userSpaceOnUse">
            <stop offset="0.324" stop-color="white"/>
            <stop offset="0.561" stop-color="#C6C6C6"/>
            <stop offset="0.731" stop-color="#6A6A6A"/>
            <stop offset="0.874" stop-color="#000505"/>
            <stop offset="0.964"/>
        </radialGradient>
        <radialGradient id="paint15_radial_2001_1637" cx="0" cy="0" r="1" gradientUnits="userSpaceOnUse" gradientTransform="translate(28.0785 147.105) rotate(-77.9528) scale(8.4133 8.4133)">
            <stop offset="0.099" stop-color="white"/>
            <stop offset="0.363" stop-color="#7A7A7A"/>
            <stop offset="0.572" stop-color="#2A2A2A"/>
            <stop offset="0.663" stop-color="#161616"/>
            <stop offset="0.826" stop-color="#000505"/>
            <stop offset="0.964"/>
        </radialGradient>
        <radialGradient id="paint16_radial_2001_1637" cx="0" cy="0" r="1" gradientUnits="userSpaceOnUse" gradientTransform="translate(28.2574 147.373) rotate(8.61787) scale(1.52826 1.52825)">
            <stop stop-color="white"/>
            <stop offset="0.102" stop-color="#D9D9D9"/>
            <stop offset="0.168" stop-color="#AAAAAA"/>
            <stop offset="0.255" stop-color="#7A7A7A"/>
            <stop offset="0.408" stop-color="#424242"/>
            <stop offset="0.515" stop-color="#2A2A2A"/>
            <stop offset="0.663" stop-color="#161616"/>
            <stop offset="0.826" stop-color="#000505"/>
            <stop offset="0.964"/>
        </radialGradient>
        <radialGradient id="paint17_radial_2001_1637" cx="0" cy="0" r="1" gradientTransform="matrix(8.20199 -6.409 6.40899 8.202 28.0444 147.062)" gradientUnits="userSpaceOnUse">
            <stop stop-color="white"/>
            <stop offset="0.102" stop-color="#D9D9D9"/>
            <stop offset="0.168" stop-color="#AAAAAA"/>
            <stop offset="0.255" stop-color="#7A7A7A"/>
            <stop offset="0.408" stop-color="#424242"/>
            <stop offset="0.515" stop-color="#2A2A2A"/>
            <stop offset="0.663" stop-color="#161616"/>
            <stop offset="0.826" stop-color="#000505"/>
            <stop offset="0.964"/>
        </radialGradient>
        <radialGradient id="paint18_radial_2001_1637" cx="0" cy="0" r="1" gradientUnits="userSpaceOnUse" gradientTransform="translate(28.0465 147.062) rotate(48.2626) scale(10.6727)">
            <stop stop-color="white"/>
            <stop offset="0.102" stop-color="#D9D9D9"/>
            <stop offset="0.168" stop-color="#AAAAAA"/>
            <stop offset="0.255" stop-color="#7A7A7A"/>
            <stop offset="0.408" stop-color="#424242"/>
            <stop offset="0.515" stop-color="#2A2A2A"/>
            <stop offset="0.663" stop-color="#161616"/>
            <stop offset="0.826" stop-color="#000505"/>
            <stop offset="0.964"/>
        </radialGradient>
        <radialGradient id="paint19_radial_2001_1637" cx="0" cy="0" r="1" gradientTransform="matrix(2.45099 -1.691 1.69099 2.451 28.0444 147.062)" gradientUnits="userSpaceOnUse">
            <stop offset="0.324" stop-color="white"/>
            <stop offset="0.561" stop-color="#C6C6C6"/>
            <stop offset="0.731" stop-color="#6A6A6A"/>
            <stop offset="0.874" stop-color="#000505"/>
            <stop offset="0.964"/>
        </radialGradient>
        <radialGradient id="paint20_radial_2001_1637" cx="0" cy="0" r="1" gradientUnits="userSpaceOnUse" gradientTransform="translate(89.6174 67.3524) rotate(-77.9543) scale(6.27722 6.27723)">
            <stop offset="0.099" stop-color="white"/>
            <stop offset="0.363" stop-color="#7A7A7A"/>
            <stop offset="0.572" stop-color="#2A2A2A"/>
            <stop offset="0.663" stop-color="#161616"/>
            <stop offset="0.826" stop-color="#000505"/>
            <stop offset="0.964"/>
        </radialGradient>
        <radialGradient id="paint21_radial_2001_1637" cx="0" cy="0" r="1" gradientTransform="matrix(1.82799 -1.262 1.26199 1.828 89.5933 67.3214)" gradientUnits="userSpaceOnUse">
            <stop offset="0.324" stop-color="white"/>
            <stop offset="0.561" stop-color="#C6C6C6"/>
            <stop offset="0.731" stop-color="#6A6A6A"/>
            <stop offset="0.874" stop-color="#000505"/>
            <stop offset="0.964"/>
        </radialGradient>
        <radialGradient id="paint22_radial_2001_1637" cx="0" cy="0" r="1" gradientUnits="userSpaceOnUse" gradientTransform="translate(113.612 46.7064) rotate(-77.9562) scale(6.27819 6.27821)">
            <stop offset="0.099" stop-color="white"/>
            <stop offset="0.363" stop-color="#7A7A7A"/>
            <stop offset="0.572" stop-color="#2A2A2A"/>
            <stop offset="0.663" stop-color="#161616"/>
            <stop offset="0.826" stop-color="#000505"/>
            <stop offset="0.964"/>
        </radialGradient>
        <radialGradient id="paint23_radial_2001_1637" cx="0" cy="0" r="1" gradientTransform="matrix(1.82899 -1.262 1.26199 1.829 113.588 46.6754)" gradientUnits="userSpaceOnUse">
            <stop offset="0.324" stop-color="white"/>
            <stop offset="0.561" stop-color="#C6C6C6"/>
            <stop offset="0.731" stop-color="#6A6A6A"/>
            <stop offset="0.874" stop-color="#000505"/>
            <stop offset="0.964"/>
        </radialGradient>
        <radialGradient id="paint24_radial_2001_1637" cx="0" cy="0" r="1" gradientUnits="userSpaceOnUse" gradientTransform="translate(129.396 6.2744) rotate(-77.9543) scale(6.27721 6.2772)">
            <stop offset="0.099" stop-color="white"/>
            <stop offset="0.363" stop-color="#7A7A7A"/>
            <stop offset="0.572" stop-color="#2A2A2A"/>
            <stop offset="0.663" stop-color="#161616"/>
            <stop offset="0.826" stop-color="#000505"/>
            <stop offset="0.964"/>
        </radialGradient>
        <radialGradient id="paint25_radial_2001_1637" cx="0" cy="0" r="1" gradientTransform="matrix(1.82801 -1.262 1.26201 1.828 129.37 6.24239)" gradientUnits="userSpaceOnUse">
            <stop offset="0.324" stop-color="white"/>
            <stop offset="0.561" stop-color="#C6C6C6"/>
            <stop offset="0.731" stop-color="#6A6A6A"/>
            <stop offset="0.874" stop-color="#000505"/>
            <stop offset="0.964"/>
        </radialGradient>
        <radialGradient id="paint26_radial_2001_1637" cx="0" cy="0" r="1" gradientTransform="matrix(1.31 -6.13899 6.13901 1.31 145.31 22.1834)" gradientUnits="userSpaceOnUse">
            <stop offset="0.099" stop-color="white"/>
            <stop offset="0.363" stop-color="#7A7A7A"/>
            <stop offset="0.572" stop-color="#2A2A2A"/>
            <stop offset="0.663" stop-color="#161616"/>
            <stop offset="0.826" stop-color="#000505"/>
            <stop offset="0.964"/>
        </radialGradient>
        <radialGradient id="paint27_radial_2001_1637" cx="0" cy="0" r="1" gradientTransform="matrix(1.82798 -1.262 1.26199 1.828 145.287 22.1504)" gradientUnits="userSpaceOnUse">
            <stop offset="0.324" stop-color="white"/>
            <stop offset="0.561" stop-color="#C6C6C6"/>
            <stop offset="0.731" stop-color="#6A6A6A"/>
            <stop offset="0.874" stop-color="#000505"/>
            <stop offset="0.964"/>
        </radialGradient>
        <radialGradient id="paint28_radial_2001_1637" cx="0" cy="0" r="1" gradientTransform="matrix(1.31 -6.139 6.13902 1.31 151.26 49.8284)" gradientUnits="userSpaceOnUse">
            <stop offset="0.099" stop-color="white"/>
            <stop offset="0.363" stop-color="#7A7A7A"/>
            <stop offset="0.572" stop-color="#2A2A2A"/>
            <stop offset="0.663" stop-color="#161616"/>
            <stop offset="0.826" stop-color="#000505"/>
            <stop offset="0.964"/>
        </radialGradient>
        <radialGradient id="paint29_radial_2001_1637" cx="0" cy="0" r="1" gradientTransform="matrix(1.82801 -1.262 1.26201 1.828 151.238 49.7974)" gradientUnits="userSpaceOnUse">
            <stop offset="0.324" stop-color="white"/>
            <stop offset="0.561" stop-color="#C6C6C6"/>
            <stop offset="0.731" stop-color="#6A6A6A"/>
            <stop offset="0.874" stop-color="#000505"/>
            <stop offset="0.964"/>
        </radialGradient>
        <radialGradient id="paint30_radial_2001_1637" cx="0" cy="0" r="1" gradientTransform="matrix(1.31 -6.13799 6.13801 1.31 85.2503 120.925)" gradientUnits="userSpaceOnUse">
            <stop offset="0.099" stop-color="white"/>
            <stop offset="0.363" stop-color="#7A7A7A"/>
            <stop offset="0.572" stop-color="#2A2A2A"/>
            <stop offset="0.663" stop-color="#161616"/>
            <stop offset="0.826" stop-color="#000505"/>
            <stop offset="0.964"/>
        </radialGradient>
        <radialGradient id="paint31_radial_2001_1637" cx="0" cy="0" r="1" gradientTransform="matrix(1.82899 -1.262 1.26199 1.829 85.2212 120.894)" gradientUnits="userSpaceOnUse">
            <stop offset="0.324" stop-color="white"/>
            <stop offset="0.561" stop-color="#C6C6C6"/>
            <stop offset="0.731" stop-color="#6A6A6A"/>
            <stop offset="0.874" stop-color="#000505"/>
            <stop offset="0.964"/>
        </radialGradient>
        <radialGradient id="paint32_radial_2001_1637" cx="0" cy="0" r="1" gradientUnits="userSpaceOnUse" gradientTransform="translate(26.0604 165.749) rotate(-77.9562) scale(6.27819 6.27821)">
            <stop offset="0.099" stop-color="white"/>
            <stop offset="0.363" stop-color="#7A7A7A"/>
            <stop offset="0.572" stop-color="#2A2A2A"/>
            <stop offset="0.663" stop-color="#161616"/>
            <stop offset="0.826" stop-color="#000505"/>
            <stop offset="0.964"/>
        </radialGradient>
        <radialGradient id="paint33_radial_2001_1637" cx="0" cy="0" r="1" gradientTransform="matrix(1.82799 -1.262 1.26199 1.828 26.0352 165.714)" gradientUnits="userSpaceOnUse">
            <stop offset="0.324" stop-color="white"/>
            <stop offset="0.561" stop-color="#C6C6C6"/>
            <stop offset="0.731" stop-color="#6A6A6A"/>
            <stop offset="0.874" stop-color="#000505"/>
            <stop offset="0.964"/>
        </radialGradient>
        <radialGradient id="paint34_radial_2001_1637" cx="0" cy="0" r="1" gradientUnits="userSpaceOnUse" gradientTransform="translate(94.2485 159.885) rotate(-77.9512) scale(4.60853 4.60853)">
            <stop offset="0.099" stop-color="white"/>
            <stop offset="0.363" stop-color="#7A7A7A"/>
            <stop offset="0.572" stop-color="#2A2A2A"/>
            <stop offset="0.663" stop-color="#161616"/>
            <stop offset="0.826" stop-color="#000505"/>
            <stop offset="0.964"/>
        </radialGradient>
        <radialGradient id="paint35_radial_2001_1637" cx="0" cy="0" r="1" gradientTransform="matrix(1.34301 -0.926999 0.927004 1.343 94.2296 159.864)" gradientUnits="userSpaceOnUse">
            <stop offset="0.324" stop-color="white"/>
            <stop offset="0.561" stop-color="#C6C6C6"/>
            <stop offset="0.731" stop-color="#6A6A6A"/>
            <stop offset="0.874" stop-color="#000505"/>
            <stop offset="0.964"/>
        </radialGradient>
        <radialGradient id="paint36_radial_2001_1637" cx="0" cy="0" r="1" gradientTransform="matrix(0.962002 -4.50799 4.50801 0.961998 74.6384 171.746)" gradientUnits="userSpaceOnUse">
            <stop offset="0.099" stop-color="white"/>
            <stop offset="0.363" stop-color="#7A7A7A"/>
            <stop offset="0.572" stop-color="#2A2A2A"/>
            <stop offset="0.663" stop-color="#161616"/>
            <stop offset="0.826" stop-color="#000505"/>
            <stop offset="0.964"/>
        </radialGradient>
        <radialGradient id="paint37_radial_2001_1637" cx="0" cy="0" r="1" gradientTransform="matrix(1.343 -0.927001 0.926998 1.343 74.6215 171.721)" gradientUnits="userSpaceOnUse">
            <stop offset="0.324" stop-color="white"/>
            <stop offset="0.561" stop-color="#C6C6C6"/>
            <stop offset="0.731" stop-color="#6A6A6A"/>
            <stop offset="0.874" stop-color="#000505"/>
            <stop offset="0.964"/>
        </radialGradient>
        <radialGradient id="paint38_radial_2001_1637" cx="0" cy="0" r="1" gradientTransform="matrix(0.962001 -4.50599 4.50601 0.961998 23.4374 176.24)" gradientUnits="userSpaceOnUse">
            <stop offset="0.099" stop-color="white"/>
            <stop offset="0.363" stop-color="#7A7A7A"/>
            <stop offset="0.572" stop-color="#2A2A2A"/>
            <stop offset="0.663" stop-color="#161616"/>
            <stop offset="0.826" stop-color="#000505"/>
            <stop offset="0.964"/>
        </radialGradient>
        <radialGradient id="paint39_radial_2001_1637" cx="0" cy="0" r="1" gradientTransform="matrix(1.34 -0.925 0.925002 1.34 23.4166 176.216)" gradientUnits="userSpaceOnUse">
            <stop offset="0.324" stop-color="white"/>
            <stop offset="0.561" stop-color="#C6C6C6"/>
            <stop offset="0.731" stop-color="#6A6A6A"/>
            <stop offset="0.874" stop-color="#000505"/>
            <stop offset="0.964"/>
        </radialGradient>
        <radialGradient id="paint40_radial_2001_1637" cx="0" cy="0" r="1" gradientUnits="userSpaceOnUse" gradientTransform="translate(32.9514 145.855) rotate(-77.9513) scale(4.60853 4.60853)">
            <stop offset="0.099" stop-color="white"/>
            <stop offset="0.363" stop-color="#7A7A7A"/>
            <stop offset="0.572" stop-color="#2A2A2A"/>
            <stop offset="0.663" stop-color="#161616"/>
            <stop offset="0.826" stop-color="#000505"/>
            <stop offset="0.964"/>
        </radialGradient>
        <radialGradient id="paint41_radial_2001_1637" cx="0" cy="0" r="1" gradientTransform="matrix(1.343 -0.927001 0.926999 1.343 32.9303 145.832)" gradientUnits="userSpaceOnUse">
            <stop offset="0.324" stop-color="white"/>
            <stop offset="0.561" stop-color="#C6C6C6"/>
            <stop offset="0.731" stop-color="#6A6A6A"/>
            <stop offset="0.874" stop-color="#000505"/>
            <stop offset="0.964"/>
        </radialGradient>
        <radialGradient id="paint42_radial_2001_1637" cx="0" cy="0" r="1" gradientUnits="userSpaceOnUse" gradientTransform="translate(4.60834 157.068) rotate(-77.9513) scale(4.60852 4.60853)">
            <stop offset="0.099" stop-color="white"/>
            <stop offset="0.363" stop-color="#7A7A7A"/>
            <stop offset="0.572" stop-color="#2A2A2A"/>
            <stop offset="0.663" stop-color="#161616"/>
            <stop offset="0.826" stop-color="#000505"/>
            <stop offset="0.964"/>
        </radialGradient>
        <radialGradient id="paint43_radial_2001_1637" cx="0" cy="0" r="1" gradientTransform="matrix(1.34201 -0.925998 0.926004 1.342 4.58845 157.046)" gradientUnits="userSpaceOnUse">
            <stop offset="0.324" stop-color="white"/>
            <stop offset="0.561" stop-color="#C6C6C6"/>
            <stop offset="0.731" stop-color="#6A6A6A"/>
            <stop offset="0.874" stop-color="#000505"/>
            <stop offset="0.964"/>
        </radialGradient>
    </defs>
</svg>
