<svg xmlns="http://www.w3.org/2000/svg" width="218" height="229" viewBox="-30 -30 218 229" fill="none">
    <defs>
    <radialGradient id="starMain" cx="0.5" cy="0.5" r="0.5">
      <stop offset="0%" stop-color="#FFFFFF" stop-opacity="1" />
      <stop offset="25%" stop-color="#FFFFFF" stop-opacity="0.95" />
      <stop offset="50%" stop-color="#FFFFFF" stop-opacity="0.5" />
      <stop offset="75%" stop-color="#FFFFFF" stop-opacity="0.15" />
      <stop offset="100%" stop-color="#FFFFFF" stop-opacity="0" />
    </radialGradient>
    <radialGradient id="starMedium" cx="0.5" cy="0.5" r="0.5">
      <stop offset="0%" stop-color="#FFFFFF" stop-opacity="1" />
      <stop offset="30%" stop-color="#FFFFFF" stop-opacity="0.85" />
      <stop offset="65%" stop-color="#FFFFFF" stop-opacity="0.3" />
      <stop offset="100%" stop-color="#FFFFFF" stop-opacity="0" />
    </radialGradient>
    <linearGradient id="rayGrad" x1="0%" y1="0%" x2="100%" y2="0%">
      <stop offset="0%" stop-color="#FFFFFF" stop-opacity="0" />
      <stop offset="40%" stop-color="#FFFFFF" stop-opacity="0.5" />
      <stop offset="50%" stop-color="#FFFFFF" stop-opacity="0.8" />
      <stop offset="60%" stop-color="#FFFFFF" stop-opacity="0.5" />
      <stop offset="100%" stop-color="#FFFFFF" stop-opacity="0" />
    </linearGradient>
    <g id="star-main">
      <circle r="18" fill="url(#starMain)" opacity="0.25" />
      <ellipse rx="26" ry="1" fill="url(#rayGrad)" opacity="0.72" />
      <ellipse rx="1" ry="26" fill="url(#rayGrad)" opacity="0.72" />
      <ellipse rx="22" ry="0.85" fill="url(#rayGrad)" opacity="0.62" transform="rotate(45)" />
      <ellipse rx="22" ry="0.85" fill="url(#rayGrad)" opacity="0.62" transform="rotate(-45)" />
      <circle r="10" fill="url(#starMain)" opacity="0.9" />
      <circle r="3.5" fill="#FFFFFF" />
    </g>
    <g id="star-medium">
      <circle r="14" fill="url(#starMain)" opacity="0.25" />
      <ellipse rx="22" ry="0.9" fill="url(#rayGrad)" opacity="0.68" />
      <ellipse rx="0.9" ry="22" fill="url(#rayGrad)" opacity="0.68" />
      <ellipse rx="18" ry="0.75" fill="url(#rayGrad)" opacity="0.58" transform="rotate(45)" />
      <ellipse rx="18" ry="0.75" fill="url(#rayGrad)" opacity="0.58" transform="rotate(-45)" />
      <circle r="8" fill="url(#starMain)" opacity="0.9" />
      <circle r="2.7" fill="#FFFFFF" />
    </g>
    <g id="star-small">
      <circle r="11" fill="url(#starMedium)" opacity="0.3" />
      <ellipse rx="14" ry="0.6" fill="url(#rayGrad)" opacity="0.55" />
      <ellipse rx="0.6" ry="14" fill="url(#rayGrad)" opacity="0.55" />
      <ellipse rx="11" ry="0.5" fill="url(#rayGrad)" opacity="0.5" transform="rotate(45)" />
      <ellipse rx="11" ry="0.5" fill="url(#rayGrad)" opacity="0.5" transform="rotate(-45)" />
      <circle r="6.5" fill="url(#starMedium)" />
      <circle r="2" fill="#FFFFFF" />
    </g>
  </defs>
  <g opacity="0.9">
    <g transform="translate(85.818 153.376)">
      <use href="#star-main" />
    </g>
    <g transform="translate(76.808 133.656)">
      <use href="#star-medium" />
    </g>
    <g transform="translate(95.918 123.626)">
      <use href="#star-medium" />
    </g>
    <g transform="translate(96.068 123.656)">
      <use href="#star-medium" />
    </g>
    <g transform="translate(138.558 131.016)">
      <use href="#star-small" />
    </g>
    <g transform="translate(135.138 151.636)">
      <use href="#star-small" />
    </g>
    <g transform="translate(134.278 151.486)">
      <use href="#star-small" />
    </g>
    <g transform="translate(137.548 131.736)">
      <use href="#star-small" />
    </g>
    <g transform="translate(96.068 124.546)">
      <use href="#star-small" />
    </g>
    <g transform="translate(77.958 134.046)">
      <use href="#star-small" />
    </g>
    <g transform="translate(86.618 153.006)">
      <use href="#star-small" />
    </g>
    <g transform="translate(95.628 124.336)">
      <use href="#star-small" />
    </g>
    <g transform="translate(79.708 101.266)">
      <use href="#star-small" />
    </g>
    <g transform="translate(66.658 60.616)">
      <use href="#star-small" />
    </g>
    <g transform="translate(36.998 19.666)">
      <use href="#star-small" />
    </g>
    <g transform="translate(37.708 19.156)">
      <use href="#star-small" />
    </g>
    <g transform="translate(67.468 60.276)">
      <use href="#star-small" />
    </g>
    <g transform="translate(80.528 100.936)">
      <use href="#star-small" />
    </g>
    <g transform="translate(96.358 123.836)">
      <use href="#star-small" />
    </g>
    <g transform="translate(79.928 101.526)">
      <use href="#star-small" />
    </g>
    <g transform="translate(57.608 89.776)">
      <use href="#star-small" />
    </g>
    <g transform="translate(10.428 48.246)">
      <use href="#star-small" />
    </g>
    <g transform="translate(11.008 47.586)">
      <use href="#star-small" />
    </g>
    <g transform="translate(58.108 89.056)">
      <use href="#star-small" />
    </g>
    <g transform="translate(80.338 100.746)">
      <use href="#star-small" />
    </g>
  </g>
  <g stroke="#FFFFFF" stroke-width="1.2" stroke-linecap="round" stroke-linejoin="round" opacity="0.85">
    <path d="M85.8176 153.376L76.8076 133.656L95.9176 123.626L96.0676 123.656L138.558 131.016L135.138 151.636L134.278 151.486L137.548 131.736L96.0676 124.546L77.9576 134.046L86.6176 153.006L85.8176 153.376Z" fill="none" />
    <path d="M95.6278 124.336L79.7078 101.266L66.6578 60.6162L36.9978 19.6662L37.7078 19.1562L67.4678 60.2762L80.5278 100.936L96.3578 123.836L95.6278 124.336Z" fill="none" />
    <path d="M79.9277 101.526L57.6077 89.7762L10.4277 48.2462L11.0077 47.5862L58.1077 89.0562L80.3377 100.746L79.9277 101.526Z" fill="none" />
  </g>
</svg>
