<svg xmlns="http://www.w3.org/2000/svg" width="227" height="224" viewBox="-30 -30 227 224" fill="none">
        <defs>
    <radialGradient id="starMain" cx="0.5" cy="0.5" r="0.5">
      <stop offset="0%" stop-color="#FFFFFF" stop-opacity="1" />
      <stop offset="25%" stop-color="#FFFFFF" stop-opacity="0.95" />
      <stop offset="50%" stop-color="#FFFFFF" stop-opacity="0.5" />
      <stop offset="75%" stop-color="#FFFFFF" stop-opacity="0.15" />
      <stop offset="100%" stop-color="#FFFFFF" stop-opacity="0" />
    </radialGradient>
    <radialGradient id="starMedium" cx="0.5" cy="0.5" r="0.5">
      <stop offset="0%" stop-color="#FFFFFF" stop-opacity="1" />
      <stop offset="30%" stop-color="#FFFFFF" stop-opacity="0.85" />
      <stop offset="65%" stop-color="#AAAAAA" stop-opacity="0.3" />
      <stop offset="100%" stop-color="#000000" stop-opacity="0" />
    </radialGradient>
    <linearGradient id="rayGrad" x1="0%" y1="0%" x2="100%" y2="0%">
      <stop offset="0%" stop-color="#FFFFFF" stop-opacity="0" />
      <stop offset="40%" stop-color="#FFFFFF" stop-opacity="0.5" />
      <stop offset="50%" stop-color="#FFFFFF" stop-opacity="0.8" />
      <stop offset="60%" stop-color="#FFFFFF" stop-opacity="0.5" />
      <stop offset="100%" stop-color="#FFFFFF" stop-opacity="0" />
    </linearGradient>
    <g id="star-main">
      <circle r="16" fill="url(#starMain)" opacity="0.25" />
      <ellipse rx="23" ry="0.88" fill="url(#rayGrad)" opacity="0.72" />
      <ellipse rx="0.88" ry="23" fill="url(#rayGrad)" opacity="0.72" />
      <ellipse rx="19.46" ry="0.75" fill="url(#rayGrad)" opacity="0.62" transform="rotate(45)" />
      <ellipse rx="19.46" ry="0.75" fill="url(#rayGrad)" opacity="0.62" transform="rotate(-45)" />
      <circle r="8.89" fill="url(#starMain)" opacity="0.9" />
      <circle r="3.11" fill="#FFFFFF" />
    </g>
    <g id="star-medium">
      <circle r="13" fill="url(#starMain)" opacity="0.25" />
      <ellipse rx="19.5" ry="0.8" fill="url(#rayGrad)" opacity="0.68" />
      <ellipse rx="0.8" ry="19.5" fill="url(#rayGrad)" opacity="0.68" />
      <ellipse rx="15.95" ry="0.66" fill="url(#rayGrad)" opacity="0.58" transform="rotate(45)" />
      <ellipse rx="15.95" ry="0.66" fill="url(#rayGrad)" opacity="0.58" transform="rotate(-45)" />
      <circle r="7.43" fill="url(#starMain)" opacity="0.9" />
      <circle r="2.51" fill="#FFFFFF" />
    </g>
    <g id="star-small">
      <circle r="10" fill="url(#starMedium)" opacity="0.3" />
      <ellipse rx="13.5" ry="0.58" fill="url(#rayGrad)" opacity="0.55" />
      <ellipse rx="0.58" ry="13.5" fill="url(#rayGrad)" opacity="0.55" />
      <ellipse rx="10.61" ry="0.48" fill="url(#rayGrad)" opacity="0.5" transform="rotate(45)" />
      <ellipse rx="10.61" ry="0.48" fill="url(#rayGrad)" opacity="0.5" transform="rotate(-45)" />
      <circle r="5.91" fill="url(#starMedium)" opacity="0.9" />
      <circle r="1.82" fill="#FFFFFF" />
    </g>
  </defs>
  <g opacity="0.9">
    <g transform="translate(80.043 82.951)">
      <use href="#star-main" />
    </g>
    <g transform="translate(50.923 100.221)">
      <use href="#star-medium" />
    </g>
    <g transform="translate(14.903 109.251)">
      <use href="#star-medium" />
    </g>
    <g transform="translate(14.703 108.441)">
      <use href="#star-medium" />
    </g>
    <g transform="translate(50.663 99.421)">
      <use href="#star-small" />
    </g>
    <g transform="translate(79.083 82.551)">
      <use href="#star-small" />
    </g>
    <g transform="translate(71.293 51.311)">
      <use href="#star-small" />
    </g>
    <g transform="translate(53.983 12.101)">
      <use href="#star-small" />
    </g>
    <g transform="translate(24.753 5.821)">
      <use href="#star-small" />
    </g>
    <g transform="translate(24.933 5.001)">
      <use href="#star-small" />
    </g>
    <g transform="translate(54.573 11.381)">
      <use href="#star-small" />
    </g>
    <g transform="translate(72.083 51.041)">
      <use href="#star-small" />
    </g>
    <g transform="translate(149.733 133.351)">
      <use href="#star-small" />
    </g>
    <g transform="translate(149.423 134.121)">
      <use href="#star-small" />
    </g>
    <g transform="translate(109.443 117.751)">
      <use href="#star-small" />
    </g>
    <g transform="translate(79.243 83.031)">
      <use href="#star-small" />
    </g>
    <g transform="translate(79.873 82.481)">
      <use href="#star-small" />
    </g>
    <g transform="translate(110.003 117.121)">
      <use href="#star-small" />
    </g>
    <g transform="translate(110.073 117.741)">
      <use href="#star-small" />
    </g>
    <g transform="translate(78.973 155.311)">
      <use href="#star-small" />
    </g>
    <g transform="translate(78.333 154.771)">
      <use href="#star-small" />
    </g>
    <g transform="translate(109.433 117.201)">
      <use href="#star-small" />
    </g>
  </g>
  <g stroke="#FFFFFF" stroke-width="1.2" stroke-linecap="round" stroke-linejoin="round" opacity="0.85">
    <path d="M80.0431 82.9507L50.9231 100.221L14.9031 109.251L14.7031 108.441L50.6631 99.4207L79.0831 82.5507L71.2931 51.3107L53.9831 12.1007L24.7531 5.82071L24.9331 5.00073L54.5731 11.3807L72.0831 51.0407L80.0431 82.9507Z" fill="none" />
    <path d="M149.733 133.351L149.423 134.121L109.443 117.751L79.2432 83.0308L79.8732 82.4808L110.003 117.121L149.733 133.351Z" fill="none" />
    <path d="M110.073 117.741L78.973 155.311L78.333 154.771L109.433 117.201L110.073 117.741Z" fill="none" />
  </g>
</svg>
