<svg width="62" height="62" viewBox="0 0 62 62" fill="none" xmlns="http://www.w3.org/2000/svg">
<g filter="url(#filter0_f_74_252)">
<path d="M52 18.9999C52 17.4086 51.3679 15.8824 50.2426 14.7572C49.1174 13.632 47.5913 12.9999 46 12.9999H44.5V11.5421C44.5 10.7349 43.8794 10.0421 43.0722 10.0017C42.8694 9.99197 42.6667 10.0235 42.4764 10.0943C42.2861 10.1652 42.1122 10.274 41.9652 10.4141C41.8182 10.5541 41.7012 10.7226 41.6212 10.9092C41.5413 11.0959 41.5 11.2968 41.5 11.4999V12.9999H20.5V11.5421C20.5 10.7349 19.8794 10.0421 19.0722 10.0017C18.8694 9.99197 18.6667 10.0235 18.4764 10.0943C18.2861 10.1652 18.1122 10.274 17.9652 10.4141C17.8182 10.5541 17.7012 10.7226 17.6212 10.9092C17.5413 11.0959 17.5 11.2968 17.5 11.4999V12.9999H16C14.4087 12.9999 12.8826 13.632 11.7574 14.7572C10.6321 15.8824 10 17.4086 10 18.9999V20.1249C10 20.2243 10.0395 20.3197 10.1098 20.39C10.1802 20.4604 10.2755 20.4999 10.375 20.4999H51.625C51.7245 20.4999 51.8198 20.4604 51.8902 20.39C51.9605 20.3197 52 20.2243 52 20.1249V18.9999ZM10 45.9999C10 47.5912 10.6321 49.1173 11.7574 50.2425C12.8826 51.3677 14.4087 51.9999 16 51.9999H46C47.5913 51.9999 49.1174 51.3677 50.2426 50.2425C51.3679 49.1173 52 47.5912 52 45.9999V23.8749C52 23.7754 51.9605 23.68 51.8902 23.6097C51.8198 23.5394 51.7245 23.4999 51.625 23.4999H10.375C10.2755 23.4999 10.1802 23.5394 10.1098 23.6097C10.0395 23.68 10 23.7754 10 23.8749V45.9999Z" fill="#F3C8FF" fill-opacity="0.5"/>
</g>
<path d="M52 18.9999C52 17.4086 51.3679 15.8824 50.2426 14.7572C49.1174 13.632 47.5913 12.9999 46 12.9999H44.5V11.5421C44.5 10.7349 43.8794 10.0421 43.0722 10.0017C42.8694 9.99197 42.6667 10.0235 42.4764 10.0943C42.2861 10.1652 42.1122 10.274 41.9652 10.4141C41.8182 10.5541 41.7012 10.7226 41.6212 10.9092C41.5413 11.0959 41.5 11.2968 41.5 11.4999V12.9999H20.5V11.5421C20.5 10.7349 19.8794 10.0421 19.0722 10.0017C18.8694 9.99197 18.6667 10.0235 18.4764 10.0943C18.2861 10.1652 18.1122 10.274 17.9652 10.4141C17.8182 10.5541 17.7012 10.7226 17.6212 10.9092C17.5413 11.0959 17.5 11.2968 17.5 11.4999V12.9999H16C14.4087 12.9999 12.8826 13.632 11.7574 14.7572C10.6321 15.8824 10 17.4086 10 18.9999V20.1249C10 20.2243 10.0395 20.3197 10.1098 20.39C10.1802 20.4604 10.2755 20.4999 10.375 20.4999H51.625C51.7245 20.4999 51.8198 20.4604 51.8902 20.39C51.9605 20.3197 52 20.2243 52 20.1249V18.9999ZM10 45.9999C10 47.5912 10.6321 49.1173 11.7574 50.2425C12.8826 51.3677 14.4087 51.9999 16 51.9999H46C47.5913 51.9999 49.1174 51.3677 50.2426 50.2425C51.3679 49.1173 52 47.5912 52 45.9999V23.8749C52 23.7754 51.9605 23.68 51.8902 23.6097C51.8198 23.5394 51.7245 23.4999 51.625 23.4999H10.375C10.2755 23.4999 10.1802 23.5394 10.1098 23.6097C10.0395 23.68 10 23.7754 10 23.8749V45.9999Z" fill="#F3C8FF"/>
<defs>
<filter id="filter0_f_74_252" x="0" y="0" width="62" height="61.9999" filterUnits="userSpaceOnUse" color-interpolation-filters="sRGB">
<feFlood flood-opacity="0" result="BackgroundImageFix"/>
<feBlend mode="normal" in="SourceGraphic" in2="BackgroundImageFix" result="shape"/>
<feGaussianBlur stdDeviation="5" result="effect1_foregroundBlur_74_252"/>
</filter>
</defs>
</svg>
