<svg width="65" height="62" viewBox="0 0 65 62" fill="none" xmlns="http://www.w3.org/2000/svg">
    <g filter="url(#filter0_f_263_1026)">
        <path d="M33.0213 16.495C32.8817 16.3615 32.696 16.287 32.5028 16.287C32.3097 16.287 32.124 16.3615 31.9844 16.495L14.725 32.9828C14.6517 33.0529 14.5934 33.1372 14.5536 33.2305C14.5138 33.3238 14.4934 33.4242 14.4935 33.5256L14.4907 49C14.4907 49.7957 14.8067 50.5587 15.3693 51.1213C15.932 51.6839 16.695 52 17.4907 52H26.5C26.8979 52 27.2794 51.842 27.5607 51.5607C27.842 51.2794 28 50.8978 28 50.5V37.75C28 37.5511 28.0791 37.3603 28.2197 37.2197C28.3604 37.079 28.5511 37 28.75 37H36.25C36.4489 37 36.6397 37.079 36.7804 37.2197C36.921 37.3603 37 37.5511 37 37.75V50.5C37 50.8978 37.1581 51.2794 37.4394 51.5607C37.7207 51.842 38.1022 52 38.5 52H47.5057C48.3013 52 49.0644 51.6839 49.627 51.1213C50.1896 50.5587 50.5057 49.7957 50.5057 49V33.5256C50.5058 33.4242 50.4853 33.3238 50.4455 33.2305C50.4057 33.1372 50.3474 33.0529 50.2741 32.9828L33.0213 16.495Z" fill="#F3C8FF" fill-opacity="0.5"/>
        <path d="M54.5228 29.8891L47.5103 23.1803V13C47.5103 12.6022 47.3523 12.2206 47.071 11.9393C46.7897 11.658 46.4082 11.5 46.0103 11.5H41.5103C41.1125 11.5 40.731 11.658 40.4497 11.9393C40.1684 12.2206 40.0103 12.6022 40.0103 13V16L34.5803 10.8081C34.0722 10.2944 33.3166 10 32.5 10C31.6863 10 30.9325 10.2944 30.4244 10.8091L10.4838 29.8872C9.90066 30.4497 9.82754 31.375 10.3582 31.9844C10.4914 32.1382 10.6546 32.2633 10.8377 32.352C11.0208 32.4408 11.2201 32.4914 11.4234 32.5007C11.6267 32.51 11.8297 32.4778 12.0202 32.4061C12.2107 32.3344 12.3846 32.2248 12.5313 32.0837L31.9844 13.495C32.124 13.3615 32.3097 13.287 32.5028 13.287C32.696 13.287 32.8817 13.3615 33.0213 13.495L52.4763 32.0837C52.7629 32.3586 53.1467 32.5086 53.5437 32.5008C53.9407 32.4931 54.3184 32.3283 54.5941 32.0425C55.1697 31.4462 55.1219 30.4619 54.5228 29.8891Z" fill="#F3C8FF" fill-opacity="0.5"/>
    </g>
    <path d="M33.0213 16.495C32.8817 16.3615 32.696 16.287 32.5028 16.287C32.3097 16.287 32.124 16.3615 31.9844 16.495L14.725 32.9828C14.6517 33.0529 14.5934 33.1372 14.5536 33.2305C14.5138 33.3238 14.4934 33.4242 14.4935 33.5256L14.4907 49C14.4907 49.7957 14.8067 50.5587 15.3693 51.1213C15.932 51.6839 16.695 52 17.4907 52H26.5C26.8979 52 27.2794 51.842 27.5607 51.5607C27.842 51.2794 28 50.8978 28 50.5V37.75C28 37.5511 28.0791 37.3603 28.2197 37.2197C28.3604 37.079 28.5511 37 28.75 37H36.25C36.4489 37 36.6397 37.079 36.7804 37.2197C36.921 37.3603 37 37.5511 37 37.75V50.5C37 50.8978 37.1581 51.2794 37.4394 51.5607C37.7207 51.842 38.1022 52 38.5 52H47.5057C48.3013 52 49.0644 51.6839 49.627 51.1213C50.1896 50.5587 50.5057 49.7957 50.5057 49V33.5256C50.5058 33.4242 50.4853 33.3238 50.4455 33.2305C50.4057 33.1372 50.3474 33.0529 50.2741 32.9828L33.0213 16.495Z" fill="#F3C8FF"/>
    <path d="M54.5228 29.8891L47.5103 23.1803V13C47.5103 12.6022 47.3523 12.2206 47.071 11.9393C46.7897 11.658 46.4082 11.5 46.0103 11.5H41.5103C41.1125 11.5 40.731 11.658 40.4497 11.9393C40.1684 12.2206 40.0103 12.6022 40.0103 13V16L34.5803 10.8081C34.0722 10.2944 33.3166 10 32.5 10C31.6863 10 30.9325 10.2944 30.4244 10.8091L10.4838 29.8872C9.90066 30.4497 9.82754 31.375 10.3582 31.9844C10.4914 32.1382 10.6546 32.2633 10.8377 32.352C11.0208 32.4408 11.2201 32.4914 11.4234 32.5007C11.6267 32.51 11.8297 32.4778 12.0202 32.4061C12.2107 32.3344 12.3846 32.2248 12.5313 32.0837L31.9844 13.495C32.124 13.3615 32.3097 13.287 32.5028 13.287C32.696 13.287 32.8817 13.3615 33.0213 13.495L52.4763 32.0837C52.7629 32.3586 53.1467 32.5086 53.5437 32.5008C53.9407 32.4931 54.3184 32.3283 54.5941 32.0425C55.1697 31.4462 55.1219 30.4619 54.5228 29.8891Z" fill="#F3C8FF"/>
    <defs>
        <filter id="filter0_f_263_1026" x="0" y="0" width="65.0001" height="62" filterUnits="userSpaceOnUse" color-interpolation-filters="sRGB">
            <feFlood flood-opacity="0" result="BackgroundImageFix"/>
            <feBlend mode="normal" in="SourceGraphic" in2="BackgroundImageFix" result="shape"/>
            <feGaussianBlur stdDeviation="5" result="effect1_foregroundBlur_263_1026"/>
        </filter>
    </defs>
</svg>
