<svg width="65" height="62" viewBox="0 0 65 62" fill="none" xmlns="http://www.w3.org/2000/svg">
    <g filter="url(#filter0_f_263_1022)">
        <path d="M45.4336 52.0014C45.1178 52.0027 44.8098 51.9042 44.5532 51.7202L32.4961 42.9789L20.4389 51.7202C20.1813 51.907 19.8709 52.0071 19.5527 52.0059C19.2345 52.0048 18.9249 51.9024 18.6687 51.7137C18.4125 51.525 18.2229 51.2597 18.1274 50.9562C18.0318 50.6527 18.0353 50.3266 18.1373 50.0252L22.8398 36.0967L10.6523 27.7389C10.3883 27.5581 10.1891 27.2976 10.0837 26.9954C9.9783 26.6933 9.97229 26.3654 10.0665 26.0596C10.1608 25.7538 10.3504 25.4862 10.6076 25.2958C10.8647 25.1054 11.1761 25.0023 11.4961 25.0014H26.5317L31.0692 11.0374C31.1669 10.7359 31.3577 10.4731 31.614 10.2868C31.8703 10.1004 32.1791 10 32.4961 10C32.813 10 33.1218 10.1004 33.3781 10.2868C33.6345 10.4731 33.8252 10.7359 33.9229 11.0374L38.4604 25.0061H53.4961C53.8164 25.006 54.1285 25.1084 54.3864 25.2984C54.6444 25.4884 54.8347 25.756 54.9296 26.0621C55.0244 26.3681 55.0188 26.6964 54.9135 26.999C54.8082 27.3016 54.6088 27.5626 54.3445 27.7436L42.1523 36.0967L46.852 50.0214C46.9281 50.2469 46.9496 50.4872 46.9145 50.7226C46.8794 50.9579 46.7888 51.1815 46.6503 51.375C46.5117 51.5684 46.3291 51.7261 46.1175 51.835C45.906 51.944 45.6715 52.001 45.4336 52.0014Z" fill="#F3C8FF" fill-opacity="0.5"/>
    </g>
    <path d="M45.4336 52.0014C45.1178 52.0027 44.8098 51.9042 44.5532 51.7202L32.4961 42.9789L20.4389 51.7202C20.1813 51.907 19.8709 52.0071 19.5527 52.0059C19.2345 52.0048 18.9249 51.9024 18.6687 51.7137C18.4125 51.525 18.2229 51.2597 18.1274 50.9562C18.0318 50.6527 18.0353 50.3266 18.1373 50.0252L22.8398 36.0967L10.6523 27.7389C10.3883 27.5581 10.1891 27.2976 10.0837 26.9954C9.9783 26.6933 9.97229 26.3654 10.0665 26.0596C10.1608 25.7538 10.3504 25.4862 10.6076 25.2958C10.8647 25.1054 11.1761 25.0023 11.4961 25.0014H26.5317L31.0692 11.0374C31.1669 10.7359 31.3577 10.4731 31.614 10.2868C31.8703 10.1004 32.1791 10 32.4961 10C32.813 10 33.1218 10.1004 33.3781 10.2868C33.6345 10.4731 33.8252 10.7359 33.9229 11.0374L38.4604 25.0061H53.4961C53.8164 25.006 54.1285 25.1084 54.3864 25.2984C54.6444 25.4884 54.8347 25.756 54.9296 26.0621C55.0244 26.3681 55.0188 26.6964 54.9135 26.999C54.8082 27.3016 54.6088 27.5626 54.3445 27.7436L42.1523 36.0967L46.852 50.0214C46.9281 50.2469 46.9496 50.4872 46.9145 50.7226C46.8794 50.9579 46.7888 51.1815 46.6503 51.375C46.5117 51.5684 46.3291 51.7261 46.1175 51.835C45.906 51.944 45.6715 52.001 45.4336 52.0014Z" fill="#F3C8FF"/>
    <defs>
        <filter id="filter0_f_263_1022" x="0" y="0" width="64.9968" height="62.006" filterUnits="userSpaceOnUse" color-interpolation-filters="sRGB">
            <feFlood flood-opacity="0" result="BackgroundImageFix"/>
            <feBlend mode="normal" in="SourceGraphic" in2="BackgroundImageFix" result="shape"/>
            <feGaussianBlur stdDeviation="5" result="effect1_foregroundBlur_263_1022"/>
        </filter>
    </defs>
</svg>
